%TF.GenerationSoftware,KiCad,Pcbnew,8.0.3*%
%TF.CreationDate,2024-06-15T19:18:11-05:00*%
%TF.ProjectId,VIK-Solenoid,56494b2d-536f-46c6-956e-6f69642e6b69,rev?*%
%TF.SameCoordinates,Original*%
%TF.FileFunction,Legend,Top*%
%TF.FilePolarity,Positive*%
%FSLAX46Y46*%
G04 Gerber Fmt 4.6, Leading zero omitted, Abs format (unit mm)*
G04 Created by KiCad (PCBNEW 8.0.3) date 2024-06-15 19:18:11*
%MOMM*%
%LPD*%
G01*
G04 APERTURE LIST*
%ADD10C,0.000000*%
%ADD11C,0.100000*%
%ADD12R,1.700000X1.700000*%
%ADD13O,1.700000X1.700000*%
%ADD14C,3.800000*%
G04 APERTURE END LIST*
D10*
%TO.C,G\u002A\u002A\u002A*%
G36*
X195784822Y-89719466D02*
G01*
X195828057Y-89725957D01*
X195835577Y-89730781D01*
X195821387Y-89755398D01*
X195784179Y-89806639D01*
X195731996Y-89873432D01*
X195731779Y-89873702D01*
X195668294Y-89952781D01*
X195608419Y-90027598D01*
X195571804Y-90073545D01*
X195535359Y-90118148D01*
X195522264Y-90125951D01*
X195525630Y-90098516D01*
X195528902Y-90083269D01*
X195540273Y-90026571D01*
X195556108Y-89942337D01*
X195569269Y-89869567D01*
X195596360Y-89716923D01*
X195715969Y-89716923D01*
X195784822Y-89719466D01*
G37*
G36*
X188902742Y-92579674D02*
G01*
X188915192Y-92614585D01*
X188915027Y-92617163D01*
X188919424Y-92639769D01*
X188943696Y-92652744D01*
X188997738Y-92658612D01*
X189082596Y-92659903D01*
X189172666Y-92658435D01*
X189223918Y-92652279D01*
X189246337Y-92638806D01*
X189249947Y-92615853D01*
X189258847Y-92581490D01*
X189285573Y-92579785D01*
X189317262Y-92605393D01*
X189341052Y-92652971D01*
X189341276Y-92653798D01*
X189359237Y-92720961D01*
X189055434Y-92720961D01*
X188751630Y-92720961D01*
X188789519Y-92647692D01*
X188826950Y-92599378D01*
X188869010Y-92575655D01*
X188902742Y-92579674D01*
G37*
G36*
X183427951Y-85148416D02*
G01*
X183466434Y-85229562D01*
X183481309Y-85276055D01*
X183474402Y-85294941D01*
X183466267Y-85296346D01*
X183431215Y-85276528D01*
X183394810Y-85228295D01*
X183392019Y-85223077D01*
X183357923Y-85171322D01*
X183320212Y-85154289D01*
X183268510Y-85171941D01*
X183194879Y-85222397D01*
X183126135Y-85265802D01*
X183062565Y-85292116D01*
X183040697Y-85295666D01*
X183004406Y-85294459D01*
X183002536Y-85283760D01*
X183037110Y-85254799D01*
X183052908Y-85242747D01*
X183111823Y-85196753D01*
X183187885Y-85135868D01*
X183238321Y-85094817D01*
X183353276Y-85000485D01*
X183427951Y-85148416D01*
G37*
G36*
X193262677Y-85026400D02*
G01*
X193295263Y-85070356D01*
X193329922Y-85139457D01*
X193367138Y-85221277D01*
X193386009Y-85268198D01*
X193388147Y-85289904D01*
X193375164Y-85296080D01*
X193356030Y-85296346D01*
X193320633Y-85275911D01*
X193295339Y-85234662D01*
X193261462Y-85177601D01*
X193214792Y-85161243D01*
X193149314Y-85185167D01*
X193095828Y-85220635D01*
X193025433Y-85264518D01*
X192960959Y-85291844D01*
X192935337Y-85296346D01*
X192914138Y-85291191D01*
X192921185Y-85272692D01*
X192960436Y-85236296D01*
X193035845Y-85177449D01*
X193043947Y-85171343D01*
X193123509Y-85111328D01*
X193189834Y-85061015D01*
X193231807Y-85028843D01*
X193238335Y-85023714D01*
X193262677Y-85026400D01*
G37*
G36*
X183933348Y-89721300D02*
G01*
X183941538Y-89726943D01*
X183923929Y-89745656D01*
X183876358Y-89788323D01*
X183806708Y-89848015D01*
X183746154Y-89898608D01*
X183665947Y-89963169D01*
X183601697Y-90011471D01*
X183561089Y-90037949D01*
X183550769Y-90040009D01*
X183536411Y-90012691D01*
X183498315Y-89958306D01*
X183443953Y-89887365D01*
X183428753Y-89868343D01*
X183369237Y-89791885D01*
X183339320Y-89745369D01*
X183335848Y-89722497D01*
X183352942Y-89716923D01*
X183392810Y-89734607D01*
X183448288Y-89780371D01*
X183493276Y-89828226D01*
X183587404Y-89939529D01*
X183717619Y-89828226D01*
X183789478Y-89772269D01*
X183853005Y-89732301D01*
X183894518Y-89716923D01*
X183894686Y-89716923D01*
X183933348Y-89721300D01*
G37*
G36*
X189190198Y-94091956D02*
G01*
X189195299Y-94115843D01*
X189170696Y-94168331D01*
X189154119Y-94194162D01*
X189110613Y-94269278D01*
X189103833Y-94318198D01*
X189136798Y-94344987D01*
X189212525Y-94353711D01*
X189271559Y-94352375D01*
X189424519Y-94345096D01*
X189417454Y-94214520D01*
X189418944Y-94131714D01*
X189432484Y-94094760D01*
X189454494Y-94103230D01*
X189481392Y-94156698D01*
X189502246Y-94224623D01*
X189521671Y-94299804D01*
X189529358Y-94350766D01*
X189518541Y-94382200D01*
X189482450Y-94398796D01*
X189414319Y-94405245D01*
X189307379Y-94406238D01*
X189240317Y-94406153D01*
X188946210Y-94406153D01*
X189012099Y-94290144D01*
X189081456Y-94179436D01*
X189138632Y-94112506D01*
X189182491Y-94090616D01*
X189190198Y-94091956D01*
G37*
G36*
X193309437Y-89736676D02*
G01*
X193361245Y-89788243D01*
X193381058Y-89814615D01*
X193427446Y-89871888D01*
X193468823Y-89907041D01*
X193483796Y-89912307D01*
X193519975Y-89897426D01*
X193578522Y-89858767D01*
X193634690Y-89814615D01*
X193703609Y-89762751D01*
X193764552Y-89727581D01*
X193797822Y-89717579D01*
X193810289Y-89727621D01*
X193791163Y-89759101D01*
X193737960Y-89815187D01*
X193674135Y-89875367D01*
X193597559Y-89943532D01*
X193532916Y-89996998D01*
X193489422Y-90028342D01*
X193477857Y-90033461D01*
X193451141Y-90015865D01*
X193406071Y-89968933D01*
X193355742Y-89907086D01*
X193290169Y-89820125D01*
X193251060Y-89764752D01*
X193235078Y-89733848D01*
X193238889Y-89720298D01*
X193259158Y-89716985D01*
X193266619Y-89716923D01*
X193309437Y-89736676D01*
G37*
G36*
X198443326Y-92608779D02*
G01*
X198436676Y-92677539D01*
X198433453Y-92690432D01*
X198425994Y-92711730D01*
X198411829Y-92726665D01*
X198383291Y-92736365D01*
X198332713Y-92741958D01*
X198252428Y-92744574D01*
X198134769Y-92745341D01*
X198060132Y-92745384D01*
X197701539Y-92745384D01*
X197711518Y-92659903D01*
X197728586Y-92599760D01*
X197755594Y-92575447D01*
X197783114Y-92591028D01*
X197796500Y-92623269D01*
X197805953Y-92645065D01*
X197826660Y-92659219D01*
X197867662Y-92667358D01*
X197938003Y-92671110D01*
X198046725Y-92672103D01*
X198067795Y-92672115D01*
X198184567Y-92671240D01*
X198262192Y-92667523D01*
X198310352Y-92659327D01*
X198338733Y-92645017D01*
X198356822Y-92623269D01*
X198397594Y-92576557D01*
X198428363Y-92573423D01*
X198443326Y-92608779D01*
G37*
G36*
X199642173Y-92579246D02*
G01*
X199670822Y-92607305D01*
X199677076Y-92623269D01*
X199686530Y-92645065D01*
X199707237Y-92659219D01*
X199748239Y-92667358D01*
X199818580Y-92671110D01*
X199927302Y-92672103D01*
X199948372Y-92672115D01*
X200065144Y-92671240D01*
X200142768Y-92667523D01*
X200190929Y-92659327D01*
X200219310Y-92645017D01*
X200237399Y-92623269D01*
X200276744Y-92579933D01*
X200307266Y-92577267D01*
X200318532Y-92612786D01*
X200314300Y-92641586D01*
X200299109Y-92697088D01*
X200287970Y-92727067D01*
X200261196Y-92733551D01*
X200194480Y-92739026D01*
X200096727Y-92743047D01*
X199976837Y-92745167D01*
X199922152Y-92745384D01*
X199566611Y-92745384D01*
X199581337Y-92690432D01*
X199593342Y-92633639D01*
X199596397Y-92604952D01*
X199611177Y-92577057D01*
X199642173Y-92579246D01*
G37*
G36*
X201522560Y-92595158D02*
G01*
X201539062Y-92617163D01*
X201560153Y-92642004D01*
X201588097Y-92657988D01*
X201633114Y-92667046D01*
X201705421Y-92671109D01*
X201815238Y-92672109D01*
X201829848Y-92672115D01*
X201944544Y-92671285D01*
X202020458Y-92667568D01*
X202067645Y-92659127D01*
X202096158Y-92644122D01*
X202116051Y-92620716D01*
X202116767Y-92619643D01*
X202155303Y-92578912D01*
X202181339Y-92581943D01*
X202188367Y-92624022D01*
X202180764Y-92666009D01*
X202159757Y-92745384D01*
X201806321Y-92745384D01*
X201668582Y-92745158D01*
X201572285Y-92743713D01*
X201510025Y-92739895D01*
X201474397Y-92732552D01*
X201457998Y-92720532D01*
X201453422Y-92702683D01*
X201453258Y-92690432D01*
X201463742Y-92629179D01*
X201476993Y-92598846D01*
X201498171Y-92578394D01*
X201522560Y-92595158D01*
G37*
G36*
X195430964Y-84755982D02*
G01*
X195459674Y-84813144D01*
X195498842Y-84897226D01*
X195544364Y-84999117D01*
X195592135Y-85109710D01*
X195638052Y-85219893D01*
X195660545Y-85275799D01*
X195648965Y-85294090D01*
X195634191Y-85296346D01*
X195605555Y-85275888D01*
X195568354Y-85223209D01*
X195542500Y-85174230D01*
X195503072Y-85104902D01*
X195464941Y-85061549D01*
X195435134Y-85049437D01*
X195420678Y-85073831D01*
X195420248Y-85082644D01*
X195411093Y-85151284D01*
X195388714Y-85220628D01*
X195359897Y-85274404D01*
X195331429Y-85296342D01*
X195331108Y-85296346D01*
X195304170Y-85281700D01*
X195306118Y-85241394D01*
X195316196Y-85193536D01*
X195332088Y-85111778D01*
X195351064Y-85010313D01*
X195360149Y-84960528D01*
X195379383Y-84862897D01*
X195397403Y-84786544D01*
X195411567Y-84741989D01*
X195416816Y-84734850D01*
X195430964Y-84755982D01*
G37*
G36*
X201567760Y-94094861D02*
G01*
X201573370Y-94119449D01*
X201568086Y-94171361D01*
X201551649Y-94259542D01*
X201545690Y-94288674D01*
X201516381Y-94430577D01*
X201177404Y-94430577D01*
X200838426Y-94430577D01*
X200851743Y-94363413D01*
X200865212Y-94292170D01*
X200879898Y-94210052D01*
X200880876Y-94204393D01*
X200899537Y-94129987D01*
X200918962Y-94097454D01*
X200933397Y-94107741D01*
X200937087Y-94161795D01*
X200934298Y-94195602D01*
X200930792Y-94263229D01*
X200943178Y-94308974D01*
X200978768Y-94337030D01*
X201044876Y-94351592D01*
X201148814Y-94356854D01*
X201216269Y-94357307D01*
X201326888Y-94355500D01*
X201399429Y-94345920D01*
X201444638Y-94322330D01*
X201473259Y-94278495D01*
X201496036Y-94208176D01*
X201500284Y-94192452D01*
X201521903Y-94129627D01*
X201543922Y-94092732D01*
X201551518Y-94088653D01*
X201567760Y-94094861D01*
G37*
G36*
X198074539Y-94123926D02*
G01*
X198066543Y-94182991D01*
X198062131Y-94202198D01*
X198042276Y-94283189D01*
X198024982Y-94356553D01*
X198023426Y-94363413D01*
X198008300Y-94430577D01*
X197675899Y-94430577D01*
X197343498Y-94430577D01*
X197360672Y-94278781D01*
X197373589Y-94179513D01*
X197386422Y-94121640D01*
X197401844Y-94097789D01*
X197422532Y-94100588D01*
X197424817Y-94101941D01*
X197435587Y-94132657D01*
X197434777Y-94192259D01*
X197431822Y-94214732D01*
X197426024Y-94275033D01*
X197436430Y-94315406D01*
X197470399Y-94339811D01*
X197535289Y-94352206D01*
X197638461Y-94356553D01*
X197696092Y-94356933D01*
X197822709Y-94352816D01*
X197907929Y-94337867D01*
X197958586Y-94308987D01*
X197981516Y-94263072D01*
X197984808Y-94225904D01*
X197995069Y-94174561D01*
X198019375Y-94125264D01*
X198048003Y-94093272D01*
X198069897Y-94092332D01*
X198074539Y-94123926D01*
G37*
G36*
X199831104Y-94095264D02*
G01*
X199833376Y-94097350D01*
X199834303Y-94125998D01*
X199823696Y-94188090D01*
X199803849Y-94270220D01*
X199803703Y-94270757D01*
X199760442Y-94430577D01*
X199431201Y-94430577D01*
X199101960Y-94430577D01*
X199119134Y-94278781D01*
X199132051Y-94179513D01*
X199144883Y-94121640D01*
X199160306Y-94097789D01*
X199180993Y-94100588D01*
X199183279Y-94101941D01*
X199194049Y-94132657D01*
X199193239Y-94192259D01*
X199190283Y-94214732D01*
X199185057Y-94288865D01*
X199200774Y-94328843D01*
X199208548Y-94334999D01*
X199248917Y-94345168D01*
X199323129Y-94352091D01*
X199416531Y-94355658D01*
X199514468Y-94355757D01*
X199602288Y-94352276D01*
X199665338Y-94345106D01*
X199685790Y-94338616D01*
X199709032Y-94305420D01*
X199733768Y-94243681D01*
X199741405Y-94217906D01*
X199770091Y-94137894D01*
X199801350Y-94095232D01*
X199831104Y-94095264D01*
G37*
G36*
X189064477Y-90264605D02*
G01*
X189073494Y-90290988D01*
X189090602Y-90355068D01*
X189113467Y-90446824D01*
X189139754Y-90556231D01*
X189167127Y-90673267D01*
X189193252Y-90787910D01*
X189215794Y-90890137D01*
X189232419Y-90969924D01*
X189240791Y-91017250D01*
X189241346Y-91023853D01*
X189234187Y-91038793D01*
X189207983Y-91049109D01*
X189155645Y-91055585D01*
X189070086Y-91059009D01*
X188944215Y-91060164D01*
X188913344Y-91060192D01*
X188585343Y-91060192D01*
X188667487Y-90919650D01*
X188779053Y-90919650D01*
X188785206Y-90959867D01*
X188826182Y-90979915D01*
X188904426Y-90986529D01*
X188946828Y-90986923D01*
X189033490Y-90983605D01*
X189099634Y-90974894D01*
X189131325Y-90962650D01*
X189131607Y-90962232D01*
X189134025Y-90927109D01*
X189125944Y-90859384D01*
X189110406Y-90773388D01*
X189090454Y-90683452D01*
X189069130Y-90603905D01*
X189049477Y-90549077D01*
X189040929Y-90535096D01*
X189023373Y-90526601D01*
X189000839Y-90539165D01*
X188968717Y-90578350D01*
X188922399Y-90649722D01*
X188861428Y-90751757D01*
X188805275Y-90852525D01*
X188779053Y-90919650D01*
X188667487Y-90919650D01*
X188820452Y-90657941D01*
X188893915Y-90533452D01*
X188958931Y-90425559D01*
X189011587Y-90340567D01*
X189047972Y-90284782D01*
X189064174Y-90264508D01*
X189064477Y-90264605D01*
G37*
G36*
X197761305Y-94645985D02*
G01*
X197874777Y-94702705D01*
X197955636Y-94794126D01*
X198000644Y-94917060D01*
X198009139Y-95011598D01*
X197987835Y-95158513D01*
X197928580Y-95290335D01*
X197838682Y-95400950D01*
X197725450Y-95484247D01*
X197596190Y-95534114D01*
X197458212Y-95544437D01*
X197386442Y-95532405D01*
X197260082Y-95482977D01*
X197173108Y-95407267D01*
X197122613Y-95301378D01*
X197105688Y-95161414D01*
X197105684Y-95160294D01*
X197160173Y-95160294D01*
X197182876Y-95280695D01*
X197240041Y-95376694D01*
X197325791Y-95443210D01*
X197434245Y-95475162D01*
X197559526Y-95467469D01*
X197656824Y-95434540D01*
X197766866Y-95362089D01*
X197857002Y-95259823D01*
X197920309Y-95140020D01*
X197949862Y-95014956D01*
X197945304Y-94923010D01*
X197906679Y-94833041D01*
X197836153Y-94748846D01*
X197749101Y-94685750D01*
X197683085Y-94661653D01*
X197566059Y-94662941D01*
X197447435Y-94704178D01*
X197337626Y-94777968D01*
X197247046Y-94876915D01*
X197186106Y-94993622D01*
X197177812Y-95020570D01*
X197160173Y-95160294D01*
X197105684Y-95160294D01*
X197105668Y-95156190D01*
X197127289Y-94995214D01*
X197190609Y-94854923D01*
X197281861Y-94750688D01*
X197381796Y-94678590D01*
X197483039Y-94640069D01*
X197606924Y-94627298D01*
X197618461Y-94627154D01*
X197761305Y-94645985D01*
G37*
G36*
X202285314Y-91293955D02*
G01*
X202400364Y-91347615D01*
X202475617Y-91414599D01*
X202552684Y-91536565D01*
X202588417Y-91672890D01*
X202584865Y-91815484D01*
X202544075Y-91956259D01*
X202468098Y-92087126D01*
X202358982Y-92199995D01*
X202259926Y-92266189D01*
X202134413Y-92314501D01*
X202002705Y-92331363D01*
X201880236Y-92316147D01*
X201805978Y-92284694D01*
X201686711Y-92187573D01*
X201610955Y-92068266D01*
X201580187Y-91933136D01*
X201654198Y-91933136D01*
X201685087Y-92049780D01*
X201748032Y-92144856D01*
X201838600Y-92212512D01*
X201952354Y-92246895D01*
X202084861Y-92242151D01*
X202138629Y-92229045D01*
X202263444Y-92168046D01*
X202373408Y-92070425D01*
X202459693Y-91948037D01*
X202513469Y-91812734D01*
X202527170Y-91707403D01*
X202505795Y-91584993D01*
X202446480Y-91484141D01*
X202357035Y-91409295D01*
X202245271Y-91364898D01*
X202118996Y-91355397D01*
X201986022Y-91385237D01*
X201971424Y-91391069D01*
X201859166Y-91454049D01*
X201773027Y-91542902D01*
X201706333Y-91658557D01*
X201659802Y-91800778D01*
X201654198Y-91933136D01*
X201580187Y-91933136D01*
X201578765Y-91926892D01*
X201583689Y-91803165D01*
X201623247Y-91657209D01*
X201694829Y-91530516D01*
X201791357Y-91426171D01*
X201905749Y-91347258D01*
X202030927Y-91296861D01*
X202159808Y-91278066D01*
X202285314Y-91293955D01*
G37*
G36*
X189098315Y-87616538D02*
G01*
X189129804Y-87748591D01*
X189156792Y-87866148D01*
X189177251Y-87960026D01*
X189189155Y-88021046D01*
X189191343Y-88037836D01*
X189187686Y-88055033D01*
X189170647Y-88066914D01*
X189132760Y-88074444D01*
X189066560Y-88078585D01*
X188964581Y-88080301D01*
X188860175Y-88080577D01*
X188726846Y-88080053D01*
X188635294Y-88077885D01*
X188578458Y-88073176D01*
X188549275Y-88065027D01*
X188540683Y-88052542D01*
X188543298Y-88040321D01*
X188561335Y-88004484D01*
X188578355Y-87973841D01*
X188714086Y-87973841D01*
X188739355Y-87993391D01*
X188800701Y-88004163D01*
X188898656Y-88007307D01*
X188988168Y-88006588D01*
X189039414Y-88001659D01*
X189062976Y-87988359D01*
X189069435Y-87962530D01*
X189069515Y-87940144D01*
X189062479Y-87860045D01*
X189045533Y-87771308D01*
X189022115Y-87684467D01*
X188995660Y-87610054D01*
X188969605Y-87558602D01*
X188947384Y-87540646D01*
X188940578Y-87544897D01*
X188903696Y-87597903D01*
X188858388Y-87672971D01*
X188810761Y-87758533D01*
X188766925Y-87843019D01*
X188732987Y-87914861D01*
X188715058Y-87962490D01*
X188714086Y-87973841D01*
X188578355Y-87973841D01*
X188599093Y-87936506D01*
X188651078Y-87846084D01*
X188711794Y-87742913D01*
X188712849Y-87741139D01*
X188780511Y-87627036D01*
X188846444Y-87515128D01*
X188902498Y-87419286D01*
X188936699Y-87360096D01*
X189006445Y-87237980D01*
X189098315Y-87616538D01*
G37*
G36*
X198150002Y-92985063D02*
G01*
X198265705Y-93042883D01*
X198349203Y-93135959D01*
X198397942Y-93261600D01*
X198410124Y-93392596D01*
X198385231Y-93558511D01*
X198317694Y-93704162D01*
X198211036Y-93823883D01*
X198094711Y-93899804D01*
X198007519Y-93931113D01*
X197905460Y-93950848D01*
X197812248Y-93955213D01*
X197777211Y-93950643D01*
X197655362Y-93908922D01*
X197564186Y-93842806D01*
X197517921Y-93787770D01*
X197474992Y-93718844D01*
X197453811Y-93651353D01*
X197447569Y-93562008D01*
X197447500Y-93546897D01*
X197451518Y-93515057D01*
X197503709Y-93515057D01*
X197526527Y-93642931D01*
X197541792Y-93678629D01*
X197607105Y-93778385D01*
X197691788Y-93838947D01*
X197804941Y-93865728D01*
X197860546Y-93868196D01*
X197975310Y-93857774D01*
X198074674Y-93820180D01*
X198098022Y-93807139D01*
X198202653Y-93722155D01*
X198281270Y-93611160D01*
X198330099Y-93485485D01*
X198345367Y-93356457D01*
X198323298Y-93235406D01*
X198303087Y-93191608D01*
X198226473Y-93091883D01*
X198129146Y-93034198D01*
X198004014Y-93014499D01*
X197993251Y-93014440D01*
X197850782Y-93038232D01*
X197724062Y-93107454D01*
X197616049Y-93220395D01*
X197601540Y-93241154D01*
X197528651Y-93381585D01*
X197503709Y-93515057D01*
X197451518Y-93515057D01*
X197468775Y-93378319D01*
X197529271Y-93231625D01*
X197623999Y-93112026D01*
X197747965Y-93024734D01*
X197896180Y-92974959D01*
X198004646Y-92965192D01*
X198150002Y-92985063D01*
G37*
G36*
X200520250Y-88339775D02*
G01*
X200648384Y-88404721D01*
X200752204Y-88511801D01*
X200753252Y-88513278D01*
X200810700Y-88634874D01*
X200828160Y-88772581D01*
X200807092Y-88916670D01*
X200748959Y-89057409D01*
X200655221Y-89185067D01*
X200651836Y-89188632D01*
X200578069Y-89254363D01*
X200496240Y-89311132D01*
X200463750Y-89328528D01*
X200357811Y-89360322D01*
X200232683Y-89372567D01*
X200110385Y-89364641D01*
X200023680Y-89340964D01*
X199938028Y-89284837D01*
X199858572Y-89201166D01*
X199799604Y-89107231D01*
X199778043Y-89043957D01*
X199772816Y-88933325D01*
X199865385Y-88933325D01*
X199886515Y-89064176D01*
X199944840Y-89170581D01*
X200032757Y-89247568D01*
X200142666Y-89290169D01*
X200266965Y-89293413D01*
X200371633Y-89264340D01*
X200523749Y-89179167D01*
X200634485Y-89068243D01*
X200703558Y-88931973D01*
X200730686Y-88770760D01*
X200731091Y-88752211D01*
X200726090Y-88649562D01*
X200706567Y-88578843D01*
X200684943Y-88543230D01*
X200581587Y-88442347D01*
X200461846Y-88386546D01*
X200330631Y-88376951D01*
X200192854Y-88414683D01*
X200169971Y-88425466D01*
X200034357Y-88518011D01*
X199937470Y-88639681D01*
X199880806Y-88787982D01*
X199865385Y-88933325D01*
X199772816Y-88933325D01*
X199770354Y-88881223D01*
X199805249Y-88726711D01*
X199877072Y-88587356D01*
X199980167Y-88470094D01*
X200108876Y-88381860D01*
X200257545Y-88329588D01*
X200370054Y-88318110D01*
X200520250Y-88339775D01*
G37*
G36*
X199506536Y-94645048D02*
G01*
X199620285Y-94700897D01*
X199700405Y-94791397D01*
X199744775Y-94914431D01*
X199753440Y-95016730D01*
X199730111Y-95173006D01*
X199665267Y-95311734D01*
X199564370Y-95425106D01*
X199432880Y-95505308D01*
X199404035Y-95516455D01*
X199305114Y-95544675D01*
X199220318Y-95548729D01*
X199122553Y-95529444D01*
X199108269Y-95525489D01*
X198995113Y-95471733D01*
X198913630Y-95388498D01*
X198863900Y-95283559D01*
X198846006Y-95164693D01*
X198846224Y-95162753D01*
X198915786Y-95162753D01*
X198937849Y-95269660D01*
X198988273Y-95360847D01*
X199063573Y-95429866D01*
X199160263Y-95470274D01*
X199274858Y-95475624D01*
X199395691Y-95442969D01*
X199471998Y-95403382D01*
X199538654Y-95356702D01*
X199544667Y-95351382D01*
X199619733Y-95255786D01*
X199669603Y-95138092D01*
X199691334Y-95012878D01*
X199681985Y-94894719D01*
X199652216Y-94818489D01*
X199598687Y-94759668D01*
X199518476Y-94704452D01*
X199431543Y-94664413D01*
X199363106Y-94650921D01*
X199289329Y-94667029D01*
X199199340Y-94707480D01*
X199111870Y-94762482D01*
X199054613Y-94812160D01*
X198970683Y-94927558D01*
X198925569Y-95046570D01*
X198915786Y-95162753D01*
X198846224Y-95162753D01*
X198860026Y-95039674D01*
X198906043Y-94916277D01*
X198984136Y-94802279D01*
X199094386Y-94705453D01*
X199099723Y-94701878D01*
X199178448Y-94655872D01*
X199250167Y-94633057D01*
X199340156Y-94626097D01*
X199361282Y-94625961D01*
X199506536Y-94645048D01*
G37*
G36*
X186571894Y-79563028D02*
G01*
X186564141Y-79601347D01*
X186548889Y-79680626D01*
X186527472Y-79793786D01*
X186501224Y-79933746D01*
X186471479Y-80093426D01*
X186444184Y-80240769D01*
X186406142Y-80444140D01*
X186375023Y-80603758D01*
X186349657Y-80724042D01*
X186328875Y-80809408D01*
X186311507Y-80864276D01*
X186296383Y-80893063D01*
X186282334Y-80900188D01*
X186271381Y-80893560D01*
X186270222Y-80864684D01*
X186278104Y-80794394D01*
X186293930Y-80689058D01*
X186316599Y-80555045D01*
X186345012Y-80398722D01*
X186378069Y-80226458D01*
X186414671Y-80044620D01*
X186433746Y-79953110D01*
X186454976Y-79844776D01*
X186471362Y-79746546D01*
X186480467Y-79673722D01*
X186481538Y-79653219D01*
X186481538Y-79579928D01*
X186159171Y-79586743D01*
X185836804Y-79593557D01*
X185732163Y-80118653D01*
X185689519Y-80332493D01*
X185655297Y-80503268D01*
X185628377Y-80635821D01*
X185607642Y-80734994D01*
X185591975Y-80805629D01*
X185580256Y-80852567D01*
X185571370Y-80880650D01*
X185564197Y-80894721D01*
X185557620Y-80899621D01*
X185551730Y-80900192D01*
X185532751Y-80879912D01*
X185529038Y-80855481D01*
X185533655Y-80817561D01*
X185546442Y-80740642D01*
X185565809Y-80633587D01*
X185590162Y-80505256D01*
X185611306Y-80397548D01*
X185642628Y-80239048D01*
X185674438Y-80076041D01*
X185703846Y-79923467D01*
X185727966Y-79796262D01*
X185737256Y-79746202D01*
X185780939Y-79508077D01*
X186182732Y-79508077D01*
X186584526Y-79508077D01*
X186571894Y-79563028D01*
G37*
G36*
X189073226Y-84331345D02*
G01*
X189090840Y-84395476D01*
X189114257Y-84486985D01*
X189141053Y-84595724D01*
X189168801Y-84711549D01*
X189195076Y-84824313D01*
X189217455Y-84923868D01*
X189233511Y-85000070D01*
X189240819Y-85042771D01*
X189241017Y-85046009D01*
X189227983Y-85059302D01*
X189184886Y-85068435D01*
X189106241Y-85073935D01*
X188986560Y-85076331D01*
X188923846Y-85076538D01*
X188805736Y-85075545D01*
X188707548Y-85072827D01*
X188638350Y-85068778D01*
X188607212Y-85063791D01*
X188606346Y-85062773D01*
X188618108Y-85035561D01*
X188650190Y-84976338D01*
X188656055Y-84966077D01*
X188777308Y-84966077D01*
X188786487Y-84985636D01*
X188820011Y-84997119D01*
X188886854Y-85002351D01*
X188960481Y-85003269D01*
X189054915Y-85001832D01*
X189110318Y-84995996D01*
X189136457Y-84983476D01*
X189143102Y-84961986D01*
X189143096Y-84960528D01*
X189135534Y-84894754D01*
X189117036Y-84811402D01*
X189091825Y-84723867D01*
X189064125Y-84645544D01*
X189038159Y-84589827D01*
X189019991Y-84570115D01*
X188994112Y-84587415D01*
X188953630Y-84637074D01*
X188905558Y-84707651D01*
X188856911Y-84787701D01*
X188814700Y-84865783D01*
X188785940Y-84930454D01*
X188777308Y-84966077D01*
X188656055Y-84966077D01*
X188697784Y-84893068D01*
X188756084Y-84793715D01*
X188820283Y-84686244D01*
X188885575Y-84578620D01*
X188947153Y-84478806D01*
X189000209Y-84394768D01*
X189039937Y-84334470D01*
X189061530Y-84305876D01*
X189063841Y-84304738D01*
X189073226Y-84331345D01*
G37*
G36*
X198345348Y-91291895D02*
G01*
X198465375Y-91333063D01*
X198568724Y-91411985D01*
X198644783Y-91517947D01*
X198681758Y-91631572D01*
X198686559Y-91803723D01*
X198646110Y-91957892D01*
X198559874Y-92095760D01*
X198519380Y-92139868D01*
X198444521Y-92207462D01*
X198368718Y-92264337D01*
X198315161Y-92294863D01*
X198218946Y-92319568D01*
X198103766Y-92327608D01*
X197993827Y-92318476D01*
X197935961Y-92302820D01*
X197855410Y-92254275D01*
X197773706Y-92179177D01*
X197709815Y-92095485D01*
X197701762Y-92081068D01*
X197672880Y-91983296D01*
X197670890Y-91916788D01*
X197741890Y-91916788D01*
X197774363Y-92034988D01*
X197844065Y-92134857D01*
X197936838Y-92201971D01*
X198028518Y-92242113D01*
X198105980Y-92254659D01*
X198193430Y-92242166D01*
X198229038Y-92232865D01*
X198333641Y-92184443D01*
X198436537Y-92104445D01*
X198520384Y-92007570D01*
X198546600Y-91963725D01*
X198599329Y-91821648D01*
X198612390Y-91687595D01*
X198588387Y-91568025D01*
X198529920Y-91469400D01*
X198439593Y-91398183D01*
X198320007Y-91360833D01*
X198303009Y-91358855D01*
X198147079Y-91366687D01*
X198006834Y-91420094D01*
X197886984Y-91517183D01*
X197875065Y-91530661D01*
X197791519Y-91656779D01*
X197747368Y-91788103D01*
X197741890Y-91916788D01*
X197670890Y-91916788D01*
X197669236Y-91861517D01*
X197689925Y-91732985D01*
X197725281Y-91632776D01*
X197815634Y-91492077D01*
X197936363Y-91384499D01*
X198079656Y-91314337D01*
X198237705Y-91285885D01*
X198345348Y-91291895D01*
G37*
G36*
X201132411Y-94630026D02*
G01*
X201141905Y-94630550D01*
X201234073Y-94637994D01*
X201295094Y-94652077D01*
X201342666Y-94679542D01*
X201393903Y-94726544D01*
X201475519Y-94840117D01*
X201512753Y-94970314D01*
X201505072Y-95112236D01*
X201451959Y-95260961D01*
X201365857Y-95380851D01*
X201249035Y-95471391D01*
X201112425Y-95527506D01*
X200966955Y-95544119D01*
X200870866Y-95530845D01*
X200758596Y-95481210D01*
X200676809Y-95401095D01*
X200625655Y-95298304D01*
X200605282Y-95180642D01*
X200606097Y-95171010D01*
X200669623Y-95171010D01*
X200692366Y-95276466D01*
X200743683Y-95365707D01*
X200819799Y-95432608D01*
X200916937Y-95471042D01*
X201031323Y-95474884D01*
X201159180Y-95438008D01*
X201184835Y-95425817D01*
X201277385Y-95362007D01*
X201358213Y-95277216D01*
X201366631Y-95265598D01*
X201409208Y-95196288D01*
X201431450Y-95131468D01*
X201439552Y-95049175D01*
X201440226Y-95004716D01*
X201437961Y-94915142D01*
X201426839Y-94856487D01*
X201401325Y-94810938D01*
X201368418Y-94773621D01*
X201262834Y-94692629D01*
X201148885Y-94658621D01*
X201030420Y-94671286D01*
X200911289Y-94730314D01*
X200810593Y-94818612D01*
X200724961Y-94935957D01*
X200679229Y-95055465D01*
X200669623Y-95171010D01*
X200606097Y-95171010D01*
X200615840Y-95055915D01*
X200657478Y-94931928D01*
X200730345Y-94816486D01*
X200834590Y-94717393D01*
X200855052Y-94702997D01*
X200924792Y-94658977D01*
X200980795Y-94635544D01*
X201043266Y-94627595D01*
X201132411Y-94630026D01*
G37*
G36*
X198559286Y-88349503D02*
G01*
X198673655Y-88419587D01*
X198748141Y-88499168D01*
X198807458Y-88617140D01*
X198828112Y-88751640D01*
X198812680Y-88893023D01*
X198763741Y-89031644D01*
X198683874Y-89157857D01*
X198575658Y-89262018D01*
X198537242Y-89288024D01*
X198451233Y-89333629D01*
X198366546Y-89358107D01*
X198258547Y-89368523D01*
X198256376Y-89368620D01*
X198136295Y-89366576D01*
X198043885Y-89350282D01*
X198021442Y-89341823D01*
X197911898Y-89269408D01*
X197838081Y-89168261D01*
X197798181Y-89035027D01*
X197792794Y-88959454D01*
X197868190Y-88959454D01*
X197868595Y-88963796D01*
X197903836Y-89088671D01*
X197980541Y-89191882D01*
X198093643Y-89266636D01*
X198094711Y-89267114D01*
X198178683Y-89294977D01*
X198261440Y-89296804D01*
X198352750Y-89277268D01*
X198449315Y-89232417D01*
X198549522Y-89156974D01*
X198637398Y-89065084D01*
X198695858Y-88973382D01*
X198732000Y-88852805D01*
X198739742Y-88724996D01*
X198719196Y-88608084D01*
X198693209Y-88550498D01*
X198608204Y-88452049D01*
X198502447Y-88393345D01*
X198383263Y-88374162D01*
X198257979Y-88394274D01*
X198133919Y-88453457D01*
X198018410Y-88551487D01*
X198000365Y-88571749D01*
X197914833Y-88694902D01*
X197872265Y-88819703D01*
X197868190Y-88959454D01*
X197792794Y-88959454D01*
X197789423Y-88912160D01*
X197809241Y-88759457D01*
X197864244Y-88624536D01*
X197947755Y-88510274D01*
X198053100Y-88419547D01*
X198173601Y-88355231D01*
X198302584Y-88320201D01*
X198433371Y-88317333D01*
X198559286Y-88349503D01*
G37*
G36*
X199946647Y-92969064D02*
G01*
X200061773Y-92997697D01*
X200085192Y-93009030D01*
X200180066Y-93086915D01*
X200244493Y-93194177D01*
X200277527Y-93321262D01*
X200278220Y-93458614D01*
X200245627Y-93596680D01*
X200178799Y-93725903D01*
X200158894Y-93752853D01*
X200053319Y-93850057D01*
X199919951Y-93917355D01*
X199772890Y-93949959D01*
X199626233Y-93943083D01*
X199609467Y-93939410D01*
X199492076Y-93887033D01*
X199397718Y-93794112D01*
X199337369Y-93681427D01*
X199314351Y-93561223D01*
X199386659Y-93561223D01*
X199411190Y-93675053D01*
X199470120Y-93770571D01*
X199533718Y-93822792D01*
X199626196Y-93856834D01*
X199741251Y-93867985D01*
X199857946Y-93855541D01*
X199921502Y-93835849D01*
X200023901Y-93769740D01*
X200110757Y-93670329D01*
X200175414Y-93550676D01*
X200211215Y-93423839D01*
X200211502Y-93302879D01*
X200205976Y-93277748D01*
X200171693Y-93195789D01*
X200120214Y-93116246D01*
X200110420Y-93104668D01*
X200069731Y-93063005D01*
X200030937Y-93039494D01*
X199978330Y-93028978D01*
X199896205Y-93026299D01*
X199871593Y-93026250D01*
X199775108Y-93028925D01*
X199709236Y-93040130D01*
X199655886Y-93064634D01*
X199613691Y-93094241D01*
X199510041Y-93195589D01*
X199437025Y-93312918D01*
X199395584Y-93437654D01*
X199386659Y-93561223D01*
X199314351Y-93561223D01*
X199312495Y-93551531D01*
X199328101Y-93412402D01*
X199380107Y-93274820D01*
X199464434Y-93149566D01*
X199577002Y-93047420D01*
X199577362Y-93047170D01*
X199686308Y-92995162D01*
X199815448Y-92968673D01*
X199946647Y-92969064D01*
G37*
G36*
X200298794Y-91291835D02*
G01*
X200393209Y-91317751D01*
X200473500Y-91371195D01*
X200503178Y-91399162D01*
X200588885Y-91516404D01*
X200633165Y-91649088D01*
X200637591Y-91789489D01*
X200603738Y-91929883D01*
X200533182Y-92062543D01*
X200427498Y-92179747D01*
X200329552Y-92250817D01*
X200239601Y-92298905D01*
X200162462Y-92322504D01*
X200073693Y-92328720D01*
X200061850Y-92328644D01*
X199976411Y-92324209D01*
X199904851Y-92314535D01*
X199876827Y-92306982D01*
X199811510Y-92263352D01*
X199741247Y-92190849D01*
X199679211Y-92105963D01*
X199638572Y-92025182D01*
X199631680Y-92000085D01*
X199628949Y-91945812D01*
X199700719Y-91945812D01*
X199741345Y-92062442D01*
X199821711Y-92157062D01*
X199890684Y-92201971D01*
X199982364Y-92242113D01*
X200059826Y-92254659D01*
X200147276Y-92242166D01*
X200182885Y-92232865D01*
X200298979Y-92179465D01*
X200400890Y-92093420D01*
X200483451Y-91984575D01*
X200541498Y-91862770D01*
X200569867Y-91737851D01*
X200563392Y-91619658D01*
X200539340Y-91553546D01*
X200468421Y-91451493D01*
X200378031Y-91389259D01*
X200257910Y-91360251D01*
X200235583Y-91358276D01*
X200081178Y-91367843D01*
X199949280Y-91420644D01*
X199839604Y-91516863D01*
X199751861Y-91656684D01*
X199745321Y-91670769D01*
X199701491Y-91813233D01*
X199700719Y-91945812D01*
X199628949Y-91945812D01*
X199623476Y-91837025D01*
X199657357Y-91684176D01*
X199727566Y-91547652D01*
X199828343Y-91433566D01*
X199953932Y-91348030D01*
X200098573Y-91297158D01*
X200256510Y-91287063D01*
X200298794Y-91291835D01*
G37*
G36*
X202491992Y-88329797D02*
G01*
X202614904Y-88386727D01*
X202680454Y-88442032D01*
X202764342Y-88560131D01*
X202806856Y-88690746D01*
X202811435Y-88826958D01*
X202781518Y-88961847D01*
X202720545Y-89088492D01*
X202631954Y-89199974D01*
X202519185Y-89289374D01*
X202385676Y-89349770D01*
X202234866Y-89374243D01*
X202217079Y-89374443D01*
X202116329Y-89366458D01*
X202026270Y-89346382D01*
X201994579Y-89333926D01*
X201926515Y-89287580D01*
X201860370Y-89223288D01*
X201848041Y-89208079D01*
X201814721Y-89159177D01*
X201795119Y-89110857D01*
X201785761Y-89047956D01*
X201783172Y-88955311D01*
X201783178Y-88924991D01*
X201786157Y-88860532D01*
X201850021Y-88860532D01*
X201852156Y-88994120D01*
X201900542Y-89114175D01*
X201969567Y-89196465D01*
X202068397Y-89266923D01*
X202174982Y-89295799D01*
X202300051Y-89285323D01*
X202344327Y-89274413D01*
X202456980Y-89221529D01*
X202558786Y-89134298D01*
X202642932Y-89023677D01*
X202702607Y-88900620D01*
X202730999Y-88776084D01*
X202722669Y-88665931D01*
X202668578Y-88540266D01*
X202588200Y-88450011D01*
X202488454Y-88394752D01*
X202376258Y-88374075D01*
X202258530Y-88387564D01*
X202142187Y-88434806D01*
X202034148Y-88515384D01*
X201941330Y-88628886D01*
X201894476Y-88715577D01*
X201850021Y-88860532D01*
X201786157Y-88860532D01*
X201789377Y-88790866D01*
X201811025Y-88689024D01*
X201854077Y-88603831D01*
X201924485Y-88519658D01*
X201945689Y-88498290D01*
X202074590Y-88397949D01*
X202213899Y-88336015D01*
X202355678Y-88313095D01*
X202491992Y-88329797D01*
G37*
G36*
X201882523Y-92984517D02*
G01*
X202001924Y-93041238D01*
X202088894Y-93133472D01*
X202141222Y-93259338D01*
X202152434Y-93322585D01*
X202148125Y-93478058D01*
X202102069Y-93625411D01*
X202020170Y-93755458D01*
X201908334Y-93859013D01*
X201772465Y-93926891D01*
X201761889Y-93930164D01*
X201685105Y-93952028D01*
X201632691Y-93961120D01*
X201582203Y-93958616D01*
X201511199Y-93945692D01*
X201501731Y-93943796D01*
X201393369Y-93908483D01*
X201310168Y-93845243D01*
X201258991Y-93780535D01*
X201205132Y-93660953D01*
X201189073Y-93523121D01*
X201189816Y-93518051D01*
X201258887Y-93518051D01*
X201274233Y-93636757D01*
X201325572Y-93744683D01*
X201397445Y-93820178D01*
X201443010Y-93849683D01*
X201494213Y-93864212D01*
X201567646Y-93866973D01*
X201626541Y-93864469D01*
X201728148Y-93854413D01*
X201800810Y-93833947D01*
X201864237Y-93797008D01*
X201877234Y-93787351D01*
X201963345Y-93698674D01*
X202033268Y-93583865D01*
X202077424Y-93461504D01*
X202087885Y-93378781D01*
X202067869Y-93242186D01*
X202010611Y-93133704D01*
X201920296Y-93057705D01*
X201801110Y-93018559D01*
X201738643Y-93014129D01*
X201607037Y-93034506D01*
X201491708Y-93090676D01*
X201395943Y-93174878D01*
X201323027Y-93279349D01*
X201276247Y-93396328D01*
X201258887Y-93518051D01*
X201189816Y-93518051D01*
X201210199Y-93378957D01*
X201267892Y-93240381D01*
X201288627Y-93207006D01*
X201341674Y-93145292D01*
X201416220Y-93078665D01*
X201462400Y-93044567D01*
X201539297Y-92998038D01*
X201606873Y-92974111D01*
X201689103Y-92965753D01*
X201732898Y-92965192D01*
X201882523Y-92984517D01*
G37*
G36*
X200953829Y-89722611D02*
G01*
X200951243Y-89748002D01*
X200938827Y-89813443D01*
X200918280Y-89911516D01*
X200891301Y-90034804D01*
X200859590Y-90175891D01*
X200824845Y-90327359D01*
X200788765Y-90481791D01*
X200753048Y-90631771D01*
X200719395Y-90769881D01*
X200689503Y-90888705D01*
X200668429Y-90968605D01*
X200636792Y-91084615D01*
X200260652Y-91084615D01*
X199884512Y-91084615D01*
X199897253Y-91029663D01*
X199904164Y-90991229D01*
X199917007Y-90911559D01*
X199934689Y-90797759D01*
X199956116Y-90656931D01*
X199980197Y-90496178D01*
X200002430Y-90345817D01*
X200033875Y-90137363D01*
X200060343Y-89974416D01*
X200082433Y-89853953D01*
X200100740Y-89772954D01*
X200115861Y-89728398D01*
X200126664Y-89716923D01*
X200138588Y-89716562D01*
X200147407Y-89719112D01*
X200152651Y-89730023D01*
X200153848Y-89754745D01*
X200150529Y-89798727D01*
X200142223Y-89867419D01*
X200128459Y-89966271D01*
X200108767Y-90100732D01*
X200082676Y-90276252D01*
X200072401Y-90345323D01*
X200048755Y-90508915D01*
X200028595Y-90657214D01*
X200012783Y-90783136D01*
X200002177Y-90879601D01*
X199997636Y-90939526D01*
X199998366Y-90955588D01*
X200027111Y-90970250D01*
X200092369Y-90980674D01*
X200181993Y-90986848D01*
X200283831Y-90988762D01*
X200385737Y-90986406D01*
X200475560Y-90979768D01*
X200541151Y-90968838D01*
X200568838Y-90956091D01*
X200586118Y-90917426D01*
X200612443Y-90833272D01*
X200647190Y-90706022D01*
X200689737Y-90538065D01*
X200739464Y-90331795D01*
X200795747Y-90089602D01*
X200807535Y-90037944D01*
X200844202Y-89890098D01*
X200876850Y-89788257D01*
X200906668Y-89729856D01*
X200934845Y-89712333D01*
X200953829Y-89722611D01*
G37*
G36*
X198661886Y-81120286D02*
G01*
X198780680Y-81121535D01*
X198863025Y-81124334D01*
X198915118Y-81129269D01*
X198943157Y-81136929D01*
X198953339Y-81147898D01*
X198951869Y-81162740D01*
X198943579Y-81194648D01*
X198925798Y-81266222D01*
X198900424Y-81369626D01*
X198869353Y-81497027D01*
X198834485Y-81640590D01*
X198797715Y-81792479D01*
X198760942Y-81944862D01*
X198726064Y-82089903D01*
X198694976Y-82219767D01*
X198669578Y-82326620D01*
X198656115Y-82383894D01*
X198635567Y-82418523D01*
X198603394Y-82439969D01*
X198576918Y-82439862D01*
X198570961Y-82425048D01*
X198576430Y-82398128D01*
X198591677Y-82331175D01*
X198614960Y-82231624D01*
X198644538Y-82106908D01*
X198678670Y-81964465D01*
X198683915Y-81942692D01*
X198721196Y-81787959D01*
X198756780Y-81640118D01*
X198788224Y-81509331D01*
X198813085Y-81405760D01*
X198828862Y-81339807D01*
X198843300Y-81263275D01*
X198847053Y-81206461D01*
X198842231Y-81186486D01*
X198812443Y-81180259D01*
X198742876Y-81175810D01*
X198642574Y-81173430D01*
X198520582Y-81173406D01*
X198459159Y-81174274D01*
X198094711Y-81181057D01*
X198019229Y-81693942D01*
X197995543Y-81854713D01*
X197973152Y-82006384D01*
X197953433Y-82139651D01*
X197937762Y-82245213D01*
X197927517Y-82313765D01*
X197926146Y-82322836D01*
X197908302Y-82400797D01*
X197885969Y-82437712D01*
X197861646Y-82430135D01*
X197855348Y-82420528D01*
X197856322Y-82393365D01*
X197863346Y-82325738D01*
X197875351Y-82225509D01*
X197891269Y-82100539D01*
X197910031Y-81958689D01*
X197930568Y-81807821D01*
X197951811Y-81655796D01*
X197972691Y-81510475D01*
X197992141Y-81379720D01*
X198009091Y-81271391D01*
X198021360Y-81199375D01*
X198035867Y-81120000D01*
X198500445Y-81120000D01*
X198661886Y-81120286D01*
G37*
G36*
X199831871Y-79508077D02*
G01*
X199970078Y-79509270D01*
X200089337Y-79512581D01*
X200181853Y-79517608D01*
X200239836Y-79523950D01*
X200256154Y-79529970D01*
X200250768Y-79569638D01*
X200236187Y-79646154D01*
X200214773Y-79748904D01*
X200188891Y-79867277D01*
X200160904Y-79990661D01*
X200133176Y-80108444D01*
X200108069Y-80210014D01*
X200088351Y-80283372D01*
X200058434Y-80392805D01*
X200029956Y-80507212D01*
X200013128Y-80582692D01*
X199984087Y-80717395D01*
X199959803Y-80810097D01*
X199938007Y-80867134D01*
X199916430Y-80894843D01*
X199899432Y-80900192D01*
X199872855Y-80883823D01*
X199875073Y-80857452D01*
X199899124Y-80772374D01*
X199928911Y-80657971D01*
X199962597Y-80522283D01*
X199998345Y-80373346D01*
X200034318Y-80219201D01*
X200068679Y-80067886D01*
X200099590Y-79927439D01*
X200125215Y-79805899D01*
X200143716Y-79711306D01*
X200153256Y-79651697D01*
X200154028Y-79636818D01*
X200146250Y-79569134D01*
X199840464Y-79562341D01*
X199693628Y-79560987D01*
X199589821Y-79564750D01*
X199523454Y-79574026D01*
X199491788Y-79586910D01*
X199477066Y-79605720D01*
X199462319Y-79643515D01*
X199446541Y-79705341D01*
X199428728Y-79796242D01*
X199407875Y-79921263D01*
X199382978Y-80085451D01*
X199357958Y-80259061D01*
X199326452Y-80474750D01*
X199299686Y-80643937D01*
X199277268Y-80768695D01*
X199258804Y-80851099D01*
X199243903Y-80893220D01*
X199236490Y-80900021D01*
X199208207Y-80881063D01*
X199205994Y-80869663D01*
X199209458Y-80839195D01*
X199219067Y-80768271D01*
X199233670Y-80664732D01*
X199252115Y-80536419D01*
X199273251Y-80391176D01*
X199295926Y-80236842D01*
X199318988Y-80081261D01*
X199341287Y-79932272D01*
X199361671Y-79797720D01*
X199378988Y-79685444D01*
X199390682Y-79611875D01*
X199407589Y-79508076D01*
X199831871Y-79508077D01*
G37*
G36*
X189644400Y-79437274D02*
G01*
X189702751Y-79455917D01*
X189725786Y-79477548D01*
X189740440Y-79518264D01*
X189763173Y-79596777D01*
X189792282Y-79705884D01*
X189826064Y-79838382D01*
X189862820Y-79987069D01*
X189900846Y-80144742D01*
X189938442Y-80304197D01*
X189973905Y-80458232D01*
X190005533Y-80599643D01*
X190031625Y-80721229D01*
X190050480Y-80815785D01*
X190060395Y-80876109D01*
X190060662Y-80894978D01*
X190045379Y-80900766D01*
X190028930Y-80884493D01*
X190009697Y-80841419D01*
X189986067Y-80766805D01*
X189956424Y-80655909D01*
X189919153Y-80503992D01*
X189900160Y-80423942D01*
X189845437Y-80192789D01*
X189800232Y-80004783D01*
X189763287Y-79855433D01*
X189733339Y-79740242D01*
X189709128Y-79654719D01*
X189689395Y-79594368D01*
X189672877Y-79554697D01*
X189658316Y-79531211D01*
X189646826Y-79520800D01*
X189622003Y-79508929D01*
X189596746Y-79508252D01*
X189567910Y-79522622D01*
X189532350Y-79555890D01*
X189486919Y-79611911D01*
X189428470Y-79694536D01*
X189353860Y-79807618D01*
X189259940Y-79955009D01*
X189152746Y-80125873D01*
X189025386Y-80329288D01*
X188921180Y-80494772D01*
X188837681Y-80625995D01*
X188772443Y-80726625D01*
X188723018Y-80800332D01*
X188686961Y-80850785D01*
X188661825Y-80881654D01*
X188645163Y-80896609D01*
X188636875Y-80899586D01*
X188608437Y-80892629D01*
X188606346Y-80888388D01*
X188614172Y-80871784D01*
X188638739Y-80829542D01*
X188681680Y-80759030D01*
X188744625Y-80657618D01*
X188829209Y-80522673D01*
X188937062Y-80351563D01*
X189053455Y-80167500D01*
X189115593Y-80069176D01*
X189192679Y-79946954D01*
X189273697Y-79818311D01*
X189330568Y-79727884D01*
X189394591Y-79627992D01*
X189451260Y-79543232D01*
X189494598Y-79482299D01*
X189518628Y-79453886D01*
X189519179Y-79453499D01*
X189575925Y-79435620D01*
X189644400Y-79437274D01*
G37*
G36*
X189498290Y-81026506D02*
G01*
X189518360Y-81029886D01*
X189535506Y-81038264D01*
X189551567Y-81056886D01*
X189568383Y-81090996D01*
X189587793Y-81145842D01*
X189611636Y-81226668D01*
X189641752Y-81338722D01*
X189679980Y-81487248D01*
X189728159Y-81677492D01*
X189732314Y-81693942D01*
X189785024Y-81903412D01*
X189826359Y-82070228D01*
X189857189Y-82199022D01*
X189878382Y-82294425D01*
X189890807Y-82361072D01*
X189895334Y-82403592D01*
X189892830Y-82426620D01*
X189884167Y-82434787D01*
X189870958Y-82432979D01*
X189857367Y-82407550D01*
X189834130Y-82340837D01*
X189803063Y-82239041D01*
X189765981Y-82108359D01*
X189724698Y-81954993D01*
X189681030Y-81785140D01*
X189679459Y-81778888D01*
X189627254Y-81573180D01*
X189584248Y-81410684D01*
X189548591Y-81287035D01*
X189518431Y-81197866D01*
X189491915Y-81138810D01*
X189467191Y-81105501D01*
X189442408Y-81093573D01*
X189415714Y-81098658D01*
X189395587Y-81109567D01*
X189380929Y-81121075D01*
X189362369Y-81141241D01*
X189337041Y-81174385D01*
X189302075Y-81224827D01*
X189254606Y-81296888D01*
X189191765Y-81394886D01*
X189110686Y-81523143D01*
X189008501Y-81685977D01*
X188934758Y-81803846D01*
X188823066Y-81982214D01*
X188734164Y-82123374D01*
X188665154Y-82231666D01*
X188613138Y-82311429D01*
X188575220Y-82367002D01*
X188548501Y-82402724D01*
X188530085Y-82422935D01*
X188517074Y-82431975D01*
X188514760Y-82432859D01*
X188487156Y-82426082D01*
X188484231Y-82415272D01*
X188494183Y-82389374D01*
X188524734Y-82332886D01*
X188576924Y-82244098D01*
X188651796Y-82121303D01*
X188750391Y-81962793D01*
X188873749Y-81766860D01*
X189020751Y-81535192D01*
X189091741Y-81423259D01*
X189160633Y-81313980D01*
X189219046Y-81220684D01*
X189255385Y-81161967D01*
X189317174Y-81078090D01*
X189381154Y-81034398D01*
X189460580Y-81023501D01*
X189498290Y-81026506D01*
G37*
G36*
X200719537Y-81590144D02*
G01*
X200680034Y-81749953D01*
X200641604Y-81907658D01*
X200607009Y-82051772D01*
X200579005Y-82170807D01*
X200561158Y-82249567D01*
X200532480Y-82361004D01*
X200505635Y-82423710D01*
X200485721Y-82438846D01*
X200454892Y-82420919D01*
X200451538Y-82407357D01*
X200457153Y-82375478D01*
X200472895Y-82303311D01*
X200497114Y-82197975D01*
X200528159Y-82066587D01*
X200564379Y-81916265D01*
X200585865Y-81828269D01*
X200624398Y-81668828D01*
X200658613Y-81522735D01*
X200686836Y-81397513D01*
X200707393Y-81300687D01*
X200718608Y-81239780D01*
X200720192Y-81224758D01*
X200718915Y-81203260D01*
X200710219Y-81188128D01*
X200686809Y-81178245D01*
X200641390Y-81172492D01*
X200566664Y-81169753D01*
X200455336Y-81168908D01*
X200355287Y-81168846D01*
X200204669Y-81170533D01*
X200087930Y-81175379D01*
X200009912Y-81183063D01*
X199975457Y-81193261D01*
X199974721Y-81194187D01*
X199968743Y-81221559D01*
X199957173Y-81289331D01*
X199941184Y-81389529D01*
X199921951Y-81514180D01*
X199900649Y-81655307D01*
X199878452Y-81804938D01*
X199856536Y-81955097D01*
X199836076Y-82097810D01*
X199818245Y-82225102D01*
X199804218Y-82329000D01*
X199795171Y-82401529D01*
X199792269Y-82432740D01*
X199772154Y-82438174D01*
X199755481Y-82438846D01*
X199723018Y-82435523D01*
X199719067Y-82432740D01*
X199722292Y-82407909D01*
X199731259Y-82341153D01*
X199745090Y-82238939D01*
X199762909Y-82107739D01*
X199783839Y-81954021D01*
X199804327Y-81803846D01*
X199827378Y-81633943D01*
X199848074Y-81479321D01*
X199865526Y-81346788D01*
X199878845Y-81243153D01*
X199887143Y-81175224D01*
X199889587Y-81150528D01*
X199901280Y-81139434D01*
X199939448Y-81131172D01*
X200008996Y-81125428D01*
X200114831Y-81121884D01*
X200261859Y-81120224D01*
X200363235Y-81120000D01*
X200836663Y-81120000D01*
X200719537Y-81590144D01*
G37*
G36*
X202909447Y-89719975D02*
G01*
X202913461Y-89734273D01*
X202910003Y-89766402D01*
X202898180Y-89823350D01*
X202877099Y-89912105D01*
X202845866Y-90039655D01*
X202836371Y-90078405D01*
X202796594Y-90241228D01*
X202751341Y-90426976D01*
X202706588Y-90611091D01*
X202673204Y-90748798D01*
X202591935Y-91084615D01*
X202217329Y-91084615D01*
X201842723Y-91084615D01*
X201855103Y-91029663D01*
X201861082Y-90994410D01*
X201872490Y-90919585D01*
X201888208Y-90813087D01*
X201907117Y-90682814D01*
X201928098Y-90536667D01*
X201950032Y-90382544D01*
X201971799Y-90228344D01*
X201992282Y-90081967D01*
X202010360Y-89951311D01*
X202024915Y-89844276D01*
X202034828Y-89768761D01*
X202038980Y-89732665D01*
X202039038Y-89731286D01*
X202058945Y-89718518D01*
X202075673Y-89716923D01*
X202108103Y-89734127D01*
X202112308Y-89749004D01*
X202108740Y-89794553D01*
X202098882Y-89879241D01*
X202083999Y-89993946D01*
X202065357Y-90129550D01*
X202044223Y-90276933D01*
X202021862Y-90426974D01*
X201999540Y-90570555D01*
X201990368Y-90627427D01*
X201972312Y-90746294D01*
X201959393Y-90848137D01*
X201952679Y-90923090D01*
X201953238Y-90961290D01*
X201954018Y-90963244D01*
X201985334Y-90975662D01*
X202052895Y-90983709D01*
X202144313Y-90987578D01*
X202247199Y-90987463D01*
X202349167Y-90983556D01*
X202437827Y-90976050D01*
X202500792Y-90965138D01*
X202524115Y-90954366D01*
X202538920Y-90920113D01*
X202561770Y-90847352D01*
X202590061Y-90745247D01*
X202621190Y-90622961D01*
X202636915Y-90557491D01*
X202670037Y-90417838D01*
X202702383Y-90283255D01*
X202730881Y-90166403D01*
X202752461Y-90079942D01*
X202757904Y-90058846D01*
X202783633Y-89960450D01*
X202809324Y-89861841D01*
X202819998Y-89820721D01*
X202845603Y-89751857D01*
X202875144Y-89718489D01*
X202882576Y-89716923D01*
X202898854Y-89716521D01*
X202909447Y-89719975D01*
G37*
G36*
X198193317Y-89718479D02*
G01*
X198198634Y-89728605D01*
X198199959Y-89752233D01*
X198196820Y-89794817D01*
X198188744Y-89861810D01*
X198175260Y-89958666D01*
X198155895Y-90090837D01*
X198130177Y-90263778D01*
X198118372Y-90343128D01*
X198094702Y-90506930D01*
X198074532Y-90655473D01*
X198058717Y-90781676D01*
X198048115Y-90878458D01*
X198043581Y-90938739D01*
X198044336Y-90955109D01*
X198073110Y-90969874D01*
X198138382Y-90980433D01*
X198227981Y-90986759D01*
X198329736Y-90988823D01*
X198431478Y-90986598D01*
X198521036Y-90980058D01*
X198586240Y-90969173D01*
X198613500Y-90956394D01*
X198625750Y-90925088D01*
X198647556Y-90853058D01*
X198677073Y-90747075D01*
X198712454Y-90613912D01*
X198751852Y-90460342D01*
X198784982Y-90327500D01*
X198834198Y-90130821D01*
X198874357Y-89977840D01*
X198906706Y-89864508D01*
X198932490Y-89786775D01*
X198952954Y-89740591D01*
X198969345Y-89721907D01*
X198971473Y-89721238D01*
X199005228Y-89721717D01*
X199010577Y-89728028D01*
X199005160Y-89755058D01*
X198990126Y-89821874D01*
X198967296Y-89920777D01*
X198938493Y-90044067D01*
X198905538Y-90184041D01*
X198870255Y-90333001D01*
X198834464Y-90483245D01*
X198799989Y-90627073D01*
X198768651Y-90756784D01*
X198742273Y-90864678D01*
X198728575Y-90919759D01*
X198687138Y-91084615D01*
X198309904Y-91084615D01*
X198166572Y-91084224D01*
X198065249Y-91082516D01*
X197999102Y-91078694D01*
X197961297Y-91071957D01*
X197944999Y-91061507D01*
X197943376Y-91046543D01*
X197944498Y-91041875D01*
X197951037Y-91006960D01*
X197963387Y-90930541D01*
X197980504Y-90819476D01*
X198001346Y-90680623D01*
X198024871Y-90520842D01*
X198048451Y-90358028D01*
X198079312Y-90148540D01*
X198105286Y-89984381D01*
X198126991Y-89862346D01*
X198145050Y-89779228D01*
X198160082Y-89731823D01*
X198172595Y-89716923D01*
X198184480Y-89716403D01*
X198193317Y-89718479D01*
G37*
G36*
X202406987Y-81120771D02*
G01*
X202532560Y-81123303D01*
X202619218Y-81127926D01*
X202671918Y-81134966D01*
X202695613Y-81144754D01*
X202698140Y-81150528D01*
X202692325Y-81181607D01*
X202676110Y-81253450D01*
X202651070Y-81359465D01*
X202618781Y-81493062D01*
X202580819Y-81647648D01*
X202541961Y-81803846D01*
X202487781Y-82016214D01*
X202443007Y-82182494D01*
X202407111Y-82304425D01*
X202379567Y-82383744D01*
X202359846Y-82422189D01*
X202353004Y-82426634D01*
X202340615Y-82425893D01*
X202332258Y-82420160D01*
X202328902Y-82404171D01*
X202331519Y-82372663D01*
X202341080Y-82320372D01*
X202358555Y-82242033D01*
X202384915Y-82132383D01*
X202421132Y-81986157D01*
X202468176Y-81798093D01*
X202471041Y-81786655D01*
X202509392Y-81629494D01*
X202542276Y-81486893D01*
X202568178Y-81366084D01*
X202585586Y-81274300D01*
X202592988Y-81218775D01*
X202592369Y-81206607D01*
X202579502Y-81191483D01*
X202549602Y-81180903D01*
X202495411Y-81174118D01*
X202409672Y-81170382D01*
X202285126Y-81168944D01*
X202225968Y-81168846D01*
X202071403Y-81170329D01*
X201961059Y-81175027D01*
X201890395Y-81183308D01*
X201854869Y-81195541D01*
X201850858Y-81199375D01*
X201840948Y-81231433D01*
X201825816Y-81304682D01*
X201806711Y-81411899D01*
X201784885Y-81545859D01*
X201761590Y-81699337D01*
X201748296Y-81791634D01*
X201725142Y-81953761D01*
X201703605Y-82101275D01*
X201684807Y-82226759D01*
X201669867Y-82322791D01*
X201659908Y-82381953D01*
X201656955Y-82396105D01*
X201635285Y-82434712D01*
X201612394Y-82430174D01*
X201599734Y-82386523D01*
X201599423Y-82375866D01*
X201602857Y-82336165D01*
X201612406Y-82256272D01*
X201626937Y-82144302D01*
X201645318Y-82008369D01*
X201666418Y-81856587D01*
X201689104Y-81697071D01*
X201712245Y-81537934D01*
X201734708Y-81387291D01*
X201755363Y-81253257D01*
X201760848Y-81218680D01*
X201776627Y-81120000D01*
X202237544Y-81120000D01*
X202406987Y-81120771D01*
G37*
G36*
X198369838Y-79512320D02*
G01*
X198449243Y-79515410D01*
X198495978Y-79521403D01*
X198515421Y-79530606D01*
X198516140Y-79538030D01*
X198505993Y-79573275D01*
X198487380Y-79645071D01*
X198463092Y-79742438D01*
X198439906Y-79837788D01*
X198410311Y-79960884D01*
X198373372Y-80114513D01*
X198333170Y-80281717D01*
X198293780Y-80445536D01*
X198281354Y-80497211D01*
X198241495Y-80656859D01*
X198209049Y-80772438D01*
X198182694Y-80847939D01*
X198161109Y-80887354D01*
X198149493Y-80895427D01*
X198134693Y-80892161D01*
X198129710Y-80869960D01*
X198135344Y-80821678D01*
X198152395Y-80740170D01*
X198179573Y-80626773D01*
X198240387Y-80379616D01*
X198290384Y-80175629D01*
X198330446Y-80010558D01*
X198361458Y-79880148D01*
X198384301Y-79780145D01*
X198399859Y-79706296D01*
X198409014Y-79654344D01*
X198412649Y-79620038D01*
X198411646Y-79599121D01*
X198406890Y-79587341D01*
X198399262Y-79580441D01*
X198397003Y-79578977D01*
X198356636Y-79569122D01*
X198279760Y-79562364D01*
X198178608Y-79558642D01*
X198065415Y-79557896D01*
X197952415Y-79560066D01*
X197851842Y-79565091D01*
X197775930Y-79572913D01*
X197738971Y-79582205D01*
X197703971Y-79619807D01*
X197691874Y-79689292D01*
X197691731Y-79701057D01*
X197687235Y-79760816D01*
X197674973Y-79855755D01*
X197656778Y-79973160D01*
X197634486Y-80100317D01*
X197632814Y-80109284D01*
X197606438Y-80256440D01*
X197580149Y-80413893D01*
X197557271Y-80561155D01*
X197543112Y-80662067D01*
X197525214Y-80782236D01*
X197507848Y-80858321D01*
X197489737Y-80895051D01*
X197478806Y-80900192D01*
X197456932Y-80885194D01*
X197456676Y-80834840D01*
X197458869Y-80820817D01*
X197466910Y-80770514D01*
X197480519Y-80681802D01*
X197498198Y-80564605D01*
X197518447Y-80428846D01*
X197533617Y-80326250D01*
X197556505Y-80171482D01*
X197579527Y-80016856D01*
X197600656Y-79875918D01*
X197617863Y-79762213D01*
X197625001Y-79715673D01*
X197655219Y-79520288D01*
X198091501Y-79513607D01*
X198252383Y-79511822D01*
X198369838Y-79512320D01*
G37*
G36*
X201865279Y-79508813D02*
G01*
X201943977Y-79515681D01*
X201990470Y-79532170D01*
X202010288Y-79562244D01*
X202008961Y-79609868D01*
X201992018Y-79679008D01*
X201964989Y-79773628D01*
X201964074Y-79776925D01*
X201939967Y-79868379D01*
X201908829Y-79992988D01*
X201874210Y-80136221D01*
X201839659Y-80283546D01*
X201829933Y-80325953D01*
X201788436Y-80506786D01*
X201755759Y-80645425D01*
X201730240Y-80747383D01*
X201710218Y-80818174D01*
X201694030Y-80863312D01*
X201680015Y-80888309D01*
X201666510Y-80898680D01*
X201656841Y-80900192D01*
X201633165Y-80881749D01*
X201635689Y-80845240D01*
X201644801Y-80806919D01*
X201663653Y-80728284D01*
X201690522Y-80616503D01*
X201723683Y-80478744D01*
X201761412Y-80322176D01*
X201791577Y-80197107D01*
X201835605Y-80013706D01*
X201868820Y-79872051D01*
X201892133Y-79766470D01*
X201906457Y-79691290D01*
X201912703Y-79640840D01*
X201911785Y-79609449D01*
X201904615Y-79591442D01*
X201892105Y-79581150D01*
X201890778Y-79580424D01*
X201849161Y-79571151D01*
X201771363Y-79564125D01*
X201670005Y-79559515D01*
X201557707Y-79557490D01*
X201447091Y-79558220D01*
X201350777Y-79561873D01*
X201281387Y-79568620D01*
X201264719Y-79572025D01*
X201228369Y-79592771D01*
X201206585Y-79639107D01*
X201195325Y-79699913D01*
X201182546Y-79790463D01*
X201165210Y-79909560D01*
X201144652Y-80048423D01*
X201122204Y-80198272D01*
X201099200Y-80350327D01*
X201076972Y-80495808D01*
X201056854Y-80625934D01*
X201040179Y-80731925D01*
X201028280Y-80805002D01*
X201023271Y-80833028D01*
X201005529Y-80889994D01*
X200988318Y-80903634D01*
X200975789Y-80879332D01*
X200972092Y-80822476D01*
X200976216Y-80771971D01*
X200988498Y-80679118D01*
X201005194Y-80557577D01*
X201025067Y-80415877D01*
X201046882Y-80262546D01*
X201069405Y-80106115D01*
X201091399Y-79955113D01*
X201111630Y-79818068D01*
X201128862Y-79703509D01*
X201141860Y-79619967D01*
X201149389Y-79575970D01*
X201149540Y-79575240D01*
X201163689Y-79508076D01*
X201589152Y-79508077D01*
X201748847Y-79507600D01*
X201865279Y-79508813D01*
G37*
G36*
X185942734Y-81120324D02*
G01*
X186054300Y-81121739D01*
X186129917Y-81124910D01*
X186176033Y-81130501D01*
X186199097Y-81139176D01*
X186205556Y-81151598D01*
X186203692Y-81162740D01*
X186195864Y-81197827D01*
X186180458Y-81273866D01*
X186158854Y-81383790D01*
X186132430Y-81520534D01*
X186102564Y-81677032D01*
X186078599Y-81803846D01*
X186040279Y-82004420D01*
X186008816Y-82161139D01*
X185983022Y-82278328D01*
X185961710Y-82360312D01*
X185943694Y-82411414D01*
X185927784Y-82435959D01*
X185912795Y-82438273D01*
X185905851Y-82433030D01*
X185906136Y-82405942D01*
X185914744Y-82337594D01*
X185930605Y-82234661D01*
X185952649Y-82103817D01*
X185979804Y-81951737D01*
X186003109Y-81826552D01*
X186039833Y-81628786D01*
X186066752Y-81474366D01*
X186084462Y-81358910D01*
X186093554Y-81278034D01*
X186094624Y-81227359D01*
X186088265Y-81202502D01*
X186087752Y-81201845D01*
X186059776Y-81186448D01*
X186001904Y-81176250D01*
X185907870Y-81170600D01*
X185771407Y-81168846D01*
X185770279Y-81168846D01*
X185627992Y-81170865D01*
X185526641Y-81179684D01*
X185458386Y-81199441D01*
X185415389Y-81234276D01*
X185389811Y-81288330D01*
X185373814Y-81365741D01*
X185371804Y-81379285D01*
X185361020Y-81446219D01*
X185343113Y-81548922D01*
X185320265Y-81675210D01*
X185294660Y-81812900D01*
X185284808Y-81864903D01*
X185258930Y-82002036D01*
X185235091Y-82130674D01*
X185215415Y-82239197D01*
X185202023Y-82315981D01*
X185198927Y-82335048D01*
X185178952Y-82410309D01*
X185149437Y-82438564D01*
X185145561Y-82438846D01*
X185123875Y-82430222D01*
X185117421Y-82396925D01*
X185124217Y-82327815D01*
X185124924Y-82322836D01*
X185134490Y-82264494D01*
X185151287Y-82170497D01*
X185173634Y-82049570D01*
X185199846Y-81910434D01*
X185228240Y-81761813D01*
X185257135Y-81612429D01*
X185284845Y-81471006D01*
X185309690Y-81346266D01*
X185329985Y-81246933D01*
X185344048Y-81181728D01*
X185348757Y-81162740D01*
X185357382Y-81147250D01*
X185377292Y-81135998D01*
X185415324Y-81128319D01*
X185478313Y-81123550D01*
X185573096Y-81121027D01*
X185706508Y-81120085D01*
X185788772Y-81120000D01*
X185942734Y-81120324D01*
G37*
G36*
X200561356Y-82760106D02*
G01*
X200706745Y-82761664D01*
X200725833Y-82761923D01*
X201202596Y-82768557D01*
X201094990Y-83220384D01*
X201051847Y-83402370D01*
X201002434Y-83612159D01*
X200951395Y-83829947D01*
X200903378Y-84035927D01*
X200877290Y-84148461D01*
X200838520Y-84314202D01*
X200798448Y-84482065D01*
X200760178Y-84639286D01*
X200726814Y-84773100D01*
X200703582Y-84862836D01*
X200639966Y-85100961D01*
X200262239Y-85100961D01*
X199884512Y-85100961D01*
X199897945Y-85046009D01*
X199904133Y-85011107D01*
X199911298Y-84965919D01*
X200001196Y-84965919D01*
X200001698Y-84982060D01*
X200030355Y-84990507D01*
X200097750Y-84996286D01*
X200193819Y-84998862D01*
X200299708Y-84997922D01*
X200583672Y-84991057D01*
X200674038Y-84624711D01*
X200760606Y-84272084D01*
X200837294Y-83956220D01*
X200903768Y-83678559D01*
X200959696Y-83440541D01*
X201004745Y-83243607D01*
X201038580Y-83089197D01*
X201060871Y-82978751D01*
X201071282Y-82913709D01*
X201072036Y-82903407D01*
X201074327Y-82817403D01*
X200701642Y-82810660D01*
X200559462Y-82808320D01*
X200458441Y-82807914D01*
X200390902Y-82810389D01*
X200349166Y-82816691D01*
X200325557Y-82827768D01*
X200312397Y-82844566D01*
X200305597Y-82859506D01*
X200296451Y-82896744D01*
X200281950Y-82975005D01*
X200262961Y-83088224D01*
X200240354Y-83230336D01*
X200214996Y-83395277D01*
X200187757Y-83576980D01*
X200159504Y-83769381D01*
X200131106Y-83966415D01*
X200103431Y-84162017D01*
X200077347Y-84350122D01*
X200053724Y-84524665D01*
X200033428Y-84679582D01*
X200017330Y-84808806D01*
X200006296Y-84906273D01*
X200001196Y-84965919D01*
X199911298Y-84965919D01*
X199916525Y-84932954D01*
X199934359Y-84816645D01*
X199956870Y-84667276D01*
X199983294Y-84489942D01*
X200012867Y-84289739D01*
X200044825Y-84071762D01*
X200072651Y-83880746D01*
X200105732Y-83653933D01*
X200136853Y-83442368D01*
X200165285Y-83250872D01*
X200190301Y-83084262D01*
X200211173Y-82947359D01*
X200227172Y-82844980D01*
X200237572Y-82781945D01*
X200241496Y-82762862D01*
X200267094Y-82760854D01*
X200333975Y-82759715D01*
X200434581Y-82759461D01*
X200561356Y-82760106D01*
G37*
G36*
X199244659Y-82811298D02*
G01*
X199231656Y-82860442D01*
X199209128Y-82949950D01*
X199178809Y-83072655D01*
X199142434Y-83221390D01*
X199101737Y-83388989D01*
X199058452Y-83568284D01*
X199014314Y-83752109D01*
X198971056Y-83933297D01*
X198930412Y-84104681D01*
X198894118Y-84259094D01*
X198888588Y-84282788D01*
X198851823Y-84438976D01*
X198814754Y-84593797D01*
X198780380Y-84734913D01*
X198751699Y-84849990D01*
X198735755Y-84911682D01*
X198685414Y-85100961D01*
X198314621Y-85100961D01*
X197943829Y-85100961D01*
X197962594Y-84969034D01*
X198046897Y-84969034D01*
X198047842Y-84982043D01*
X198076516Y-84990505D01*
X198143961Y-84996290D01*
X198240146Y-84998864D01*
X198346099Y-84997922D01*
X198630300Y-84991057D01*
X198890736Y-83928653D01*
X198959045Y-83647849D01*
X199015182Y-83412232D01*
X199059580Y-83219800D01*
X199092668Y-83068548D01*
X199114880Y-82956471D01*
X199126646Y-82881567D01*
X199128398Y-82841831D01*
X199126218Y-82835103D01*
X199102267Y-82822432D01*
X199050595Y-82814130D01*
X198965479Y-82809843D01*
X198841195Y-82809216D01*
X198732397Y-82810680D01*
X198363530Y-82817403D01*
X198345411Y-82915096D01*
X198322405Y-83044415D01*
X198296281Y-83200220D01*
X198267891Y-83376592D01*
X198238088Y-83567610D01*
X198207725Y-83767353D01*
X198177653Y-83969903D01*
X198148724Y-84169339D01*
X198121791Y-84359740D01*
X198097707Y-84535188D01*
X198077323Y-84689761D01*
X198061492Y-84817540D01*
X198051066Y-84912604D01*
X198046897Y-84969034D01*
X197962594Y-84969034D01*
X197963804Y-84960528D01*
X197971709Y-84905833D01*
X197985863Y-84808840D01*
X198005382Y-84675573D01*
X198029380Y-84512056D01*
X198056974Y-84324314D01*
X198087279Y-84118370D01*
X198119411Y-83900250D01*
X198130832Y-83822780D01*
X198162536Y-83606946D01*
X198191894Y-83405513D01*
X198218155Y-83223750D01*
X198240568Y-83066927D01*
X198258383Y-82940313D01*
X198270847Y-82849176D01*
X198277211Y-82798786D01*
X198277885Y-82790905D01*
X198285183Y-82778918D01*
X198310902Y-82769962D01*
X198360778Y-82763635D01*
X198440547Y-82759533D01*
X198555945Y-82757252D01*
X198712709Y-82756388D01*
X198769195Y-82756346D01*
X199260505Y-82756346D01*
X199244659Y-82811298D01*
G37*
G36*
X203369538Y-85790400D02*
G01*
X203359088Y-85842282D01*
X203338663Y-85933922D01*
X203310050Y-86057666D01*
X203275038Y-86205865D01*
X203235412Y-86370866D01*
X203199710Y-86517500D01*
X203149996Y-86720582D01*
X203096185Y-86940712D01*
X203041841Y-87163291D01*
X202990526Y-87373720D01*
X202945804Y-87557399D01*
X202929945Y-87622644D01*
X202812771Y-88105000D01*
X202424798Y-88105000D01*
X202036825Y-88105000D01*
X202052465Y-88021633D01*
X202059119Y-87980792D01*
X202066539Y-87932366D01*
X202157586Y-87932366D01*
X202163415Y-87971799D01*
X202166770Y-87977440D01*
X202203749Y-87992754D01*
X202275785Y-88002043D01*
X202370491Y-88005710D01*
X202475478Y-88004157D01*
X202578361Y-87997788D01*
X202666751Y-87987008D01*
X202728262Y-87972218D01*
X202749458Y-87958461D01*
X202761381Y-87923157D01*
X202782557Y-87846782D01*
X202811566Y-87735334D01*
X202846985Y-87594810D01*
X202887393Y-87431204D01*
X202931369Y-87250514D01*
X202977491Y-87058737D01*
X203024338Y-86861869D01*
X203070489Y-86665906D01*
X203114523Y-86476844D01*
X203155017Y-86300681D01*
X203190551Y-86143413D01*
X203219703Y-86011035D01*
X203241051Y-85909545D01*
X203253175Y-85844940D01*
X203255350Y-85824228D01*
X203250142Y-85804065D01*
X203236199Y-85789760D01*
X203205980Y-85780098D01*
X203151944Y-85773865D01*
X203066550Y-85769844D01*
X202942257Y-85766820D01*
X202893258Y-85765869D01*
X202737389Y-85764363D01*
X202624680Y-85766874D01*
X202549583Y-85773745D01*
X202506550Y-85785320D01*
X202498360Y-85790292D01*
X202484474Y-85811205D01*
X202469545Y-85855669D01*
X202452755Y-85927997D01*
X202433287Y-86032500D01*
X202410321Y-86173492D01*
X202383039Y-86355283D01*
X202358019Y-86529711D01*
X202329008Y-86732644D01*
X202298806Y-86939976D01*
X202269015Y-87140994D01*
X202241236Y-87324987D01*
X202217069Y-87481241D01*
X202199282Y-87592010D01*
X202175136Y-87747030D01*
X202161365Y-87858963D01*
X202157586Y-87932366D01*
X202066539Y-87932366D01*
X202071981Y-87896845D01*
X202090276Y-87775033D01*
X202113227Y-87620593D01*
X202140058Y-87438765D01*
X202169994Y-87234788D01*
X202202258Y-87013901D01*
X202230639Y-86818796D01*
X202393173Y-85699327D01*
X202889974Y-85692708D01*
X203386774Y-85686089D01*
X203369538Y-85790400D01*
G37*
G36*
X185918180Y-82982259D02*
G01*
X185902299Y-83063939D01*
X185878673Y-83185345D01*
X185848901Y-83338257D01*
X185814584Y-83514458D01*
X185777323Y-83705729D01*
X185738718Y-83903851D01*
X185726744Y-83965288D01*
X185684698Y-84182086D01*
X185643908Y-84394399D01*
X185605407Y-84596683D01*
X185570228Y-84783396D01*
X185539404Y-84948995D01*
X185513967Y-85087936D01*
X185494951Y-85194677D01*
X185483389Y-85263674D01*
X185480192Y-85288406D01*
X185460239Y-85295469D01*
X185443558Y-85296346D01*
X185411144Y-85278318D01*
X185406923Y-85262673D01*
X185411458Y-85232689D01*
X185424433Y-85159699D01*
X185444907Y-85048630D01*
X185471936Y-84904412D01*
X185504578Y-84731976D01*
X185541889Y-84536249D01*
X185582927Y-84322161D01*
X185626749Y-84094642D01*
X185672412Y-83858621D01*
X185718974Y-83619026D01*
X185765491Y-83380788D01*
X185811020Y-83148835D01*
X185818747Y-83109608D01*
X185836916Y-83009176D01*
X185849046Y-82925559D01*
X185853461Y-82871246D01*
X185852353Y-82859272D01*
X185831883Y-82846503D01*
X185777399Y-82837572D01*
X185684482Y-82832115D01*
X185548710Y-82829769D01*
X185492014Y-82829615D01*
X185353357Y-82830175D01*
X185255972Y-82832448D01*
X185192292Y-82837326D01*
X185154750Y-82845699D01*
X185135779Y-82858458D01*
X185128909Y-82872355D01*
X185120899Y-82907533D01*
X185105149Y-82983546D01*
X185083088Y-83093248D01*
X185056141Y-83229497D01*
X185025736Y-83385148D01*
X185003270Y-83501250D01*
X184973017Y-83657587D01*
X184938101Y-83836993D01*
X184899992Y-84032014D01*
X184860159Y-84235195D01*
X184820071Y-84439084D01*
X184781196Y-84636226D01*
X184745004Y-84819166D01*
X184712962Y-84980451D01*
X184686541Y-85112626D01*
X184667208Y-85208239D01*
X184660369Y-85241394D01*
X184637731Y-85284328D01*
X184612708Y-85296346D01*
X184580588Y-85292986D01*
X184576829Y-85290240D01*
X184581448Y-85265360D01*
X184594400Y-85198140D01*
X184614591Y-85094170D01*
X184640926Y-84959038D01*
X184672311Y-84798332D01*
X184707652Y-84617642D01*
X184745855Y-84422554D01*
X184785825Y-84218659D01*
X184826467Y-84011544D01*
X184866688Y-83806799D01*
X184905394Y-83610011D01*
X184941489Y-83426769D01*
X184971375Y-83275336D01*
X185073920Y-82756346D01*
X185517989Y-82756346D01*
X185962058Y-82756346D01*
X185918180Y-82982259D01*
G37*
G36*
X182869247Y-94093498D02*
G01*
X182893329Y-94122897D01*
X182913589Y-94183925D01*
X182919244Y-94214743D01*
X182963652Y-94374920D01*
X183044691Y-94514400D01*
X183156015Y-94624489D01*
X183263014Y-94685723D01*
X183413287Y-94722292D01*
X183578152Y-94713490D01*
X183755510Y-94659852D01*
X183943263Y-94561913D01*
X184059297Y-94482652D01*
X184136536Y-94426150D01*
X184197634Y-94382878D01*
X184233028Y-94359550D01*
X184237834Y-94357307D01*
X184251742Y-94377796D01*
X184283808Y-94434260D01*
X184329924Y-94519200D01*
X184385986Y-94625113D01*
X184416958Y-94684545D01*
X184485372Y-94816198D01*
X184531833Y-94912597D01*
X184555038Y-94982755D01*
X184553683Y-95035685D01*
X184526467Y-95080400D01*
X184472087Y-95125910D01*
X184389240Y-95181230D01*
X184340598Y-95212856D01*
X184081873Y-95355103D01*
X183813094Y-95450770D01*
X183537298Y-95499261D01*
X183257525Y-95499981D01*
X183040787Y-95467496D01*
X182851985Y-95404065D01*
X182667584Y-95300807D01*
X182498448Y-95166311D01*
X182355442Y-95009165D01*
X182252485Y-94844275D01*
X182207313Y-94736702D01*
X182168009Y-94614858D01*
X182136086Y-94487860D01*
X182113060Y-94364826D01*
X182100443Y-94254873D01*
X182099749Y-94167119D01*
X182112492Y-94110680D01*
X182128125Y-94095298D01*
X182147044Y-94104355D01*
X182156676Y-94152098D01*
X182158654Y-94215814D01*
X182180279Y-94424066D01*
X182241263Y-94636810D01*
X182335764Y-94840012D01*
X182457944Y-95019642D01*
X182523283Y-95091947D01*
X182699437Y-95234991D01*
X182900096Y-95339293D01*
X183119842Y-95404719D01*
X183353256Y-95431132D01*
X183594919Y-95418397D01*
X183839411Y-95366380D01*
X184081313Y-95274944D01*
X184315207Y-95143954D01*
X184325703Y-95136963D01*
X184403063Y-95084144D01*
X184452256Y-95042080D01*
X184474619Y-95000374D01*
X184471487Y-94948626D01*
X184444198Y-94876436D01*
X184394088Y-94773406D01*
X184376855Y-94739022D01*
X184325002Y-94638535D01*
X184278778Y-94554511D01*
X184243645Y-94496538D01*
X184226370Y-94474765D01*
X184194096Y-94479102D01*
X184136739Y-94507286D01*
X184076939Y-94546150D01*
X183879746Y-94668513D01*
X183691196Y-94746784D01*
X183513449Y-94780502D01*
X183348665Y-94769209D01*
X183226582Y-94726949D01*
X183073348Y-94627471D01*
X182958640Y-94497987D01*
X182882627Y-94338735D01*
X182850777Y-94197478D01*
X182843775Y-94127583D01*
X182849144Y-94095972D01*
X182868550Y-94093271D01*
X182869247Y-94093498D01*
G37*
G36*
X189348438Y-82663669D02*
G01*
X189469201Y-82670865D01*
X189512673Y-82841827D01*
X189538296Y-82944033D01*
X189571387Y-83078249D01*
X189610653Y-83239061D01*
X189654803Y-83421058D01*
X189702546Y-83618827D01*
X189752591Y-83826954D01*
X189803646Y-84040027D01*
X189854421Y-84252633D01*
X189903625Y-84459360D01*
X189949965Y-84654795D01*
X189992151Y-84833525D01*
X190028891Y-84990138D01*
X190058895Y-85119220D01*
X190080871Y-85215359D01*
X190093529Y-85273142D01*
X190096154Y-85287790D01*
X190076462Y-85295629D01*
X190063356Y-85296346D01*
X190049389Y-85285585D01*
X190031741Y-85251206D01*
X190009543Y-85190065D01*
X189981922Y-85099019D01*
X189948007Y-84974923D01*
X189906928Y-84814634D01*
X189857814Y-84615008D01*
X189799792Y-84372900D01*
X189755439Y-84185096D01*
X189683658Y-83880394D01*
X189621994Y-83620123D01*
X189569647Y-83401103D01*
X189525816Y-83220153D01*
X189489700Y-83074093D01*
X189460500Y-82959745D01*
X189437413Y-82873927D01*
X189419640Y-82813460D01*
X189406380Y-82775164D01*
X189396833Y-82755858D01*
X189395074Y-82753766D01*
X189352310Y-82736433D01*
X189311659Y-82735961D01*
X189287489Y-82747127D01*
X189255444Y-82777429D01*
X189212427Y-82831147D01*
X189155338Y-82912563D01*
X189081081Y-83025959D01*
X188986557Y-83175616D01*
X188943486Y-83244807D01*
X188850197Y-83394797D01*
X188759633Y-83539819D01*
X188676878Y-83671772D01*
X188607020Y-83782557D01*
X188555144Y-83864074D01*
X188537086Y-83892019D01*
X188491970Y-83962043D01*
X188424457Y-84068079D01*
X188337979Y-84204679D01*
X188235969Y-84366397D01*
X188121859Y-84547784D01*
X187999082Y-84743394D01*
X187871069Y-84947779D01*
X187775306Y-85100961D01*
X187719532Y-85184189D01*
X187668544Y-85249625D01*
X187630560Y-85287113D01*
X187620733Y-85292031D01*
X187587435Y-85289143D01*
X187582497Y-85279819D01*
X187595752Y-85249011D01*
X187627385Y-85192935D01*
X187649660Y-85156770D01*
X187680901Y-85107531D01*
X187733861Y-85024120D01*
X187804061Y-84913589D01*
X187887021Y-84782990D01*
X187978261Y-84639377D01*
X188044615Y-84534948D01*
X188145300Y-84376170D01*
X188246537Y-84215936D01*
X188342401Y-84063666D01*
X188426970Y-83928777D01*
X188494318Y-83820690D01*
X188520865Y-83777718D01*
X188580744Y-83681038D01*
X188659901Y-83554275D01*
X188751362Y-83408541D01*
X188848155Y-83254944D01*
X188943305Y-83104596D01*
X188947540Y-83097922D01*
X189227676Y-82656474D01*
X189348438Y-82663669D01*
G37*
G36*
X192807115Y-79467649D02*
G01*
X193058522Y-79508544D01*
X193290651Y-79590908D01*
X193498891Y-79711829D01*
X193678625Y-79868395D01*
X193825241Y-80057694D01*
X193872600Y-80140053D01*
X193891293Y-80184805D01*
X193883516Y-80217666D01*
X193843467Y-80258060D01*
X193835222Y-80265192D01*
X193788339Y-80305504D01*
X193714913Y-80368628D01*
X193625447Y-80445538D01*
X193540807Y-80518294D01*
X193454357Y-80591531D01*
X193382485Y-80650387D01*
X193332501Y-80689018D01*
X193311720Y-80701580D01*
X193311605Y-80701467D01*
X193182728Y-80527523D01*
X193049771Y-80393094D01*
X192916179Y-80301058D01*
X192785396Y-80254294D01*
X192774094Y-80252436D01*
X192617506Y-80252784D01*
X192455740Y-80295497D01*
X192296344Y-80375778D01*
X192146868Y-80488833D01*
X192014860Y-80629867D01*
X191907868Y-80794084D01*
X191901210Y-80806914D01*
X191864171Y-80864481D01*
X191828200Y-80897287D01*
X191817879Y-80900192D01*
X191799802Y-80883145D01*
X191808988Y-80837128D01*
X191840417Y-80769830D01*
X191889071Y-80688940D01*
X191949929Y-80602145D01*
X192017972Y-80517134D01*
X192088180Y-80441595D01*
X192155289Y-80383396D01*
X192307819Y-80284623D01*
X192450085Y-80223732D01*
X192595391Y-80195820D01*
X192672788Y-80192698D01*
X192832887Y-80208011D01*
X192972858Y-80256366D01*
X193100715Y-80342288D01*
X193224473Y-80470303D01*
X193272322Y-80531232D01*
X193334440Y-80614098D01*
X193561471Y-80423616D01*
X193650467Y-80347315D01*
X193725129Y-80280231D01*
X193777645Y-80229595D01*
X193800204Y-80202638D01*
X193800222Y-80202589D01*
X193795901Y-80153124D01*
X193760090Y-80081287D01*
X193699482Y-79995174D01*
X193620767Y-79902879D01*
X193530637Y-79812496D01*
X193435783Y-79732120D01*
X193376827Y-79690404D01*
X193186862Y-79596530D01*
X192972724Y-79543880D01*
X192736965Y-79532788D01*
X192482135Y-79563592D01*
X192455119Y-79569113D01*
X192204836Y-79645942D01*
X191964977Y-79765153D01*
X191741997Y-79920848D01*
X191542351Y-80107124D01*
X191372492Y-80318083D01*
X191238874Y-80547824D01*
X191158255Y-80754652D01*
X191126993Y-80839966D01*
X191096756Y-80890143D01*
X191079481Y-80900192D01*
X191057459Y-80888173D01*
X191057433Y-80845163D01*
X191062140Y-80821119D01*
X191096389Y-80709486D01*
X191152838Y-80574140D01*
X191224409Y-80430465D01*
X191304023Y-80293845D01*
X191306718Y-80289615D01*
X191462592Y-80083725D01*
X191649316Y-79900629D01*
X191859614Y-79744314D01*
X192086209Y-79618766D01*
X192321827Y-79527970D01*
X192559192Y-79475913D01*
X192791026Y-79466581D01*
X192807115Y-79467649D01*
G37*
G36*
X202852438Y-82756996D02*
G01*
X202981111Y-82759157D01*
X203070780Y-82763145D01*
X203126359Y-82769272D01*
X203152763Y-82777856D01*
X203156118Y-82786875D01*
X203146384Y-82821464D01*
X203128384Y-82893294D01*
X203104662Y-82991966D01*
X203077760Y-83107086D01*
X203076978Y-83110480D01*
X203049801Y-83226499D01*
X203013863Y-83377097D01*
X202972258Y-83549471D01*
X202928078Y-83730813D01*
X202884416Y-83908319D01*
X202879383Y-83928653D01*
X202839599Y-84090078D01*
X202802274Y-84243024D01*
X202769574Y-84378497D01*
X202743666Y-84487504D01*
X202726716Y-84561049D01*
X202723487Y-84575865D01*
X202704574Y-84659674D01*
X202678299Y-84769108D01*
X202649861Y-84882590D01*
X202645512Y-84899471D01*
X202593371Y-85100961D01*
X202218047Y-85100961D01*
X201842723Y-85100961D01*
X201855619Y-85046009D01*
X201861733Y-85010661D01*
X201872547Y-84940968D01*
X201953801Y-84940968D01*
X201954321Y-84979332D01*
X201955119Y-84981373D01*
X201984520Y-84990511D01*
X202053743Y-84996545D01*
X202153837Y-84998979D01*
X202253444Y-84997922D01*
X202537299Y-84991057D01*
X202678292Y-84417115D01*
X202763383Y-84068976D01*
X202836284Y-83766865D01*
X202897266Y-83509582D01*
X202946597Y-83295923D01*
X202984549Y-83124687D01*
X203011390Y-82994671D01*
X203027389Y-82904675D01*
X203032817Y-82853496D01*
X203031590Y-82841923D01*
X203018487Y-82827434D01*
X202987448Y-82817201D01*
X202931487Y-82810552D01*
X202843620Y-82806814D01*
X202716862Y-82805315D01*
X202649858Y-82805192D01*
X202508686Y-82805470D01*
X202408642Y-82807030D01*
X202342008Y-82810959D01*
X202301065Y-82818345D01*
X202278097Y-82830277D01*
X202265384Y-82847842D01*
X202260030Y-82860144D01*
X202247009Y-82909345D01*
X202228908Y-83003624D01*
X202206260Y-83139535D01*
X202179596Y-83313633D01*
X202149449Y-83522471D01*
X202116351Y-83762605D01*
X202089370Y-83965288D01*
X202067128Y-84129353D01*
X202041489Y-84310041D01*
X202015527Y-84486116D01*
X201992317Y-84636347D01*
X201990963Y-84644797D01*
X201973170Y-84763859D01*
X201960433Y-84865863D01*
X201953801Y-84940968D01*
X201872547Y-84940968D01*
X201873895Y-84932279D01*
X201891321Y-84816196D01*
X201913226Y-84667745D01*
X201938827Y-84492257D01*
X201967339Y-84295065D01*
X201997977Y-84081502D01*
X202014555Y-83965288D01*
X202046180Y-83743589D01*
X202076191Y-83534029D01*
X202103781Y-83342187D01*
X202128140Y-83173644D01*
X202148463Y-83033979D01*
X202163942Y-82928771D01*
X202173768Y-82863601D01*
X202176282Y-82847932D01*
X202191968Y-82756346D01*
X202679847Y-82756346D01*
X202852438Y-82756996D01*
G37*
G36*
X185012956Y-92582919D02*
G01*
X185016154Y-92589110D01*
X185011896Y-92616358D01*
X184999964Y-92684608D01*
X184981623Y-92786839D01*
X184958138Y-92916033D01*
X184930772Y-93065168D01*
X184916082Y-93144735D01*
X184886969Y-93302808D01*
X184860855Y-93445952D01*
X184839068Y-93566768D01*
X184822938Y-93657861D01*
X184813794Y-93711832D01*
X184812284Y-93722307D01*
X184816307Y-93731733D01*
X184833359Y-93739523D01*
X184867763Y-93745873D01*
X184923845Y-93750983D01*
X185005931Y-93755048D01*
X185118344Y-93758268D01*
X185265411Y-93760839D01*
X185451456Y-93762959D01*
X185680804Y-93764826D01*
X185753792Y-93765333D01*
X186699025Y-93771725D01*
X186715161Y-93679853D01*
X186728341Y-93612010D01*
X186748693Y-93515211D01*
X186772281Y-93408066D01*
X186777379Y-93385544D01*
X186798564Y-93288462D01*
X186814611Y-93207268D01*
X186822885Y-93155577D01*
X186823461Y-93147419D01*
X186817295Y-93136031D01*
X186795194Y-93127287D01*
X186751759Y-93120859D01*
X186681588Y-93116419D01*
X186579279Y-93113637D01*
X186439432Y-93112185D01*
X186256645Y-93111733D01*
X186237308Y-93111730D01*
X185651154Y-93111730D01*
X185652271Y-93056778D01*
X185657589Y-93008130D01*
X185670766Y-92926761D01*
X185689299Y-92827689D01*
X185696019Y-92794371D01*
X185722554Y-92681147D01*
X185747174Y-92611775D01*
X185771716Y-92581404D01*
X185777419Y-92579449D01*
X185795197Y-92580186D01*
X185802819Y-92597009D01*
X185800123Y-92638658D01*
X185786943Y-92713875D01*
X185773664Y-92780087D01*
X185755941Y-92874999D01*
X185744986Y-92950447D01*
X185742370Y-92994711D01*
X185744064Y-93001115D01*
X185771104Y-93004736D01*
X185840096Y-93007965D01*
X185944145Y-93010653D01*
X186076356Y-93012651D01*
X186229836Y-93013808D01*
X186339536Y-93014038D01*
X186922084Y-93014038D01*
X186908366Y-93068990D01*
X186899206Y-93111676D01*
X186883163Y-93192440D01*
X186862172Y-93301320D01*
X186838165Y-93428348D01*
X186826613Y-93490288D01*
X186758578Y-93856634D01*
X185745162Y-93863004D01*
X185527416Y-93864065D01*
X185325083Y-93864455D01*
X185143329Y-93864209D01*
X184987316Y-93863362D01*
X184862209Y-93861948D01*
X184773171Y-93860000D01*
X184725367Y-93857553D01*
X184718601Y-93856228D01*
X184717853Y-93828465D01*
X184725736Y-93762965D01*
X184740812Y-93669791D01*
X184759657Y-93568993D01*
X184785260Y-93437927D01*
X184815999Y-93278124D01*
X184848184Y-93108892D01*
X184878126Y-92949536D01*
X184880896Y-92934663D01*
X184910643Y-92782874D01*
X184935389Y-92675473D01*
X184956277Y-92608391D01*
X184974448Y-92577557D01*
X184982043Y-92574423D01*
X185012956Y-92582919D01*
G37*
G36*
X192942333Y-81061128D02*
G01*
X193184299Y-81114659D01*
X193417692Y-81210244D01*
X193566829Y-81300432D01*
X193711829Y-81416684D01*
X193840034Y-81547064D01*
X193938785Y-81679635D01*
X193965132Y-81726472D01*
X194025377Y-81845360D01*
X193923025Y-81941610D01*
X193829242Y-82028445D01*
X193730789Y-82117311D01*
X193634471Y-82202341D01*
X193547091Y-82277668D01*
X193475452Y-82337426D01*
X193426358Y-82375747D01*
X193406690Y-82386866D01*
X193388974Y-82364153D01*
X193350237Y-82312461D01*
X193298294Y-82242234D01*
X193289321Y-82230031D01*
X193209019Y-82135200D01*
X193117177Y-82048292D01*
X193054520Y-82001267D01*
X192901759Y-81930548D01*
X192738883Y-81904662D01*
X192571257Y-81922112D01*
X192404246Y-81981403D01*
X192243214Y-82081039D01*
X192093527Y-82219523D01*
X192038786Y-82284497D01*
X191960143Y-82376393D01*
X191902146Y-82425922D01*
X191865468Y-82432532D01*
X191861530Y-82429479D01*
X191862610Y-82398403D01*
X191892386Y-82341249D01*
X191945099Y-82266560D01*
X192014989Y-82182881D01*
X192060756Y-82133974D01*
X192230071Y-81992632D01*
X192418215Y-81894597D01*
X192620919Y-81841887D01*
X192694489Y-81834522D01*
X192791206Y-81831063D01*
X192862574Y-81837766D01*
X192930394Y-81859292D01*
X193016465Y-81900302D01*
X193026751Y-81905570D01*
X193169217Y-81996093D01*
X193285605Y-82112310D01*
X193292927Y-82121346D01*
X193349302Y-82189255D01*
X193395384Y-82240292D01*
X193421558Y-82263836D01*
X193422106Y-82264076D01*
X193449756Y-82255883D01*
X193504457Y-82218730D01*
X193588206Y-82151032D01*
X193703005Y-82051204D01*
X193794676Y-81968831D01*
X193939640Y-81837366D01*
X193848537Y-81687395D01*
X193740454Y-81538265D01*
X193605882Y-81407901D01*
X193434741Y-81286887D01*
X193392440Y-81261325D01*
X193234042Y-81183653D01*
X193071742Y-81138817D01*
X192891112Y-81123793D01*
X192758269Y-81128495D01*
X192596912Y-81145598D01*
X192451463Y-81175226D01*
X192306155Y-81222000D01*
X192145219Y-81290542D01*
X192051509Y-81335635D01*
X191809238Y-81481603D01*
X191587166Y-81667003D01*
X191392563Y-81884159D01*
X191232701Y-82125399D01*
X191155082Y-82281719D01*
X191116777Y-82359652D01*
X191080840Y-82415872D01*
X191054747Y-82438782D01*
X191053785Y-82438846D01*
X191031849Y-82421640D01*
X191036371Y-82383894D01*
X191054179Y-82335892D01*
X191087112Y-82259347D01*
X191128581Y-82169471D01*
X191135728Y-82154535D01*
X191286473Y-81896546D01*
X191475783Y-81664858D01*
X191698818Y-81463367D01*
X191950739Y-81295970D01*
X192226706Y-81166564D01*
X192450782Y-81095708D01*
X192699217Y-81054975D01*
X192942333Y-81061128D01*
G37*
G36*
X191772216Y-94110340D02*
G01*
X191792251Y-94165897D01*
X191803661Y-94211576D01*
X191861337Y-94390763D01*
X191948590Y-94533263D01*
X192063466Y-94637319D01*
X192204012Y-94701177D01*
X192368273Y-94723080D01*
X192372821Y-94723074D01*
X192537789Y-94699033D01*
X192716793Y-94628407D01*
X192909556Y-94511311D01*
X192951775Y-94480815D01*
X193030632Y-94425122D01*
X193095080Y-94384733D01*
X193135133Y-94365692D01*
X193142292Y-94365524D01*
X193159274Y-94390595D01*
X193193231Y-94451564D01*
X193239867Y-94540359D01*
X193294888Y-94648906D01*
X193320000Y-94699533D01*
X193478750Y-95021649D01*
X193374772Y-95114254D01*
X193277474Y-95187820D01*
X193149205Y-95266578D01*
X193005884Y-95342036D01*
X192863430Y-95405699D01*
X192758269Y-95443193D01*
X192646909Y-95467139D01*
X192504125Y-95484206D01*
X192346096Y-95493785D01*
X192189000Y-95495265D01*
X192049019Y-95488038D01*
X191951119Y-95473602D01*
X191731409Y-95399189D01*
X191529515Y-95282932D01*
X191351630Y-95130434D01*
X191203947Y-94947294D01*
X191092661Y-94739114D01*
X191068212Y-94675231D01*
X191046484Y-94596071D01*
X191028057Y-94497636D01*
X191013797Y-94390623D01*
X191004574Y-94285726D01*
X191001253Y-94193642D01*
X191004702Y-94125067D01*
X191015789Y-94090696D01*
X191020642Y-94088653D01*
X191038626Y-94111459D01*
X191047852Y-94174354D01*
X191048654Y-94206862D01*
X191059394Y-94328657D01*
X191088390Y-94474831D01*
X191130800Y-94626724D01*
X191181786Y-94765672D01*
X191208647Y-94823799D01*
X191326939Y-95005062D01*
X191480317Y-95157221D01*
X191663110Y-95278095D01*
X191869647Y-95365502D01*
X192094256Y-95417260D01*
X192331268Y-95431187D01*
X192575009Y-95405102D01*
X192666540Y-95384675D01*
X192791843Y-95345947D01*
X192922306Y-95294207D01*
X193049779Y-95234045D01*
X193166114Y-95170050D01*
X193263161Y-95106812D01*
X193332772Y-95048918D01*
X193366796Y-95000959D01*
X193368846Y-94989172D01*
X193357892Y-94940763D01*
X193328826Y-94866669D01*
X193287342Y-94777621D01*
X193239135Y-94684349D01*
X193189897Y-94597583D01*
X193145323Y-94528052D01*
X193111108Y-94486488D01*
X193098345Y-94479423D01*
X193057054Y-94493064D01*
X192994446Y-94528000D01*
X192952231Y-94556530D01*
X192836377Y-94629552D01*
X192702625Y-94697059D01*
X192569201Y-94750841D01*
X192454330Y-94782686D01*
X192447775Y-94783828D01*
X192305051Y-94784165D01*
X192160368Y-94743370D01*
X192023688Y-94667680D01*
X191904976Y-94563331D01*
X191814196Y-94436559D01*
X191782714Y-94367570D01*
X191752407Y-94271100D01*
X191735856Y-94185652D01*
X191734119Y-94121838D01*
X191748255Y-94090271D01*
X191754899Y-94088653D01*
X191772216Y-94110340D01*
G37*
G36*
X183982103Y-79472400D02*
G01*
X184211938Y-79518197D01*
X184428084Y-79601954D01*
X184622968Y-79720152D01*
X184789013Y-79869272D01*
X184890290Y-79999630D01*
X184939184Y-80078253D01*
X184975157Y-80143328D01*
X184991413Y-80182414D01*
X184991731Y-80185312D01*
X184974307Y-80213438D01*
X184927265Y-80265725D01*
X184858444Y-80334984D01*
X184775688Y-80414028D01*
X184686838Y-80495671D01*
X184599734Y-80572725D01*
X184522220Y-80638002D01*
X184462136Y-80684317D01*
X184427324Y-80704480D01*
X184424933Y-80704807D01*
X184401465Y-80685778D01*
X184377989Y-80649855D01*
X184308862Y-80546923D01*
X184215155Y-80441695D01*
X184114401Y-80352675D01*
X184063654Y-80318105D01*
X183926215Y-80263714D01*
X183775650Y-80251015D01*
X183618825Y-80277134D01*
X183462606Y-80339193D01*
X183313859Y-80434318D01*
X183179449Y-80559633D01*
X183066242Y-80712262D01*
X183048062Y-80743458D01*
X182997356Y-80825230D01*
X182954153Y-80879576D01*
X182923098Y-80903869D01*
X182908839Y-80895482D01*
X182916023Y-80851787D01*
X182931876Y-80809156D01*
X183035413Y-80622571D01*
X183177983Y-80457909D01*
X183351789Y-80323207D01*
X183461739Y-80262965D01*
X183566767Y-80219554D01*
X183662166Y-80197979D01*
X183776229Y-80191949D01*
X183781183Y-80191942D01*
X183931340Y-80204270D01*
X184061180Y-80244771D01*
X184180131Y-80318664D01*
X184297620Y-80431171D01*
X184370435Y-80518238D01*
X184444645Y-80612535D01*
X184681553Y-80413343D01*
X184771038Y-80336807D01*
X184845008Y-80271070D01*
X184896355Y-80222629D01*
X184917973Y-80197983D01*
X184918232Y-80196932D01*
X184906827Y-80168001D01*
X184877534Y-80110823D01*
X184846604Y-80055229D01*
X184743621Y-79914664D01*
X184604501Y-79781895D01*
X184441839Y-79668116D01*
X184363245Y-79625565D01*
X184273921Y-79585028D01*
X184195025Y-79559861D01*
X184107315Y-79545631D01*
X183991549Y-79537906D01*
X183980658Y-79537443D01*
X183696323Y-79549068D01*
X183424516Y-79607760D01*
X183166076Y-79713155D01*
X182921845Y-79864891D01*
X182692663Y-80062607D01*
X182643188Y-80113465D01*
X182549115Y-80226177D01*
X182455927Y-80360571D01*
X182370916Y-80503875D01*
X182301380Y-80643316D01*
X182254612Y-80766120D01*
X182242442Y-80815146D01*
X182222817Y-80873339D01*
X182195792Y-80899864D01*
X182192570Y-80900192D01*
X182161823Y-80888262D01*
X182158654Y-80879592D01*
X182168548Y-80831462D01*
X182194961Y-80751902D01*
X182232984Y-80653380D01*
X182277710Y-80548363D01*
X182324232Y-80449319D01*
X182340685Y-80417126D01*
X182487489Y-80186191D01*
X182669651Y-79979383D01*
X182880509Y-79801199D01*
X183113401Y-79656139D01*
X183361666Y-79548700D01*
X183618641Y-79483382D01*
X183746154Y-79468083D01*
X183982103Y-79472400D01*
G37*
G36*
X182292525Y-92595346D02*
G01*
X182324912Y-92648657D01*
X182341509Y-92686894D01*
X182421496Y-92840517D01*
X182528934Y-92953777D01*
X182664290Y-93026994D01*
X182828033Y-93060487D01*
X182891974Y-93062884D01*
X182996652Y-93058890D01*
X183083416Y-93043335D01*
X183175305Y-93010861D01*
X183240976Y-92981725D01*
X183351512Y-92923488D01*
X183467470Y-92851289D01*
X183556530Y-92786340D01*
X183625808Y-92731119D01*
X183679642Y-92690571D01*
X183707710Y-92672427D01*
X183709011Y-92672115D01*
X183724506Y-92692745D01*
X183756228Y-92748643D01*
X183799728Y-92830822D01*
X183850558Y-92930297D01*
X183904271Y-93038079D01*
X183956418Y-93145184D01*
X184002552Y-93242623D01*
X184038223Y-93321410D01*
X184058985Y-93372558D01*
X184062438Y-93386164D01*
X184041685Y-93422347D01*
X183987535Y-93475397D01*
X183909158Y-93538215D01*
X183815720Y-93603702D01*
X183716388Y-93664762D01*
X183669916Y-93690096D01*
X183408990Y-93804759D01*
X183147765Y-93875595D01*
X182873540Y-93906023D01*
X182866923Y-93906277D01*
X182747979Y-93908254D01*
X182636448Y-93905904D01*
X182548200Y-93899758D01*
X182512788Y-93894417D01*
X182270353Y-93819734D01*
X182050728Y-93708257D01*
X181859316Y-93564024D01*
X181701517Y-93391075D01*
X181586756Y-93201962D01*
X181529526Y-93069847D01*
X181483519Y-92939437D01*
X181450221Y-92818256D01*
X181431122Y-92713829D01*
X181427711Y-92633677D01*
X181441475Y-92585324D01*
X181462596Y-92574423D01*
X181490481Y-92594231D01*
X181499231Y-92654772D01*
X181505524Y-92723404D01*
X181521720Y-92814767D01*
X181536627Y-92878696D01*
X181620727Y-93107799D01*
X181745242Y-93313965D01*
X181905212Y-93492345D01*
X182095679Y-93638089D01*
X182311682Y-93746349D01*
X182476154Y-93797403D01*
X182688410Y-93827095D01*
X182921044Y-93823746D01*
X183160044Y-93789004D01*
X183391398Y-93724517D01*
X183513759Y-93675406D01*
X183615785Y-93624382D01*
X183719238Y-93564606D01*
X183815048Y-93502325D01*
X183894144Y-93443787D01*
X183947457Y-93395238D01*
X183965961Y-93363955D01*
X183955746Y-93323629D01*
X183928458Y-93254112D01*
X183889134Y-93165610D01*
X183842808Y-93068332D01*
X183794518Y-92972485D01*
X183749299Y-92888276D01*
X183712189Y-92825913D01*
X183688221Y-92795603D01*
X183684874Y-92794230D01*
X183649799Y-92808595D01*
X183593746Y-92845164D01*
X183560233Y-92870803D01*
X183424437Y-92961205D01*
X183261816Y-93040283D01*
X183094372Y-93098210D01*
X183007730Y-93117574D01*
X182828270Y-93125354D01*
X182660476Y-93088596D01*
X182510901Y-93010541D01*
X182386102Y-92894426D01*
X182305625Y-92770664D01*
X182260163Y-92676643D01*
X182237782Y-92617539D01*
X182236979Y-92586055D01*
X182256254Y-92574898D01*
X182265240Y-92574423D01*
X182292525Y-92595346D01*
G37*
G36*
X190184958Y-94128777D02*
G01*
X190206062Y-94198193D01*
X190207372Y-94205520D01*
X190219452Y-94265752D01*
X190240422Y-94359720D01*
X190267170Y-94473808D01*
X190292293Y-94577115D01*
X190328804Y-94725099D01*
X190369591Y-94891104D01*
X190408363Y-95049506D01*
X190426643Y-95124480D01*
X190453867Y-95234752D01*
X190477875Y-95329053D01*
X190495794Y-95396273D01*
X190504030Y-95423663D01*
X190500378Y-95435909D01*
X190474760Y-95444803D01*
X190421395Y-95450815D01*
X190334501Y-95454418D01*
X190208298Y-95456081D01*
X190102988Y-95456346D01*
X189689405Y-95456346D01*
X189659384Y-95293420D01*
X189644225Y-95208160D01*
X189630043Y-95144560D01*
X189610085Y-95099465D01*
X189577598Y-95069718D01*
X189525828Y-95052161D01*
X189448021Y-95043638D01*
X189337425Y-95040993D01*
X189187285Y-95041068D01*
X189119690Y-95041153D01*
X188657829Y-95041153D01*
X188539565Y-95242644D01*
X188421301Y-95444134D01*
X187951594Y-95450769D01*
X187481887Y-95457404D01*
X187601353Y-95267596D01*
X187659415Y-95175602D01*
X187734932Y-95056315D01*
X187819099Y-94923630D01*
X187903107Y-94791438D01*
X187922930Y-94760288D01*
X188003272Y-94633554D01*
X188083650Y-94505854D01*
X188156056Y-94389967D01*
X188212484Y-94298673D01*
X188224884Y-94278346D01*
X188286359Y-94184074D01*
X188335746Y-94122203D01*
X188369739Y-94095995D01*
X188385030Y-94108712D01*
X188385501Y-94119949D01*
X188372642Y-94153299D01*
X188339373Y-94215715D01*
X188292091Y-94295430D01*
X188276313Y-94320673D01*
X188205831Y-94432263D01*
X188127122Y-94557138D01*
X188060788Y-94662596D01*
X188000505Y-94758407D01*
X187925593Y-94877223D01*
X187847568Y-95000786D01*
X187803630Y-95070271D01*
X187743882Y-95167870D01*
X187695456Y-95253023D01*
X187663715Y-95315887D01*
X187653846Y-95345030D01*
X187659740Y-95359945D01*
X187682064Y-95370449D01*
X187727780Y-95377275D01*
X187803849Y-95381157D01*
X187917233Y-95382828D01*
X188015032Y-95383077D01*
X188376218Y-95383077D01*
X188451779Y-95254855D01*
X188501636Y-95169668D01*
X188548785Y-95088160D01*
X188572109Y-95047259D01*
X188616878Y-94967884D01*
X189134875Y-94967884D01*
X189652872Y-94967884D01*
X189698175Y-95169375D01*
X189743477Y-95370865D01*
X190058267Y-95377731D01*
X190178033Y-95378851D01*
X190280036Y-95376997D01*
X190354397Y-95372552D01*
X190391240Y-95365898D01*
X190392869Y-95364784D01*
X190400552Y-95330042D01*
X190393579Y-95270597D01*
X190391122Y-95260226D01*
X190346699Y-95083136D01*
X190302694Y-94903179D01*
X190260551Y-94726721D01*
X190221717Y-94560132D01*
X190187637Y-94409778D01*
X190159758Y-94282028D01*
X190139524Y-94183249D01*
X190128383Y-94119809D01*
X190127295Y-94098217D01*
X190156826Y-94092937D01*
X190184958Y-94128777D01*
G37*
G36*
X183439253Y-81060949D02*
G01*
X183680889Y-81113692D01*
X183917115Y-81208891D01*
X184061130Y-81295705D01*
X184205778Y-81411549D01*
X184337380Y-81543534D01*
X184442258Y-81678773D01*
X184476279Y-81735738D01*
X184534770Y-81845162D01*
X184427433Y-81942969D01*
X184358053Y-82005064D01*
X184267705Y-82084393D01*
X184172720Y-82166653D01*
X184144598Y-82190758D01*
X184066548Y-82258629D01*
X184002814Y-82316236D01*
X183962543Y-82355201D01*
X183953878Y-82365369D01*
X183930565Y-82387023D01*
X183901592Y-82376560D01*
X183861102Y-82329750D01*
X183819856Y-82268559D01*
X183691851Y-82108059D01*
X183541006Y-81988300D01*
X183456212Y-81943853D01*
X183323611Y-81909301D01*
X183170209Y-81909419D01*
X183008690Y-81943322D01*
X182907044Y-81982281D01*
X182789241Y-82050409D01*
X182667242Y-82144394D01*
X182557463Y-82250037D01*
X182476320Y-82353138D01*
X182473987Y-82356870D01*
X182433438Y-82409384D01*
X182396029Y-82437407D01*
X182388681Y-82438846D01*
X182360141Y-82431296D01*
X182359762Y-82403245D01*
X182388326Y-82346592D01*
X182399385Y-82328151D01*
X182493942Y-82203571D01*
X182619060Y-82081463D01*
X182758042Y-81976656D01*
X182860200Y-81918861D01*
X182955947Y-81876932D01*
X183035965Y-81853137D01*
X183122656Y-81842616D01*
X183221565Y-81840480D01*
X183382920Y-81852116D01*
X183516318Y-81891059D01*
X183634152Y-81963365D01*
X183748817Y-82075087D01*
X183782070Y-82114290D01*
X183843189Y-82184966D01*
X183895035Y-82238192D01*
X183928284Y-82264568D01*
X183932392Y-82265855D01*
X183961233Y-82251290D01*
X184016652Y-82210440D01*
X184089509Y-82150343D01*
X184139989Y-82106001D01*
X184223513Y-82032229D01*
X184299185Y-81967705D01*
X184355950Y-81921751D01*
X184375048Y-81907808D01*
X184412708Y-81875378D01*
X184425265Y-81837865D01*
X184410919Y-81786588D01*
X184367870Y-81712866D01*
X184320415Y-81644267D01*
X184165984Y-81462826D01*
X183988896Y-81316217D01*
X183795587Y-81208418D01*
X183592494Y-81143405D01*
X183484387Y-81127764D01*
X183220470Y-81129642D01*
X182954285Y-81177148D01*
X182691862Y-81267773D01*
X182439234Y-81399008D01*
X182202433Y-81568344D01*
X182022454Y-81735795D01*
X181917788Y-81850993D01*
X181837551Y-81955652D01*
X181767915Y-82069603D01*
X181706827Y-82188378D01*
X181655787Y-82287775D01*
X181609542Y-82368492D01*
X181573487Y-82421679D01*
X181554183Y-82438698D01*
X181525725Y-82432939D01*
X181523654Y-82429617D01*
X181533500Y-82397895D01*
X181559678Y-82333774D01*
X181597144Y-82248775D01*
X181640859Y-82154420D01*
X181674580Y-82084711D01*
X181810845Y-81860968D01*
X181987648Y-81653232D01*
X182197810Y-81467072D01*
X182434152Y-81308054D01*
X182689495Y-81181749D01*
X182950205Y-81095335D01*
X183197328Y-81055022D01*
X183439253Y-81060949D01*
G37*
G36*
X191791819Y-92595639D02*
G01*
X191819303Y-92648871D01*
X191827762Y-92673633D01*
X191878074Y-92778545D01*
X191960095Y-92883986D01*
X192059650Y-92973732D01*
X192126736Y-93015807D01*
X192215033Y-93047251D01*
X192329162Y-93061444D01*
X192393564Y-93062884D01*
X192541871Y-93048785D01*
X192689962Y-93004166D01*
X192846159Y-92925544D01*
X193018781Y-92809437D01*
X193043685Y-92790786D01*
X193128262Y-92729647D01*
X193183132Y-92697911D01*
X193214912Y-92692321D01*
X193226151Y-92700905D01*
X193251710Y-92744981D01*
X193291226Y-92818862D01*
X193339996Y-92913125D01*
X193393317Y-93018344D01*
X193446486Y-93125098D01*
X193494800Y-93223961D01*
X193533555Y-93305511D01*
X193558048Y-93360324D01*
X193564231Y-93378310D01*
X193542589Y-93424970D01*
X193482496Y-93484455D01*
X193391195Y-93552337D01*
X193275933Y-93624189D01*
X193143954Y-93695584D01*
X193002505Y-93762093D01*
X192858831Y-93819289D01*
X192821225Y-93832351D01*
X192685874Y-93867517D01*
X192525564Y-93893330D01*
X192356563Y-93908540D01*
X192195138Y-93911897D01*
X192057557Y-93902151D01*
X192013365Y-93894417D01*
X191758696Y-93816439D01*
X191534151Y-93700553D01*
X191340944Y-93547708D01*
X191180289Y-93358853D01*
X191059581Y-93148365D01*
X191010974Y-93030521D01*
X190972395Y-92910598D01*
X190945279Y-92797147D01*
X190931063Y-92698718D01*
X190931183Y-92623863D01*
X190947075Y-92581133D01*
X190963173Y-92574423D01*
X190991058Y-92594231D01*
X190999808Y-92654772D01*
X191011492Y-92763146D01*
X191043522Y-92897261D01*
X191091366Y-93040823D01*
X191137984Y-93151530D01*
X191240584Y-93318943D01*
X191381953Y-93474301D01*
X191552209Y-93609889D01*
X191741468Y-93717993D01*
X191939846Y-93790898D01*
X191965288Y-93797270D01*
X192162061Y-93825239D01*
X192381465Y-93825089D01*
X192607511Y-93798600D01*
X192824207Y-93747556D01*
X192997904Y-93682150D01*
X193103007Y-93628878D01*
X193209059Y-93567624D01*
X193307248Y-93504403D01*
X193388761Y-93445230D01*
X193444785Y-93396122D01*
X193466507Y-93363094D01*
X193466538Y-93362242D01*
X193455817Y-93320643D01*
X193427255Y-93249481D01*
X193386254Y-93159483D01*
X193338217Y-93061378D01*
X193288545Y-92965893D01*
X193242642Y-92883753D01*
X193205910Y-92825688D01*
X193184753Y-92802709D01*
X193148311Y-92810097D01*
X193091423Y-92843231D01*
X193048544Y-92876444D01*
X192974865Y-92929161D01*
X192875564Y-92986891D01*
X192770922Y-93037940D01*
X192761000Y-93042205D01*
X192563470Y-93105644D01*
X192375504Y-93125756D01*
X192201643Y-93102442D01*
X192083710Y-93056648D01*
X191936917Y-92955424D01*
X191824861Y-92820494D01*
X191778106Y-92733173D01*
X191743501Y-92647265D01*
X191735441Y-92596602D01*
X191753486Y-92575714D01*
X191765269Y-92574423D01*
X191791819Y-92595639D01*
G37*
G36*
X199244799Y-85692971D02*
G01*
X199342159Y-85697689D01*
X199392936Y-85705503D01*
X199401346Y-85711776D01*
X199395893Y-85744991D01*
X199381166Y-85814454D01*
X199359611Y-85908996D01*
X199341064Y-85987041D01*
X199318765Y-86079491D01*
X199287342Y-86209948D01*
X199249078Y-86368923D01*
X199206255Y-86546926D01*
X199161158Y-86734469D01*
X199122320Y-86896057D01*
X199076617Y-87086061D01*
X199030766Y-87276352D01*
X198987154Y-87457044D01*
X198948171Y-87618244D01*
X198916205Y-87750064D01*
X198896674Y-87830240D01*
X198829489Y-88105000D01*
X198441842Y-88105000D01*
X198054196Y-88105000D01*
X198068338Y-88037836D01*
X198074742Y-87999806D01*
X198082693Y-87948160D01*
X198167182Y-87948160D01*
X198168193Y-87983066D01*
X198168593Y-87983875D01*
X198197409Y-87993184D01*
X198264701Y-88000742D01*
X198360108Y-88005719D01*
X198461640Y-88007307D01*
X198584437Y-88006386D01*
X198667190Y-88002789D01*
X198718679Y-87995269D01*
X198747685Y-87982579D01*
X198762430Y-87964567D01*
X198776589Y-87924620D01*
X198798320Y-87848276D01*
X198824569Y-87746817D01*
X198850087Y-87640961D01*
X198872636Y-87545221D01*
X198904656Y-87410747D01*
X198944052Y-87246263D01*
X198988728Y-87060491D01*
X199036591Y-86862156D01*
X199085543Y-86659979D01*
X199100521Y-86598263D01*
X199145149Y-86411523D01*
X199185000Y-86239014D01*
X199218803Y-86086707D01*
X199245284Y-85960576D01*
X199263172Y-85866594D01*
X199271193Y-85810733D01*
X199270932Y-85798408D01*
X199258386Y-85783377D01*
X199229384Y-85772827D01*
X199176723Y-85766035D01*
X199093196Y-85762280D01*
X198971600Y-85760838D01*
X198895334Y-85760758D01*
X198766038Y-85762053D01*
X198653382Y-85765363D01*
X198566758Y-85770246D01*
X198515557Y-85776258D01*
X198506778Y-85779075D01*
X198495586Y-85807477D01*
X198479372Y-85877205D01*
X198459452Y-85981156D01*
X198437140Y-86112224D01*
X198413753Y-86263303D01*
X198401726Y-86346538D01*
X198366596Y-86595289D01*
X198337254Y-86802090D01*
X198312739Y-86973371D01*
X198292092Y-87115560D01*
X198274353Y-87235087D01*
X198258562Y-87338379D01*
X198243760Y-87431865D01*
X198228985Y-87521975D01*
X198213279Y-87615137D01*
X198205566Y-87660269D01*
X198187018Y-87776697D01*
X198173840Y-87876015D01*
X198167182Y-87948160D01*
X198082693Y-87948160D01*
X198087209Y-87918827D01*
X198104944Y-87800313D01*
X198127152Y-87649679D01*
X198153036Y-87472337D01*
X198181800Y-87273703D01*
X198212650Y-87059188D01*
X198229002Y-86944903D01*
X198260870Y-86722343D01*
X198291251Y-86511188D01*
X198319315Y-86317145D01*
X198344229Y-86145920D01*
X198365162Y-86003217D01*
X198381283Y-85894741D01*
X198391760Y-85826199D01*
X198394527Y-85809230D01*
X198413530Y-85699327D01*
X198907438Y-85692715D01*
X199100133Y-85691322D01*
X199244799Y-85692971D01*
G37*
G36*
X190088978Y-92596954D02*
G01*
X190116270Y-92657139D01*
X190118774Y-92666009D01*
X190133781Y-92725406D01*
X190156207Y-92818375D01*
X190184216Y-92936908D01*
X190215974Y-93073000D01*
X190249647Y-93218646D01*
X190283399Y-93365840D01*
X190315395Y-93506575D01*
X190343801Y-93632847D01*
X190366783Y-93736649D01*
X190382505Y-93809975D01*
X190389133Y-93844821D01*
X190389231Y-93846126D01*
X190365901Y-93853979D01*
X190300265Y-93860513D01*
X190198853Y-93865381D01*
X190068195Y-93868234D01*
X189963473Y-93868846D01*
X189808836Y-93868441D01*
X189696207Y-93866781D01*
X189618751Y-93863199D01*
X189569632Y-93857027D01*
X189542016Y-93847596D01*
X189529067Y-93834240D01*
X189526017Y-93826105D01*
X189515880Y-93780918D01*
X189500824Y-93704609D01*
X189485127Y-93619334D01*
X189465973Y-93532447D01*
X189444128Y-93463996D01*
X189424878Y-93429529D01*
X189387314Y-93419817D01*
X189303000Y-93413177D01*
X189173940Y-93409683D01*
X189002138Y-93409408D01*
X188909007Y-93410387D01*
X188424190Y-93417019D01*
X188292999Y-93642932D01*
X188161808Y-93868846D01*
X187673195Y-93868846D01*
X187505105Y-93868406D01*
X187380136Y-93866803D01*
X187292568Y-93863612D01*
X187236681Y-93858406D01*
X187206757Y-93850760D01*
X187197075Y-93840250D01*
X187198144Y-93833503D01*
X187215333Y-93802000D01*
X187257298Y-93731580D01*
X187322609Y-93624546D01*
X187409841Y-93483206D01*
X187517566Y-93309865D01*
X187644357Y-93106828D01*
X187788787Y-92876402D01*
X187905664Y-92690432D01*
X187951245Y-92626668D01*
X187991843Y-92584532D01*
X188011631Y-92574423D01*
X188041789Y-92582381D01*
X188044615Y-92587772D01*
X188032200Y-92611704D01*
X187997695Y-92670106D01*
X187945217Y-92756221D01*
X187878879Y-92863296D01*
X187806490Y-92978717D01*
X187675884Y-93186551D01*
X187570150Y-93356551D01*
X187487481Y-93491796D01*
X187426067Y-93595367D01*
X187384100Y-93670346D01*
X187359772Y-93719811D01*
X187351274Y-93746845D01*
X187352191Y-93752609D01*
X187379303Y-93758945D01*
X187446675Y-93764351D01*
X187545725Y-93768422D01*
X187667869Y-93770755D01*
X187747129Y-93771153D01*
X188130606Y-93771153D01*
X188259085Y-93551346D01*
X188387564Y-93331538D01*
X188944896Y-93331538D01*
X189502227Y-93331538D01*
X189529594Y-93459759D01*
X189549028Y-93554225D01*
X189566775Y-93645997D01*
X189572833Y-93679567D01*
X189588705Y-93771153D01*
X189943317Y-93771153D01*
X190297929Y-93771153D01*
X190283893Y-93691778D01*
X190274102Y-93644155D01*
X190255332Y-93559310D01*
X190229700Y-93446299D01*
X190199319Y-93314179D01*
X190166307Y-93172007D01*
X190132777Y-93028838D01*
X190100846Y-92893731D01*
X190072628Y-92775740D01*
X190050239Y-92683924D01*
X190035795Y-92627337D01*
X190032893Y-92617163D01*
X190035825Y-92581075D01*
X190056932Y-92574423D01*
X190088978Y-92596954D01*
G37*
G36*
X201394895Y-85742067D02*
G01*
X201387770Y-85769731D01*
X201375040Y-85820899D01*
X201356055Y-85898249D01*
X201330167Y-86004455D01*
X201296727Y-86142195D01*
X201255086Y-86314143D01*
X201204596Y-86522977D01*
X201144606Y-86771372D01*
X201074470Y-87062005D01*
X200996680Y-87384519D01*
X200954819Y-87557852D01*
X200916428Y-87716333D01*
X200883069Y-87853551D01*
X200856305Y-87963095D01*
X200837698Y-88038554D01*
X200828811Y-88073518D01*
X200828538Y-88074471D01*
X200811054Y-88086920D01*
X200763799Y-88095791D01*
X200681688Y-88101484D01*
X200559638Y-88104398D01*
X200440093Y-88105000D01*
X200296611Y-88104807D01*
X200194829Y-88103538D01*
X200127597Y-88100156D01*
X200087771Y-88093625D01*
X200068202Y-88082908D01*
X200061743Y-88066968D01*
X200061210Y-88050048D01*
X200064886Y-88009725D01*
X200072776Y-87946334D01*
X200170303Y-87946334D01*
X200171517Y-87983892D01*
X200172124Y-87985232D01*
X200202785Y-87996724D01*
X200269725Y-88004163D01*
X200360562Y-88007733D01*
X200462914Y-88007618D01*
X200564399Y-88004003D01*
X200652633Y-87997074D01*
X200715235Y-87987015D01*
X200738588Y-87976778D01*
X200750828Y-87945542D01*
X200772604Y-87873494D01*
X200802096Y-87767334D01*
X200837487Y-87633759D01*
X200876956Y-87479466D01*
X200912687Y-87335673D01*
X200961758Y-87135602D01*
X201014737Y-86919670D01*
X201068076Y-86702336D01*
X201118226Y-86498059D01*
X201161639Y-86321297D01*
X201175569Y-86264602D01*
X201215040Y-86101462D01*
X201242829Y-85979518D01*
X201259918Y-85892788D01*
X201267291Y-85835291D01*
X201265930Y-85801047D01*
X201256818Y-85784075D01*
X201254797Y-85782620D01*
X201218384Y-85774671D01*
X201144461Y-85768542D01*
X201044120Y-85764285D01*
X200928450Y-85761955D01*
X200808543Y-85761602D01*
X200695489Y-85763280D01*
X200600379Y-85767043D01*
X200534303Y-85772942D01*
X200510030Y-85779075D01*
X200498553Y-85807864D01*
X200481512Y-85879089D01*
X200459822Y-85986771D01*
X200434399Y-86124931D01*
X200406160Y-86287590D01*
X200376020Y-86468770D01*
X200344894Y-86662492D01*
X200313699Y-86862778D01*
X200283350Y-87063648D01*
X200254762Y-87259124D01*
X200228852Y-87443226D01*
X200206536Y-87609978D01*
X200188728Y-87753399D01*
X200176346Y-87867510D01*
X200170303Y-87946334D01*
X200072776Y-87946334D01*
X200074880Y-87929429D01*
X200090061Y-87817461D01*
X200109298Y-87682120D01*
X200131461Y-87531709D01*
X200135228Y-87506634D01*
X200166565Y-87298182D01*
X200198908Y-87082290D01*
X200231452Y-86864398D01*
X200263393Y-86649942D01*
X200293925Y-86444362D01*
X200322243Y-86253095D01*
X200347543Y-86081579D01*
X200369020Y-85935253D01*
X200385870Y-85819553D01*
X200397287Y-85739919D01*
X200402466Y-85701788D01*
X200402692Y-85699374D01*
X200425915Y-85695702D01*
X200490782Y-85692468D01*
X200590092Y-85689850D01*
X200716644Y-85688022D01*
X200863237Y-85687160D01*
X200906214Y-85687115D01*
X201409735Y-85687115D01*
X201394895Y-85742067D01*
G37*
G36*
X185493585Y-94093905D02*
G01*
X185492739Y-94120713D01*
X185482982Y-94188803D01*
X185465467Y-94291662D01*
X185441348Y-94422774D01*
X185411778Y-94575625D01*
X185382555Y-94721023D01*
X185349167Y-94888145D01*
X185320311Y-95039828D01*
X185297139Y-95169413D01*
X185280798Y-95270242D01*
X185272440Y-95335658D01*
X185272504Y-95358505D01*
X185299629Y-95364342D01*
X185368832Y-95369434D01*
X185473354Y-95373762D01*
X185606438Y-95377309D01*
X185761328Y-95380057D01*
X185931265Y-95381988D01*
X186109493Y-95383084D01*
X186289254Y-95383327D01*
X186463791Y-95382700D01*
X186626346Y-95381183D01*
X186770163Y-95378760D01*
X186888483Y-95375412D01*
X186974550Y-95371121D01*
X187021606Y-95365870D01*
X187028270Y-95363164D01*
X187036960Y-95335086D01*
X187053556Y-95270991D01*
X187075311Y-95182533D01*
X187099477Y-95081365D01*
X187123309Y-94979140D01*
X187144059Y-94887512D01*
X187158981Y-94818134D01*
X187165327Y-94782661D01*
X187165385Y-94781429D01*
X187142098Y-94778889D01*
X187076783Y-94776630D01*
X186976259Y-94774761D01*
X186847342Y-94773389D01*
X186696851Y-94772623D01*
X186603654Y-94772500D01*
X186443885Y-94771856D01*
X186301788Y-94770052D01*
X186184181Y-94767276D01*
X186097882Y-94763715D01*
X186049709Y-94759559D01*
X186041923Y-94756984D01*
X186046815Y-94723125D01*
X186059911Y-94653826D01*
X186078840Y-94560170D01*
X186101232Y-94453241D01*
X186124718Y-94344122D01*
X186146927Y-94243897D01*
X186165488Y-94163647D01*
X186178033Y-94114458D01*
X186181385Y-94104843D01*
X186205982Y-94098923D01*
X186213870Y-94104843D01*
X186217659Y-94136026D01*
X186211884Y-94203621D01*
X186197801Y-94296405D01*
X186184740Y-94365139D01*
X186165186Y-94470380D01*
X186152190Y-94559739D01*
X186147322Y-94621114D01*
X186149110Y-94639899D01*
X186161128Y-94651588D01*
X186190793Y-94660444D01*
X186243740Y-94666824D01*
X186325608Y-94671085D01*
X186442032Y-94673584D01*
X186598652Y-94674676D01*
X186700580Y-94674807D01*
X186878522Y-94675206D01*
X187013302Y-94676657D01*
X187110599Y-94679546D01*
X187176095Y-94684256D01*
X187215467Y-94691173D01*
X187234395Y-94700681D01*
X187238654Y-94711227D01*
X187233392Y-94751717D01*
X187217891Y-94837716D01*
X187192575Y-94967064D01*
X187157870Y-95137604D01*
X187114200Y-95347175D01*
X187102780Y-95401394D01*
X187091185Y-95456346D01*
X186127705Y-95456346D01*
X185876283Y-95456044D01*
X185670019Y-95455060D01*
X185505227Y-95453277D01*
X185378220Y-95450575D01*
X185285314Y-95446837D01*
X185222823Y-95441945D01*
X185187061Y-95435781D01*
X185174342Y-95428226D01*
X185174418Y-95425817D01*
X185181689Y-95394482D01*
X185196950Y-95321843D01*
X185218857Y-95214543D01*
X185246064Y-95079223D01*
X185277225Y-94922526D01*
X185309192Y-94760295D01*
X185350199Y-94553955D01*
X185383880Y-94391461D01*
X185411413Y-94268560D01*
X185433975Y-94180996D01*
X185452742Y-94124516D01*
X185468893Y-94094866D01*
X185483603Y-94087792D01*
X185493585Y-94093905D01*
G37*
G36*
X195624582Y-81541298D02*
G01*
X195591466Y-81717449D01*
X195567728Y-81851174D01*
X195552740Y-81947860D01*
X195545874Y-82012890D01*
X195546501Y-82051651D01*
X195553993Y-82069526D01*
X195562604Y-82072500D01*
X195572285Y-82069082D01*
X195587887Y-82056228D01*
X195612616Y-82030041D01*
X195649678Y-81986621D01*
X195702278Y-81922068D01*
X195773621Y-81832485D01*
X195866914Y-81713972D01*
X195985361Y-81562630D01*
X196052711Y-81476387D01*
X196330903Y-81120000D01*
X196842382Y-81120000D01*
X197353862Y-81120000D01*
X197187977Y-81333702D01*
X197116749Y-81425233D01*
X197044507Y-81517528D01*
X196965937Y-81617310D01*
X196875723Y-81731303D01*
X196768548Y-81866231D01*
X196639096Y-82028817D01*
X196555606Y-82133557D01*
X196484391Y-82222965D01*
X196419972Y-82304011D01*
X196371484Y-82365191D01*
X196354010Y-82387361D01*
X196312327Y-82425585D01*
X196276706Y-82435280D01*
X196265144Y-82415574D01*
X196289435Y-82372271D01*
X196305193Y-82352438D01*
X196385058Y-82254466D01*
X196477441Y-82138422D01*
X196577990Y-82010055D01*
X196682351Y-81875117D01*
X196786169Y-81739360D01*
X196885092Y-81608535D01*
X196974767Y-81488393D01*
X197050839Y-81384685D01*
X197108955Y-81303162D01*
X197144762Y-81249577D01*
X197154423Y-81230551D01*
X197148305Y-81216349D01*
X197125499Y-81206200D01*
X197079327Y-81199460D01*
X197003109Y-81195489D01*
X196890167Y-81193645D01*
X196766560Y-81193269D01*
X196378697Y-81193269D01*
X196091163Y-81565721D01*
X195994589Y-81690552D01*
X195901860Y-81809931D01*
X195819582Y-81915390D01*
X195754364Y-81998457D01*
X195714903Y-82048077D01*
X195648995Y-82132027D01*
X195575485Y-82229015D01*
X195533413Y-82286202D01*
X195482336Y-82352152D01*
X195440075Y-82398429D01*
X195417198Y-82414423D01*
X195409841Y-82414316D01*
X195404787Y-82410506D01*
X195402827Y-82397756D01*
X195404753Y-82370828D01*
X195411358Y-82324486D01*
X195423431Y-82253493D01*
X195441766Y-82152612D01*
X195467153Y-82016607D01*
X195500384Y-81840241D01*
X195518546Y-81743995D01*
X195545874Y-81594484D01*
X195568735Y-81460306D01*
X195585942Y-81349219D01*
X195596307Y-81268981D01*
X195598644Y-81227351D01*
X195598041Y-81224334D01*
X195581855Y-81210895D01*
X195541214Y-81202194D01*
X195469612Y-81197748D01*
X195360543Y-81197074D01*
X195252658Y-81198704D01*
X194919711Y-81205480D01*
X194901866Y-81290961D01*
X194891544Y-81340817D01*
X194873229Y-81429684D01*
X194848741Y-81548720D01*
X194819898Y-81689087D01*
X194788519Y-81841942D01*
X194783808Y-81864903D01*
X194752799Y-82015345D01*
X194724510Y-82151267D01*
X194700617Y-82264727D01*
X194682794Y-82347783D01*
X194672717Y-82392492D01*
X194671786Y-82396105D01*
X194647794Y-82435057D01*
X194614939Y-82430798D01*
X194610546Y-82426827D01*
X194611635Y-82400420D01*
X194621440Y-82333291D01*
X194638719Y-82232543D01*
X194662232Y-82105276D01*
X194690742Y-81958590D01*
X194702876Y-81898000D01*
X194735061Y-81736279D01*
X194764817Y-81582425D01*
X194790392Y-81445849D01*
X194810030Y-81335963D01*
X194821977Y-81262177D01*
X194823542Y-81250595D01*
X194839859Y-81120000D01*
X195272429Y-81120000D01*
X195704999Y-81120000D01*
X195624582Y-81541298D01*
G37*
G36*
X185739926Y-89716923D02*
G01*
X185765879Y-89733603D01*
X185763650Y-89759663D01*
X185751010Y-89811300D01*
X185731841Y-89902051D01*
X185707574Y-90024046D01*
X185679640Y-90169416D01*
X185649473Y-90330291D01*
X185618502Y-90498803D01*
X185588161Y-90667082D01*
X185559881Y-90827259D01*
X185535093Y-90971463D01*
X185515229Y-91091826D01*
X185501721Y-91180479D01*
X185496001Y-91229552D01*
X185495934Y-91231153D01*
X185492404Y-91341057D01*
X186096875Y-91347590D01*
X186262896Y-91349791D01*
X186411491Y-91352542D01*
X186536087Y-91355656D01*
X186630111Y-91358949D01*
X186686992Y-91362233D01*
X186701346Y-91364672D01*
X186696885Y-91391280D01*
X186684770Y-91456076D01*
X186666903Y-91549345D01*
X186645186Y-91661371D01*
X186621522Y-91782441D01*
X186597812Y-91902839D01*
X186575958Y-92012850D01*
X186557862Y-92102760D01*
X186545427Y-92162854D01*
X186542193Y-92177548D01*
X186529454Y-92232500D01*
X185467515Y-92232500D01*
X185210938Y-92232373D01*
X184999002Y-92231888D01*
X184827501Y-92230885D01*
X184692229Y-92229208D01*
X184588982Y-92226697D01*
X184513554Y-92223195D01*
X184461740Y-92218543D01*
X184429335Y-92212583D01*
X184412132Y-92205157D01*
X184405928Y-92196107D01*
X184405577Y-92192552D01*
X184410121Y-92161308D01*
X184423156Y-92086880D01*
X184443790Y-91974018D01*
X184471129Y-91827476D01*
X184504280Y-91652003D01*
X184542348Y-91452352D01*
X184584441Y-91233274D01*
X184629664Y-90999521D01*
X184637596Y-90958684D01*
X184683199Y-90723554D01*
X184725833Y-90502830D01*
X184764607Y-90301182D01*
X184798634Y-90123278D01*
X184827022Y-89973790D01*
X184848882Y-89857385D01*
X184863325Y-89778734D01*
X184869462Y-89742506D01*
X184869615Y-89740843D01*
X184889557Y-89719981D01*
X184908542Y-89716923D01*
X184926147Y-89725306D01*
X184934877Y-89753799D01*
X184934212Y-89807418D01*
X184923631Y-89891178D01*
X184902613Y-90010096D01*
X184870637Y-90169188D01*
X184852745Y-90254230D01*
X184829366Y-90366809D01*
X184800933Y-90507751D01*
X184768665Y-90670635D01*
X184733783Y-90849039D01*
X184697507Y-91036541D01*
X184661057Y-91226718D01*
X184625654Y-91413148D01*
X184592517Y-91589409D01*
X184562868Y-91749079D01*
X184537926Y-91885735D01*
X184518912Y-91992955D01*
X184507045Y-92064318D01*
X184503485Y-92092344D01*
X184505807Y-92103059D01*
X184515835Y-92111780D01*
X184537983Y-92118672D01*
X184576667Y-92123898D01*
X184636301Y-92127625D01*
X184721301Y-92130015D01*
X184836081Y-92131234D01*
X184985057Y-92131447D01*
X185172643Y-92130817D01*
X185403255Y-92129509D01*
X185486298Y-92128979D01*
X186469327Y-92122596D01*
X186523684Y-91878365D01*
X186547729Y-91764906D01*
X186567835Y-91659999D01*
X186581198Y-91578783D01*
X186584742Y-91548653D01*
X186591442Y-91463173D01*
X185974400Y-91456647D01*
X185357357Y-91450121D01*
X185369500Y-91395589D01*
X185376973Y-91358858D01*
X185392448Y-91280375D01*
X185414716Y-91166359D01*
X185442568Y-91023027D01*
X185474793Y-90856598D01*
X185510182Y-90673289D01*
X185529748Y-90571730D01*
X185573045Y-90346781D01*
X185608149Y-90165153D01*
X185636197Y-90022223D01*
X185658327Y-89913364D01*
X185675675Y-89833952D01*
X185689378Y-89779361D01*
X185700575Y-89744968D01*
X185710401Y-89726147D01*
X185719995Y-89718272D01*
X185730493Y-89716720D01*
X185739926Y-89716923D01*
G37*
G36*
X182304388Y-89719272D02*
G01*
X182311471Y-89731214D01*
X182292979Y-89760096D01*
X182245427Y-89813259D01*
X182213380Y-89847317D01*
X182074162Y-90023143D01*
X181968871Y-90216496D01*
X181899592Y-90419392D01*
X181868409Y-90623851D01*
X181877408Y-90821890D01*
X181917922Y-90978457D01*
X181982136Y-91104009D01*
X182072152Y-91218794D01*
X182176541Y-91310902D01*
X182283877Y-91368426D01*
X182295814Y-91372262D01*
X182477240Y-91400920D01*
X182666157Y-91381688D01*
X182861738Y-91314809D01*
X183063160Y-91200528D01*
X183186075Y-91109627D01*
X183259140Y-91052384D01*
X183317324Y-91009395D01*
X183350548Y-90988029D01*
X183353932Y-90986923D01*
X183372079Y-91007857D01*
X183405429Y-91064749D01*
X183449777Y-91148732D01*
X183500915Y-91250939D01*
X183554639Y-91362503D01*
X183606741Y-91474557D01*
X183653017Y-91578234D01*
X183689260Y-91664668D01*
X183711265Y-91724991D01*
X183715565Y-91749301D01*
X183684961Y-91788378D01*
X183621786Y-91843807D01*
X183536220Y-91908310D01*
X183438440Y-91974605D01*
X183338625Y-92035413D01*
X183251105Y-92081506D01*
X183060386Y-92163982D01*
X182887491Y-92219765D01*
X182712853Y-92253594D01*
X182516908Y-92270209D01*
X182463942Y-92272179D01*
X182294646Y-92273794D01*
X182163498Y-92266716D01*
X182060465Y-92250288D01*
X182036538Y-92244267D01*
X181783727Y-92151426D01*
X181559109Y-92020142D01*
X181365646Y-91853355D01*
X181206295Y-91654008D01*
X181084018Y-91425042D01*
X181017194Y-91231153D01*
X180989699Y-91084277D01*
X180975396Y-90905921D01*
X180974052Y-90711568D01*
X180985434Y-90516702D01*
X181009308Y-90336808D01*
X181032257Y-90232061D01*
X181080067Y-90070853D01*
X181130426Y-89933015D01*
X181180561Y-89824380D01*
X181227700Y-89750782D01*
X181269070Y-89718058D01*
X181277068Y-89716923D01*
X181307945Y-89719033D01*
X181313318Y-89733606D01*
X181293451Y-89773005D01*
X181278818Y-89797944D01*
X181198700Y-89967350D01*
X181134360Y-90170554D01*
X181087539Y-90394568D01*
X181059975Y-90626405D01*
X181053409Y-90853076D01*
X181069579Y-91061595D01*
X181093382Y-91182307D01*
X181180886Y-91433790D01*
X181303730Y-91651895D01*
X181460652Y-91835447D01*
X181650389Y-91983272D01*
X181871680Y-92094194D01*
X182123260Y-92167037D01*
X182158654Y-92173744D01*
X182362168Y-92197135D01*
X182561669Y-92191203D01*
X182774476Y-92154946D01*
X182861830Y-92133172D01*
X182987235Y-92093108D01*
X183119755Y-92039666D01*
X183251499Y-91977338D01*
X183374574Y-91910615D01*
X183481090Y-91843990D01*
X183563155Y-91781954D01*
X183612877Y-91729000D01*
X183624219Y-91699218D01*
X183613998Y-91663971D01*
X183586498Y-91598095D01*
X183546685Y-91511520D01*
X183499527Y-91414177D01*
X183449989Y-91315995D01*
X183403039Y-91226905D01*
X183363642Y-91156835D01*
X183336766Y-91115717D01*
X183329036Y-91109038D01*
X183303205Y-91122503D01*
X183248373Y-91158392D01*
X183174708Y-91209944D01*
X183145711Y-91230908D01*
X182958563Y-91345648D01*
X182768583Y-91421672D01*
X182581326Y-91458860D01*
X182402344Y-91457089D01*
X182237190Y-91416240D01*
X182091419Y-91336190D01*
X182003070Y-91255865D01*
X181908098Y-91131984D01*
X181845361Y-91000858D01*
X181809508Y-90848449D01*
X181797246Y-90715869D01*
X181799174Y-90534526D01*
X181827203Y-90368002D01*
X181885335Y-90198646D01*
X181942318Y-90076390D01*
X182009610Y-89960548D01*
X182085194Y-89858685D01*
X182161551Y-89778920D01*
X182231161Y-89729373D01*
X182275211Y-89716923D01*
X182304388Y-89719272D01*
G37*
G36*
X196681784Y-79508718D02*
G01*
X196809275Y-79510507D01*
X196911035Y-79513236D01*
X196979624Y-79516700D01*
X197007605Y-79520692D01*
X197007885Y-79521143D01*
X196993337Y-79543187D01*
X196952565Y-79597786D01*
X196889873Y-79679363D01*
X196809565Y-79782342D01*
X196715945Y-79901148D01*
X196663802Y-79966864D01*
X196553878Y-80105257D01*
X196444505Y-80243262D01*
X196342697Y-80372011D01*
X196255462Y-80482636D01*
X196189812Y-80566266D01*
X196176990Y-80582692D01*
X196082934Y-80702827D01*
X196013885Y-80789190D01*
X195965247Y-80846865D01*
X195932429Y-80880935D01*
X195910837Y-80896486D01*
X195895878Y-80898602D01*
X195892526Y-80897586D01*
X195899382Y-80876529D01*
X195932799Y-80823114D01*
X195988737Y-80743060D01*
X196063158Y-80642082D01*
X196152024Y-80525898D01*
X196183984Y-80485000D01*
X196342658Y-80282868D01*
X196473605Y-80115633D01*
X196579385Y-79979867D01*
X196662559Y-79872143D01*
X196725687Y-79789035D01*
X196771327Y-79727114D01*
X196802041Y-79682954D01*
X196820387Y-79653128D01*
X196828927Y-79634208D01*
X196830219Y-79622768D01*
X196829675Y-79620571D01*
X196800951Y-79608040D01*
X196724891Y-79598067D01*
X196602946Y-79590785D01*
X196464128Y-79586808D01*
X196107556Y-79580059D01*
X195831134Y-79936809D01*
X195725478Y-80073159D01*
X195613557Y-80217580D01*
X195505421Y-80357103D01*
X195411125Y-80478755D01*
X195365433Y-80537695D01*
X195294697Y-80626669D01*
X195235984Y-80696213D01*
X195194779Y-80740151D01*
X195176568Y-80752307D01*
X195176154Y-80750784D01*
X195180718Y-80718391D01*
X195193468Y-80645712D01*
X195212986Y-80540353D01*
X195237858Y-80409921D01*
X195266667Y-80262022D01*
X195275052Y-80219498D01*
X195304536Y-80065697D01*
X195329801Y-79924872D01*
X195349510Y-79805247D01*
X195362326Y-79715044D01*
X195366910Y-79662487D01*
X195366639Y-79656408D01*
X195359327Y-79593557D01*
X195063735Y-79586729D01*
X194925669Y-79585186D01*
X194830237Y-79588320D01*
X194771409Y-79596589D01*
X194743156Y-79610453D01*
X194742559Y-79611152D01*
X194730564Y-79643780D01*
X194711541Y-79717378D01*
X194686957Y-79824816D01*
X194658275Y-79958962D01*
X194626960Y-80112684D01*
X194594476Y-80278850D01*
X194562289Y-80450329D01*
X194531863Y-80619990D01*
X194514192Y-80723125D01*
X194491955Y-80828951D01*
X194468781Y-80887661D01*
X194451762Y-80900192D01*
X194421869Y-80884672D01*
X194419038Y-80874079D01*
X194423426Y-80841280D01*
X194435577Y-80768692D01*
X194453974Y-80664480D01*
X194477100Y-80536809D01*
X194503439Y-80393846D01*
X194531471Y-80243758D01*
X194559681Y-80094710D01*
X194586552Y-79954869D01*
X194610565Y-79832399D01*
X194630203Y-79735469D01*
X194633583Y-79719345D01*
X194675635Y-79520288D01*
X195072433Y-79513577D01*
X195226697Y-79511802D01*
X195337801Y-79512721D01*
X195411374Y-79516679D01*
X195453046Y-79524023D01*
X195468447Y-79535101D01*
X195468870Y-79538000D01*
X195463382Y-79577168D01*
X195449509Y-79647118D01*
X195434179Y-79715673D01*
X195414562Y-79806697D01*
X195391218Y-79925841D01*
X195368027Y-80052973D01*
X195358841Y-80106442D01*
X195341237Y-80211235D01*
X195326635Y-80298068D01*
X195316943Y-80355598D01*
X195314157Y-80372043D01*
X195319935Y-80397043D01*
X195352336Y-80382316D01*
X195410676Y-80328637D01*
X195494273Y-80236781D01*
X195602443Y-80107522D01*
X195734501Y-79941633D01*
X195889765Y-79739889D01*
X195992586Y-79603546D01*
X196064114Y-79508077D01*
X196535999Y-79508077D01*
X196681784Y-79508718D01*
G37*
G36*
X183128617Y-82704005D02*
G01*
X183358512Y-82760959D01*
X183577379Y-82849418D01*
X183771553Y-82964438D01*
X183851699Y-83027393D01*
X183912004Y-83086540D01*
X183981668Y-83165276D01*
X184053191Y-83253709D01*
X184119076Y-83341946D01*
X184171823Y-83420098D01*
X184203934Y-83478272D01*
X184210192Y-83500269D01*
X184192807Y-83526094D01*
X184145462Y-83574978D01*
X184075373Y-83640784D01*
X183989756Y-83717379D01*
X183895825Y-83798625D01*
X183800797Y-83878389D01*
X183711886Y-83950535D01*
X183636309Y-84008927D01*
X183581280Y-84047431D01*
X183554016Y-84059910D01*
X183552823Y-84059227D01*
X183530440Y-84031556D01*
X183486031Y-83976018D01*
X183427912Y-83903024D01*
X183407685Y-83877563D01*
X183276860Y-83736466D01*
X183142305Y-83641470D01*
X182997767Y-83589896D01*
X182836991Y-83579063D01*
X182736485Y-83589961D01*
X182632149Y-83614127D01*
X182525956Y-83650000D01*
X182477755Y-83671400D01*
X182312344Y-83780839D01*
X182164707Y-83928090D01*
X182040539Y-84103634D01*
X181945533Y-84297952D01*
X181885383Y-84501528D01*
X181865713Y-84694447D01*
X181873218Y-84835409D01*
X181899511Y-84954670D01*
X181950692Y-85073574D01*
X181997861Y-85156917D01*
X182041129Y-85232339D01*
X182059058Y-85275347D01*
X182054052Y-85293730D01*
X182040862Y-85296179D01*
X181989234Y-85273240D01*
X181936588Y-85211076D01*
X181886849Y-85119058D01*
X181843943Y-85006556D01*
X181811795Y-84882940D01*
X181794330Y-84757582D01*
X181792308Y-84702850D01*
X181815040Y-84463244D01*
X181880740Y-84235589D01*
X181985658Y-84026088D01*
X182126046Y-83840942D01*
X182298155Y-83686353D01*
X182469659Y-83582094D01*
X182557798Y-83541472D01*
X182630917Y-83517406D01*
X182708694Y-83505641D01*
X182810809Y-83501924D01*
X182841315Y-83501756D01*
X182999719Y-83510935D01*
X183129452Y-83543434D01*
X183243312Y-83605413D01*
X183354096Y-83703031D01*
X183426025Y-83783177D01*
X183489262Y-83856238D01*
X183541674Y-83913494D01*
X183574608Y-83945608D01*
X183579853Y-83949149D01*
X183603264Y-83936704D01*
X183654808Y-83898758D01*
X183726150Y-83842306D01*
X183808955Y-83774346D01*
X183894889Y-83701872D01*
X183975616Y-83631883D01*
X184042804Y-83571373D01*
X184088116Y-83527339D01*
X184101813Y-83510994D01*
X184098223Y-83475363D01*
X184067947Y-83412038D01*
X184016562Y-83329997D01*
X183949650Y-83238217D01*
X183879397Y-83153149D01*
X183708896Y-82994389D01*
X183514177Y-82876324D01*
X183298585Y-82799322D01*
X183065462Y-82763751D01*
X182818151Y-82769978D01*
X182559995Y-82818371D01*
X182294339Y-82909297D01*
X182170865Y-82965347D01*
X181911350Y-83118443D01*
X181678260Y-83308696D01*
X181476179Y-83530649D01*
X181309691Y-83778841D01*
X181183378Y-84047813D01*
X181133008Y-84201493D01*
X181087201Y-84409554D01*
X181060061Y-84630407D01*
X181052051Y-84850045D01*
X181063636Y-85054458D01*
X181095280Y-85229639D01*
X181098528Y-85241394D01*
X181101716Y-85284660D01*
X181076117Y-85296346D01*
X181035240Y-85285409D01*
X181025983Y-85276780D01*
X181006435Y-85221293D01*
X180989570Y-85129480D01*
X180976580Y-85013839D01*
X180968656Y-84886868D01*
X180966989Y-84761063D01*
X180969761Y-84686845D01*
X181013446Y-84356692D01*
X181101182Y-84046187D01*
X181231752Y-83757543D01*
X181403940Y-83492974D01*
X181616528Y-83254691D01*
X181868300Y-83044909D01*
X181875068Y-83040062D01*
X182055305Y-82928979D01*
X182258734Y-82833062D01*
X182471646Y-82757074D01*
X182680331Y-82705779D01*
X182871079Y-82683940D01*
X182901359Y-82683501D01*
X183128617Y-82704005D01*
G37*
G36*
X193122023Y-82723170D02*
G01*
X193361006Y-82797062D01*
X193582574Y-82910459D01*
X193781256Y-83061473D01*
X193951583Y-83248214D01*
X194007616Y-83327969D01*
X194054476Y-83404088D01*
X194088136Y-83466711D01*
X194101524Y-83502641D01*
X194101538Y-83503212D01*
X194083887Y-83529523D01*
X194035414Y-83580520D01*
X193962839Y-83649640D01*
X193872880Y-83730318D01*
X193838990Y-83759677D01*
X193738980Y-83845709D01*
X193647848Y-83924392D01*
X193574236Y-83988244D01*
X193526785Y-84029783D01*
X193519686Y-84036107D01*
X193478955Y-84069111D01*
X193456607Y-84069575D01*
X193438773Y-84043928D01*
X193392843Y-83976058D01*
X193325043Y-83892150D01*
X193247089Y-83805098D01*
X193170697Y-83727799D01*
X193107583Y-83673148D01*
X193092469Y-83662774D01*
X192953455Y-83603778D01*
X192792498Y-83580265D01*
X192621201Y-83592214D01*
X192451168Y-83639605D01*
X192395233Y-83664016D01*
X192285061Y-83731977D01*
X192166677Y-83829332D01*
X192054868Y-83942381D01*
X191964421Y-84057424D01*
X191954901Y-84071973D01*
X191870179Y-84237236D01*
X191813015Y-84417734D01*
X191783500Y-84604269D01*
X191781720Y-84787643D01*
X191807765Y-84958658D01*
X191861724Y-85108117D01*
X191943684Y-85226822D01*
X191943780Y-85226922D01*
X191984518Y-85271388D01*
X191992884Y-85291164D01*
X191970937Y-85296214D01*
X191958120Y-85296346D01*
X191905285Y-85274735D01*
X191846893Y-85216963D01*
X191791534Y-85133624D01*
X191748805Y-85038226D01*
X191701708Y-84831756D01*
X191697557Y-84616003D01*
X191733504Y-84398687D01*
X191806704Y-84187528D01*
X191914310Y-83990244D01*
X192053476Y-83814557D01*
X192221356Y-83668184D01*
X192264814Y-83638781D01*
X192414244Y-83564401D01*
X192584571Y-83514181D01*
X192754820Y-83493403D01*
X192832909Y-83495666D01*
X192968676Y-83520139D01*
X193090496Y-83570845D01*
X193207063Y-83653332D01*
X193327074Y-83773147D01*
X193396092Y-83854973D01*
X193484395Y-83964465D01*
X193621391Y-83851682D01*
X193759679Y-83735512D01*
X193869892Y-83638047D01*
X193949042Y-83562113D01*
X193994138Y-83510535D01*
X194003846Y-83490240D01*
X193987930Y-83442132D01*
X193945318Y-83369799D01*
X193883715Y-83283693D01*
X193810825Y-83194268D01*
X193734352Y-83111976D01*
X193702944Y-83081987D01*
X193507013Y-82932369D01*
X193297573Y-82829568D01*
X193073076Y-82773043D01*
X192831972Y-82762253D01*
X192794904Y-82764500D01*
X192594901Y-82788129D01*
X192410996Y-82831065D01*
X192223893Y-82898650D01*
X192086635Y-82960625D01*
X191815561Y-83116291D01*
X191578914Y-83306473D01*
X191376541Y-83531353D01*
X191208288Y-83791111D01*
X191074002Y-84085928D01*
X191035037Y-84197307D01*
X191007043Y-84288626D01*
X190987853Y-84368706D01*
X190975757Y-84451050D01*
X190969042Y-84549160D01*
X190965998Y-84676537D01*
X190965370Y-84746827D01*
X190966025Y-84881218D01*
X190969370Y-85007224D01*
X190974888Y-85112198D01*
X190982060Y-85183496D01*
X190983637Y-85192548D01*
X190993654Y-85258561D01*
X190987992Y-85289294D01*
X190967343Y-85296346D01*
X190936872Y-85272097D01*
X190910371Y-85199776D01*
X190904139Y-85173028D01*
X190887642Y-85054671D01*
X190879601Y-84904324D01*
X190879782Y-84738064D01*
X190887951Y-84571968D01*
X190903873Y-84422112D01*
X190916112Y-84351170D01*
X190963941Y-84167416D01*
X191030809Y-83975628D01*
X191109000Y-83795969D01*
X191175930Y-83672211D01*
X191347207Y-83435799D01*
X191556577Y-83220316D01*
X191795406Y-83032461D01*
X192055059Y-82878930D01*
X192326902Y-82766420D01*
X192355288Y-82757417D01*
X192613693Y-82701459D01*
X192871095Y-82690673D01*
X193122023Y-82723170D01*
G37*
G36*
X192200303Y-89718546D02*
G01*
X192210940Y-89728304D01*
X192196832Y-89753532D01*
X192154639Y-89801562D01*
X192106351Y-89852949D01*
X192026954Y-89949357D01*
X191946837Y-90066925D01*
X191885877Y-90174805D01*
X191844512Y-90261646D01*
X191817322Y-90331781D01*
X191800822Y-90400802D01*
X191791525Y-90484300D01*
X191785944Y-90597866D01*
X191784946Y-90626169D01*
X191781588Y-90744930D01*
X191782659Y-90828872D01*
X191790421Y-90891975D01*
X191807134Y-90948217D01*
X191835060Y-91011579D01*
X191853342Y-91049096D01*
X191949784Y-91198398D01*
X192069902Y-91306711D01*
X192210587Y-91373893D01*
X192368727Y-91399803D01*
X192541214Y-91384297D01*
X192724937Y-91327233D01*
X192916787Y-91228469D01*
X193091444Y-91105703D01*
X193163941Y-91049681D01*
X193221357Y-91007887D01*
X193253430Y-90987723D01*
X193256147Y-90986923D01*
X193270970Y-91007456D01*
X193302697Y-91063275D01*
X193346932Y-91145710D01*
X193399276Y-91246089D01*
X193455333Y-91355741D01*
X193510707Y-91465995D01*
X193560998Y-91568182D01*
X193601812Y-91653629D01*
X193628751Y-91713665D01*
X193637500Y-91738945D01*
X193619308Y-91761723D01*
X193570710Y-91805538D01*
X193500677Y-91862519D01*
X193467480Y-91888141D01*
X193317254Y-91987257D01*
X193137296Y-92082566D01*
X192946370Y-92165470D01*
X192763237Y-92227367D01*
X192685000Y-92246798D01*
X192549703Y-92266834D01*
X192391505Y-92276818D01*
X192227358Y-92276838D01*
X192074211Y-92266983D01*
X191949017Y-92247340D01*
X191931207Y-92242892D01*
X191713294Y-92163191D01*
X191507370Y-92047639D01*
X191321684Y-91903097D01*
X191164486Y-91736424D01*
X191044027Y-91554483D01*
X191005547Y-91473184D01*
X190943595Y-91301141D01*
X190903759Y-91129672D01*
X190883923Y-90944535D01*
X190881969Y-90731489D01*
X190884571Y-90659601D01*
X190898190Y-90463908D01*
X190922519Y-90297340D01*
X190961776Y-90140613D01*
X191020181Y-89974439D01*
X191051285Y-89897552D01*
X191096155Y-89798582D01*
X191132264Y-89740704D01*
X191163637Y-89717867D01*
X191171517Y-89716923D01*
X191193156Y-89720854D01*
X191198527Y-89738860D01*
X191186064Y-89780257D01*
X191154201Y-89854362D01*
X191144998Y-89874732D01*
X191071272Y-90051127D01*
X191019437Y-90212600D01*
X190986299Y-90374832D01*
X190968668Y-90553505D01*
X190963350Y-90764302D01*
X190963348Y-90767115D01*
X190965443Y-90937873D01*
X190973864Y-91073522D01*
X190991533Y-91187681D01*
X191021370Y-91293969D01*
X191066296Y-91406004D01*
X191128024Y-91534992D01*
X191241830Y-91710230D01*
X191393825Y-91864939D01*
X191576237Y-91995136D01*
X191781295Y-92096836D01*
X192001229Y-92166056D01*
X192228268Y-92198812D01*
X192416346Y-92195471D01*
X192645670Y-92159412D01*
X192873719Y-92097902D01*
X193088862Y-92015429D01*
X193279467Y-91916483D01*
X193433902Y-91805551D01*
X193439500Y-91800628D01*
X193545765Y-91706326D01*
X193396060Y-91407682D01*
X193340231Y-91298899D01*
X193291028Y-91207843D01*
X193252947Y-91142485D01*
X193230484Y-91110794D01*
X193227568Y-91109038D01*
X193199991Y-91122786D01*
X193145621Y-91158854D01*
X193076150Y-91209480D01*
X193075112Y-91210266D01*
X192881153Y-91335283D01*
X192687875Y-91418559D01*
X192499493Y-91460665D01*
X192320222Y-91462174D01*
X192154277Y-91423658D01*
X192005873Y-91345689D01*
X191879223Y-91228839D01*
X191778544Y-91073681D01*
X191759058Y-91031605D01*
X191704820Y-90847085D01*
X191690720Y-90645651D01*
X191715110Y-90435684D01*
X191776343Y-90225566D01*
X191872771Y-90023680D01*
X191990716Y-89852958D01*
X192058401Y-89775927D01*
X192110399Y-89733247D01*
X192156373Y-89717514D01*
X192168257Y-89716923D01*
X192200303Y-89718546D01*
G37*
G36*
X195836562Y-94098129D02*
G01*
X195869403Y-94143414D01*
X195916628Y-94227151D01*
X195978958Y-94350710D01*
X196057114Y-94515459D01*
X196151815Y-94722765D01*
X196263782Y-94973996D01*
X196272622Y-94994027D01*
X196315033Y-95090176D01*
X196364728Y-95202824D01*
X196400843Y-95284680D01*
X196435193Y-95363494D01*
X196460094Y-95422465D01*
X196470519Y-95449666D01*
X196470577Y-95450099D01*
X196447454Y-95452117D01*
X196383266Y-95453183D01*
X196285785Y-95453284D01*
X196162784Y-95452409D01*
X196038555Y-95450804D01*
X195606534Y-95444134D01*
X195413493Y-95004519D01*
X195351052Y-94862067D01*
X195292903Y-94728939D01*
X195242864Y-94613911D01*
X195204754Y-94525762D01*
X195182391Y-94473270D01*
X195181994Y-94472315D01*
X195144824Y-94406904D01*
X195107525Y-94386780D01*
X195105012Y-94387146D01*
X195089371Y-94400743D01*
X195072353Y-94438900D01*
X195052670Y-94506554D01*
X195029032Y-94608642D01*
X195000150Y-94750100D01*
X194972403Y-94894926D01*
X194943758Y-95046446D01*
X194917746Y-95182494D01*
X194895850Y-95295444D01*
X194879551Y-95377672D01*
X194870330Y-95421551D01*
X194869251Y-95425817D01*
X194852104Y-95438032D01*
X194805648Y-95446809D01*
X194724834Y-95452529D01*
X194604614Y-95455575D01*
X194465455Y-95456346D01*
X194070724Y-95456346D01*
X194084143Y-95376971D01*
X194101812Y-95275950D01*
X194125205Y-95147255D01*
X194152568Y-95000019D01*
X194182148Y-94843377D01*
X194212194Y-94686466D01*
X194240952Y-94538421D01*
X194266670Y-94408376D01*
X194287594Y-94305467D01*
X194301973Y-94238829D01*
X194304660Y-94227627D01*
X194327885Y-94159524D01*
X194351652Y-94123469D01*
X194369751Y-94123151D01*
X194375969Y-94162260D01*
X194374144Y-94186346D01*
X194367695Y-94227066D01*
X194353609Y-94306878D01*
X194333551Y-94416920D01*
X194309186Y-94548331D01*
X194282179Y-94692250D01*
X194254195Y-94839816D01*
X194226899Y-94982168D01*
X194201955Y-95110445D01*
X194181029Y-95215786D01*
X194176898Y-95236135D01*
X194165813Y-95305665D01*
X194163735Y-95354265D01*
X194166121Y-95364356D01*
X194193540Y-95371366D01*
X194260256Y-95377181D01*
X194356725Y-95381254D01*
X194473402Y-95383040D01*
X194493284Y-95383077D01*
X194622402Y-95382736D01*
X194710804Y-95380803D01*
X194766620Y-95375911D01*
X194797980Y-95366693D01*
X194813015Y-95351784D01*
X194819852Y-95329816D01*
X194820204Y-95328125D01*
X194843961Y-95211145D01*
X194874117Y-95060082D01*
X194907934Y-94888837D01*
X194942677Y-94711310D01*
X194975607Y-94541401D01*
X194994170Y-94444636D01*
X195017277Y-94326680D01*
X195037897Y-94227165D01*
X195054030Y-94155344D01*
X195063674Y-94120475D01*
X195064636Y-94118760D01*
X195073595Y-94120253D01*
X195089018Y-94140891D01*
X195113242Y-94185394D01*
X195148604Y-94258483D01*
X195197443Y-94364882D01*
X195262094Y-94509309D01*
X195297512Y-94589193D01*
X195351210Y-94709557D01*
X195398936Y-94814668D01*
X195436805Y-94896112D01*
X195460931Y-94945474D01*
X195466659Y-94955540D01*
X195484092Y-94988943D01*
X195513574Y-95054454D01*
X195549152Y-95138774D01*
X195554172Y-95151057D01*
X195590983Y-95238056D01*
X195623578Y-95309085D01*
X195645539Y-95350241D01*
X195647182Y-95352548D01*
X195675062Y-95366075D01*
X195737533Y-95375416D01*
X195839073Y-95380945D01*
X195984157Y-95383036D01*
X196012376Y-95383077D01*
X196354156Y-95383077D01*
X196341735Y-95328125D01*
X196328355Y-95291441D01*
X196297259Y-95217169D01*
X196251385Y-95111984D01*
X196193675Y-94982562D01*
X196127068Y-94835579D01*
X196070234Y-94711740D01*
X195999478Y-94557157D01*
X195936087Y-94416260D01*
X195882827Y-94295396D01*
X195842467Y-94200914D01*
X195817772Y-94139161D01*
X195811154Y-94117445D01*
X195817386Y-94089929D01*
X195836562Y-94098129D01*
G37*
G36*
X196198967Y-92597413D02*
G01*
X196243138Y-92663694D01*
X196274907Y-92727067D01*
X196374647Y-92944290D01*
X196467239Y-93147921D01*
X196550735Y-93333540D01*
X196623188Y-93496727D01*
X196682650Y-93633064D01*
X196727173Y-93738129D01*
X196754811Y-93807504D01*
X196763654Y-93836216D01*
X196740810Y-93848598D01*
X196678457Y-93858351D01*
X196585859Y-93865469D01*
X196472282Y-93869942D01*
X196346994Y-93871764D01*
X196219258Y-93870926D01*
X196098341Y-93867421D01*
X195993509Y-93861241D01*
X195914028Y-93852379D01*
X195869163Y-93840825D01*
X195863951Y-93836971D01*
X195842517Y-93800354D01*
X195804345Y-93723394D01*
X195751583Y-93610798D01*
X195686381Y-93467269D01*
X195610888Y-93297513D01*
X195527254Y-93106235D01*
X195476864Y-92989615D01*
X195430980Y-92885297D01*
X195390313Y-92797079D01*
X195359614Y-92735005D01*
X195344606Y-92709971D01*
X195322273Y-92697611D01*
X195301400Y-92713489D01*
X195280355Y-92762055D01*
X195257507Y-92847760D01*
X195231223Y-92975055D01*
X195214768Y-93064097D01*
X195187395Y-93212072D01*
X195157242Y-93368302D01*
X195128076Y-93513628D01*
X195104855Y-93623471D01*
X195083137Y-93722842D01*
X195066050Y-93802357D01*
X195055876Y-93851321D01*
X195054038Y-93861596D01*
X195030914Y-93863936D01*
X194966734Y-93865961D01*
X194869288Y-93867541D01*
X194746368Y-93868544D01*
X194623786Y-93868846D01*
X194469193Y-93868520D01*
X194356995Y-93867106D01*
X194280743Y-93863945D01*
X194233988Y-93858380D01*
X194210279Y-93849753D01*
X194203169Y-93837406D01*
X194204638Y-93826105D01*
X194212223Y-93791114D01*
X194227717Y-93715180D01*
X194249721Y-93605313D01*
X194276839Y-93468523D01*
X194307673Y-93311819D01*
X194333673Y-93178894D01*
X194370998Y-92989792D01*
X194401060Y-92843587D01*
X194425232Y-92735100D01*
X194444887Y-92659150D01*
X194461399Y-92610557D01*
X194476142Y-92584144D01*
X194490489Y-92574728D01*
X194493963Y-92574423D01*
X194513369Y-92577572D01*
X194522404Y-92593080D01*
X194520845Y-92630039D01*
X194508471Y-92697540D01*
X194488749Y-92788125D01*
X194459119Y-92923469D01*
X194427771Y-93070508D01*
X194396373Y-93220970D01*
X194366597Y-93366582D01*
X194340111Y-93499072D01*
X194318586Y-93610167D01*
X194303692Y-93691596D01*
X194297099Y-93735086D01*
X194296923Y-93738329D01*
X194306730Y-93751681D01*
X194340312Y-93761057D01*
X194403908Y-93767039D01*
X194503757Y-93770210D01*
X194646098Y-93771153D01*
X194648410Y-93771153D01*
X194785846Y-93770879D01*
X194882149Y-93769281D01*
X194945029Y-93765196D01*
X194982199Y-93757462D01*
X195001370Y-93744916D01*
X195010255Y-93726395D01*
X195012858Y-93716202D01*
X195023010Y-93668440D01*
X195040389Y-93581698D01*
X195063255Y-93465008D01*
X195089864Y-93327406D01*
X195118477Y-93177925D01*
X195147350Y-93025600D01*
X195174743Y-92879466D01*
X195189409Y-92800336D01*
X195209457Y-92695147D01*
X195225397Y-92629015D01*
X195241568Y-92592889D01*
X195262312Y-92577717D01*
X195291970Y-92574446D01*
X195297749Y-92574423D01*
X195324303Y-92577218D01*
X195347923Y-92589953D01*
X195372757Y-92619153D01*
X195402953Y-92671344D01*
X195442661Y-92753050D01*
X195496029Y-92870796D01*
X195519024Y-92922452D01*
X195584776Y-93069522D01*
X195655497Y-93226110D01*
X195723496Y-93375277D01*
X195781080Y-93500086D01*
X195790755Y-93520817D01*
X195907901Y-93771153D01*
X196274720Y-93771153D01*
X196429584Y-93769855D01*
X196539402Y-93765768D01*
X196607911Y-93758603D01*
X196638847Y-93748071D01*
X196641538Y-93742783D01*
X196631739Y-93713483D01*
X196604209Y-93646303D01*
X196561751Y-93547686D01*
X196507167Y-93424075D01*
X196443259Y-93281910D01*
X196394541Y-93174947D01*
X196325212Y-93023359D01*
X196262404Y-92885711D01*
X196209067Y-92768496D01*
X196168152Y-92678205D01*
X196142609Y-92621331D01*
X196135485Y-92604952D01*
X196144051Y-92579117D01*
X196163959Y-92574423D01*
X196198967Y-92597413D01*
G37*
G36*
X196777617Y-89722951D02*
G01*
X196766760Y-89747232D01*
X196738959Y-89789800D01*
X196691742Y-89854302D01*
X196622638Y-89944383D01*
X196529176Y-90063691D01*
X196408885Y-90215870D01*
X196343641Y-90298192D01*
X196287926Y-90367128D01*
X196249409Y-90418333D01*
X196228326Y-90461456D01*
X196224912Y-90506150D01*
X196239404Y-90562066D01*
X196272038Y-90638854D01*
X196323051Y-90746165D01*
X196356317Y-90815961D01*
X196383544Y-90874859D01*
X196427037Y-90970548D01*
X196483280Y-91095159D01*
X196548756Y-91240823D01*
X196619947Y-91399669D01*
X196693338Y-91563830D01*
X196765410Y-91725435D01*
X196832648Y-91876616D01*
X196891534Y-92009502D01*
X196938551Y-92116225D01*
X196970183Y-92188916D01*
X196975972Y-92202496D01*
X196971229Y-92213346D01*
X196943022Y-92221113D01*
X196886202Y-92226064D01*
X196795620Y-92228468D01*
X196666128Y-92228594D01*
X196507515Y-92226920D01*
X196025939Y-92220288D01*
X195763497Y-91639056D01*
X195691900Y-91481631D01*
X195625796Y-91338444D01*
X195568124Y-91215691D01*
X195521823Y-91119566D01*
X195489832Y-91056264D01*
X195475688Y-91032457D01*
X195445766Y-91022191D01*
X195432087Y-91036592D01*
X195422399Y-91067994D01*
X195404970Y-91140357D01*
X195381329Y-91246683D01*
X195353006Y-91379976D01*
X195321530Y-91533236D01*
X195299522Y-91643191D01*
X195185189Y-92220288D01*
X194741056Y-92226945D01*
X194599878Y-92228181D01*
X194477216Y-92227575D01*
X194380734Y-92225302D01*
X194318098Y-92221540D01*
X194296923Y-92216716D01*
X194301497Y-92186497D01*
X194314491Y-92113970D01*
X194334813Y-92004738D01*
X194361367Y-91864402D01*
X194393063Y-91698567D01*
X194428806Y-91512834D01*
X194467504Y-91312805D01*
X194508064Y-91104085D01*
X194549392Y-90892275D01*
X194590395Y-90682979D01*
X194629981Y-90481798D01*
X194667056Y-90294335D01*
X194700528Y-90126193D01*
X194729303Y-89982975D01*
X194752288Y-89870284D01*
X194768390Y-89793722D01*
X194776284Y-89759663D01*
X194801560Y-89721546D01*
X194832116Y-89718703D01*
X194849457Y-89747975D01*
X194847793Y-89771875D01*
X194839667Y-89811784D01*
X194823773Y-89891546D01*
X194801712Y-90003076D01*
X194775080Y-90138286D01*
X194745477Y-90289091D01*
X194737952Y-90327500D01*
X194703760Y-90501906D01*
X194663065Y-90709176D01*
X194618827Y-90934252D01*
X194574006Y-91162076D01*
X194531563Y-91377591D01*
X194515878Y-91457163D01*
X194483193Y-91626612D01*
X194454874Y-91780626D01*
X194432018Y-91912630D01*
X194415722Y-92016049D01*
X194407083Y-92084308D01*
X194406886Y-92110481D01*
X194436491Y-92119961D01*
X194507865Y-92127479D01*
X194613957Y-92132568D01*
X194747711Y-92134757D01*
X194772883Y-92134807D01*
X195123844Y-92134807D01*
X195150350Y-92006586D01*
X195162491Y-91946676D01*
X195182364Y-91847222D01*
X195208307Y-91716614D01*
X195238655Y-91563242D01*
X195271744Y-91395497D01*
X195294470Y-91280000D01*
X195412084Y-90681634D01*
X195477765Y-90828173D01*
X195506021Y-90891066D01*
X195550777Y-90990506D01*
X195608439Y-91118517D01*
X195675415Y-91267122D01*
X195748110Y-91428347D01*
X195805130Y-91554759D01*
X196066814Y-92134807D01*
X196451869Y-92134807D01*
X196603184Y-92133948D01*
X196711497Y-92131048D01*
X196782629Y-92125623D01*
X196822398Y-92117188D01*
X196836625Y-92105258D01*
X196836923Y-92102749D01*
X196827036Y-92071178D01*
X196799580Y-92003136D01*
X196757862Y-91906315D01*
X196705188Y-91788403D01*
X196650512Y-91669239D01*
X196557432Y-91467769D01*
X196467928Y-91272124D01*
X196384249Y-91087379D01*
X196308647Y-90918610D01*
X196243371Y-90770893D01*
X196190672Y-90649304D01*
X196152800Y-90558919D01*
X196132004Y-90504812D01*
X196128654Y-90492091D01*
X196143248Y-90464622D01*
X196183195Y-90406802D01*
X196242746Y-90325943D01*
X196316149Y-90229358D01*
X196397654Y-90124358D01*
X196481510Y-90018256D01*
X196561967Y-89918363D01*
X196633273Y-89831991D01*
X196689679Y-89766453D01*
X196725433Y-89729059D01*
X196733231Y-89723371D01*
X196758381Y-89714666D01*
X196774000Y-89713311D01*
X196777617Y-89722951D01*
G37*
G36*
X189721948Y-89739724D02*
G01*
X189749305Y-89801816D01*
X189754610Y-89820721D01*
X189778167Y-89910185D01*
X189805663Y-90011697D01*
X189815322Y-90046634D01*
X189837250Y-90132298D01*
X189863001Y-90243057D01*
X189887270Y-90356021D01*
X189888921Y-90364134D01*
X189906729Y-90446896D01*
X189933927Y-90566746D01*
X189968102Y-90713372D01*
X190006845Y-90876465D01*
X190047744Y-91045712D01*
X190060241Y-91096827D01*
X190128986Y-91378177D01*
X190186147Y-91614344D01*
X190232225Y-91807471D01*
X190267715Y-91959704D01*
X190293116Y-92073187D01*
X190308926Y-92150064D01*
X190315642Y-92192481D01*
X190315961Y-92198371D01*
X190309271Y-92210982D01*
X190285106Y-92219945D01*
X190237327Y-92225657D01*
X190159795Y-92228510D01*
X190046371Y-92228902D01*
X189890915Y-92227226D01*
X189871808Y-92226945D01*
X189427654Y-92220288D01*
X189382525Y-92014205D01*
X189358958Y-91916519D01*
X189335415Y-91835471D01*
X189315909Y-91784385D01*
X189310804Y-91776080D01*
X189288770Y-91764256D01*
X189241486Y-91755497D01*
X189163639Y-91749461D01*
X189049918Y-91745806D01*
X188895012Y-91744191D01*
X188812949Y-91744038D01*
X188663980Y-91744799D01*
X188530191Y-91746918D01*
X188419881Y-91750147D01*
X188341352Y-91754241D01*
X188302901Y-91758951D01*
X188302101Y-91759229D01*
X188274043Y-91785601D01*
X188228955Y-91845124D01*
X188173617Y-91928300D01*
X188127717Y-92003460D01*
X187992920Y-92232500D01*
X187490823Y-92232500D01*
X187322350Y-92232299D01*
X187196683Y-92231316D01*
X187107782Y-92228983D01*
X187049606Y-92224729D01*
X187016116Y-92217987D01*
X187001272Y-92208187D01*
X186999033Y-92194760D01*
X187000800Y-92186327D01*
X187018457Y-92147632D01*
X187056903Y-92078640D01*
X187110081Y-91989859D01*
X187159211Y-91911568D01*
X187225598Y-91807326D01*
X187308791Y-91675888D01*
X187399783Y-91531524D01*
X187489568Y-91388508D01*
X187522437Y-91335980D01*
X187645919Y-91138663D01*
X187773037Y-90935975D01*
X187899633Y-90734512D01*
X188021548Y-90540874D01*
X188134623Y-90361657D01*
X188234700Y-90203460D01*
X188317619Y-90072880D01*
X188379223Y-89976515D01*
X188383783Y-89969431D01*
X188438740Y-89883795D01*
X188485664Y-89810099D01*
X188516524Y-89760977D01*
X188521473Y-89752880D01*
X188561041Y-89722324D01*
X188589135Y-89720179D01*
X188611558Y-89730124D01*
X188610300Y-89753121D01*
X188582884Y-89799984D01*
X188564732Y-89826827D01*
X188518714Y-89896026D01*
X188450064Y-90002241D01*
X188361700Y-90140855D01*
X188256541Y-90307255D01*
X188137504Y-90496824D01*
X188007509Y-90704947D01*
X187892912Y-90889230D01*
X187803714Y-91032763D01*
X187724582Y-91159593D01*
X187649183Y-91279760D01*
X187571184Y-91403302D01*
X187484251Y-91540258D01*
X187382050Y-91700668D01*
X187290578Y-91843960D01*
X187230863Y-91939819D01*
X187182473Y-92022000D01*
X187150779Y-92081080D01*
X187140961Y-92106508D01*
X187157314Y-92117856D01*
X187208830Y-92126096D01*
X187299199Y-92131482D01*
X187432111Y-92134268D01*
X187551648Y-92134807D01*
X187962335Y-92134807D01*
X188097598Y-91908894D01*
X188232862Y-91682980D01*
X188807824Y-91676439D01*
X189382787Y-91669897D01*
X189423661Y-91859612D01*
X189444634Y-91955282D01*
X189462996Y-92036083D01*
X189475319Y-92086991D01*
X189476702Y-92092067D01*
X189485880Y-92108664D01*
X189507345Y-92120352D01*
X189548501Y-92127971D01*
X189616754Y-92132359D01*
X189719508Y-92134358D01*
X189853569Y-92134807D01*
X189995601Y-92134228D01*
X190095791Y-92131991D01*
X190161135Y-92127351D01*
X190198629Y-92119559D01*
X190215267Y-92107869D01*
X190218269Y-92095854D01*
X190212633Y-92061818D01*
X190196825Y-91987585D01*
X190172495Y-91880349D01*
X190141295Y-91747308D01*
X190104876Y-91595657D01*
X190082401Y-91503595D01*
X190032688Y-91300007D01*
X189976419Y-91067690D01*
X189918128Y-90825484D01*
X189862350Y-90592232D01*
X189814040Y-90388557D01*
X189775912Y-90226907D01*
X189740961Y-90078729D01*
X189710939Y-89951454D01*
X189687600Y-89852508D01*
X189672693Y-89789319D01*
X189668577Y-89771875D01*
X189668749Y-89727430D01*
X189691766Y-89716923D01*
X189721948Y-89739724D01*
G37*
G36*
X197517401Y-82835721D02*
G01*
X197479963Y-82886357D01*
X197420231Y-82963935D01*
X197346726Y-83057501D01*
X197275202Y-83147115D01*
X197196240Y-83245686D01*
X197096689Y-83370593D01*
X196986140Y-83509766D01*
X196874186Y-83651134D01*
X196799689Y-83745480D01*
X196695752Y-83877048D01*
X196589563Y-84011028D01*
X196489728Y-84136591D01*
X196404855Y-84242908D01*
X196355171Y-84304770D01*
X196291005Y-84388144D01*
X196242146Y-84459062D01*
X196214658Y-84508260D01*
X196211268Y-84524578D01*
X196225239Y-84555500D01*
X196255565Y-84622053D01*
X196298243Y-84715465D01*
X196349268Y-84826966D01*
X196368496Y-84868942D01*
X196436456Y-85018209D01*
X196485337Y-85128772D01*
X196516907Y-85206102D01*
X196532936Y-85255668D01*
X196535194Y-85282939D01*
X196525450Y-85293384D01*
X196505533Y-85292485D01*
X196475947Y-85265726D01*
X196430684Y-85193721D01*
X196369580Y-85076181D01*
X196295578Y-84919607D01*
X196239507Y-84795473D01*
X196191457Y-84685877D01*
X196154862Y-84598913D01*
X196133156Y-84542677D01*
X196128654Y-84526186D01*
X196143025Y-84497890D01*
X196182688Y-84438677D01*
X196242463Y-84355808D01*
X196317175Y-84256545D01*
X196365050Y-84194655D01*
X196455866Y-84078389D01*
X196544906Y-83964391D01*
X196623816Y-83863358D01*
X196684241Y-83785985D01*
X196700867Y-83764694D01*
X196748378Y-83704001D01*
X196819110Y-83613838D01*
X196906069Y-83503114D01*
X197002260Y-83380735D01*
X197089672Y-83269605D01*
X197195886Y-83131819D01*
X197278348Y-83018904D01*
X197334774Y-82934208D01*
X197362883Y-82881077D01*
X197365199Y-82865728D01*
X197352122Y-82851814D01*
X197320771Y-82841866D01*
X197264430Y-82835285D01*
X197176382Y-82831469D01*
X197049914Y-82829818D01*
X196961543Y-82829615D01*
X196571744Y-82829615D01*
X196344093Y-83117896D01*
X196250971Y-83236355D01*
X196138707Y-83380002D01*
X196017874Y-83535258D01*
X195899048Y-83688543D01*
X195823365Y-83786570D01*
X195733310Y-83902900D01*
X195653913Y-84004405D01*
X195589755Y-84085313D01*
X195545419Y-84139854D01*
X195525489Y-84162256D01*
X195524884Y-84162484D01*
X195527842Y-84138330D01*
X195539084Y-84073017D01*
X195557360Y-83973294D01*
X195581419Y-83845910D01*
X195610013Y-83697612D01*
X195628061Y-83605296D01*
X195659818Y-83440577D01*
X195688517Y-83285909D01*
X195712672Y-83149768D01*
X195730799Y-83040626D01*
X195741412Y-82966959D01*
X195743369Y-82947207D01*
X195750096Y-82841827D01*
X195403281Y-82835058D01*
X195260744Y-82831867D01*
X195158946Y-82832635D01*
X195089813Y-82843179D01*
X195045273Y-82869316D01*
X195017255Y-82916861D01*
X194997685Y-82991632D01*
X194978492Y-83099443D01*
X194970182Y-83147115D01*
X194954741Y-83231451D01*
X194931464Y-83355185D01*
X194901984Y-83509797D01*
X194867935Y-83686765D01*
X194830951Y-83877568D01*
X194792666Y-84073686D01*
X194785187Y-84111827D01*
X194746902Y-84307590D01*
X194709642Y-84499342D01*
X194675031Y-84678640D01*
X194644689Y-84837041D01*
X194620241Y-84966104D01*
X194603308Y-85057386D01*
X194600955Y-85070432D01*
X194580232Y-85178137D01*
X194562649Y-85245899D01*
X194544974Y-85282203D01*
X194523977Y-85295535D01*
X194514960Y-85296346D01*
X194481842Y-85283439D01*
X194479789Y-85265817D01*
X194486539Y-85235982D01*
X194501521Y-85163460D01*
X194523699Y-85053525D01*
X194552039Y-84911450D01*
X194585504Y-84742507D01*
X194623058Y-84551969D01*
X194663666Y-84345109D01*
X194706292Y-84127200D01*
X194749900Y-83903513D01*
X194793455Y-83679323D01*
X194835920Y-83459902D01*
X194876260Y-83250522D01*
X194900777Y-83122692D01*
X194968558Y-82768557D01*
X195414279Y-82761901D01*
X195555729Y-82760291D01*
X195678675Y-82759851D01*
X195775464Y-82760531D01*
X195838446Y-82762277D01*
X195860000Y-82764922D01*
X195855543Y-82790826D01*
X195843157Y-82856920D01*
X195824321Y-82955464D01*
X195800515Y-83078715D01*
X195774730Y-83211194D01*
X195747358Y-83353553D01*
X195723608Y-83481301D01*
X195704999Y-83585917D01*
X195693051Y-83658878D01*
X195689249Y-83690528D01*
X195703666Y-83727228D01*
X195738081Y-83727485D01*
X195771827Y-83698915D01*
X195794081Y-83670499D01*
X195841799Y-83609424D01*
X195910407Y-83521548D01*
X195995329Y-83412733D01*
X196091993Y-83288837D01*
X196153077Y-83210527D01*
X196507211Y-82756494D01*
X197040076Y-82756420D01*
X197572941Y-82756346D01*
X197517401Y-82835721D01*
G37*
G36*
X189279251Y-85617663D02*
G01*
X189300070Y-85618806D01*
X189424519Y-85626057D01*
X189501815Y-85943557D01*
X189527908Y-86051112D01*
X189563076Y-86196617D01*
X189605016Y-86370522D01*
X189651426Y-86563272D01*
X189700007Y-86765317D01*
X189748455Y-86967104D01*
X189754847Y-86993750D01*
X189806993Y-87210864D01*
X189863117Y-87444027D01*
X189920092Y-87680278D01*
X189974790Y-87906657D01*
X190024081Y-88110205D01*
X190061378Y-88263750D01*
X190128967Y-88542513D01*
X190184635Y-88774547D01*
X190228523Y-88960455D01*
X190260771Y-89100843D01*
X190281519Y-89196313D01*
X190290909Y-89247470D01*
X190291538Y-89254813D01*
X190268199Y-89262236D01*
X190202501Y-89268513D01*
X190100926Y-89273326D01*
X189969954Y-89276360D01*
X189830677Y-89277307D01*
X189369817Y-89277307D01*
X189342063Y-89136875D01*
X189321646Y-89040235D01*
X189299897Y-88947231D01*
X189288891Y-88904855D01*
X189263473Y-88813269D01*
X188728483Y-88813269D01*
X188193494Y-88813269D01*
X188106843Y-88961116D01*
X188063891Y-89036155D01*
X188032892Y-89093653D01*
X188020230Y-89121746D01*
X188020192Y-89122201D01*
X188007373Y-89148994D01*
X187975896Y-89197548D01*
X187969683Y-89206374D01*
X187919174Y-89277307D01*
X187395741Y-89277307D01*
X187241783Y-89276659D01*
X187105742Y-89274845D01*
X186994681Y-89272062D01*
X186915664Y-89268508D01*
X186875752Y-89264379D01*
X186872308Y-89262705D01*
X186884610Y-89236199D01*
X186921768Y-89171823D01*
X186936641Y-89147303D01*
X187055760Y-89147303D01*
X187057797Y-89158931D01*
X187057995Y-89159260D01*
X187085663Y-89166039D01*
X187153785Y-89171132D01*
X187253990Y-89174241D01*
X187377906Y-89175070D01*
X187476993Y-89174092D01*
X187882690Y-89167403D01*
X188014761Y-88941490D01*
X188146832Y-88715577D01*
X188741203Y-88715577D01*
X189335575Y-88715577D01*
X189363597Y-88856009D01*
X189383809Y-88952596D01*
X189404762Y-89045568D01*
X189415116Y-89088028D01*
X189438613Y-89179615D01*
X189804018Y-89179615D01*
X189944665Y-89179274D01*
X190043724Y-89177617D01*
X190108451Y-89173693D01*
X190146102Y-89166550D01*
X190163934Y-89155238D01*
X190169204Y-89138805D01*
X190169423Y-89131715D01*
X190167447Y-89106147D01*
X190160880Y-89064871D01*
X190148765Y-89003671D01*
X190130144Y-88918333D01*
X190104058Y-88804643D01*
X190069551Y-88658386D01*
X190025663Y-88475348D01*
X189971437Y-88251316D01*
X189938835Y-88117211D01*
X189895622Y-87939287D01*
X189844449Y-87727971D01*
X189788722Y-87497376D01*
X189731851Y-87261615D01*
X189677244Y-87034801D01*
X189643907Y-86896057D01*
X189579349Y-86626991D01*
X189525164Y-86401521D01*
X189480200Y-86215774D01*
X189443299Y-86065881D01*
X189413308Y-85947969D01*
X189389072Y-85858169D01*
X189369436Y-85792609D01*
X189353244Y-85747419D01*
X189339342Y-85718727D01*
X189326575Y-85702662D01*
X189313789Y-85695354D01*
X189299827Y-85692931D01*
X189284566Y-85691645D01*
X189251961Y-85692076D01*
X189221879Y-85706415D01*
X189187352Y-85741728D01*
X189141413Y-85805079D01*
X189079846Y-85899241D01*
X188853661Y-86253942D01*
X188604483Y-86648405D01*
X188331677Y-87083639D01*
X188203365Y-87289325D01*
X188130691Y-87405532D01*
X188043120Y-87544883D01*
X187952014Y-87689331D01*
X187873654Y-87813078D01*
X187803332Y-87924267D01*
X187739301Y-88026272D01*
X187687743Y-88109194D01*
X187654836Y-88163135D01*
X187650516Y-88170469D01*
X187623521Y-88215044D01*
X187575998Y-88291595D01*
X187513702Y-88390924D01*
X187442386Y-88503836D01*
X187408758Y-88556827D01*
X187300323Y-88727768D01*
X187215666Y-88862218D01*
X187152122Y-88964753D01*
X187107024Y-89039952D01*
X187077708Y-89092391D01*
X187061508Y-89126649D01*
X187055760Y-89147303D01*
X186936641Y-89147303D01*
X186984160Y-89068962D01*
X187072164Y-88927000D01*
X187186159Y-88745320D01*
X187313015Y-88544615D01*
X187369706Y-88455126D01*
X187423251Y-88370521D01*
X187476982Y-88285512D01*
X187534230Y-88194813D01*
X187598329Y-88093134D01*
X187672610Y-87975189D01*
X187760406Y-87835690D01*
X187865048Y-87669348D01*
X187989869Y-87470876D01*
X188097925Y-87299038D01*
X188200641Y-87135752D01*
X188306246Y-86967987D01*
X188408320Y-86805937D01*
X188500437Y-86659799D01*
X188576175Y-86539768D01*
X188605674Y-86493077D01*
X188687543Y-86363161D01*
X188775413Y-86223030D01*
X188858176Y-86090435D01*
X188918998Y-85992403D01*
X189002503Y-85857884D01*
X189066012Y-85759493D01*
X189115114Y-85691751D01*
X189155399Y-85649177D01*
X189192457Y-85626291D01*
X189231878Y-85617613D01*
X189279251Y-85617663D01*
G37*
G36*
X185832705Y-85778702D02*
G01*
X185822968Y-85830927D01*
X185805398Y-85921891D01*
X185781787Y-86042442D01*
X185753928Y-86183430D01*
X185723614Y-86335705D01*
X185721449Y-86346538D01*
X185685824Y-86526007D01*
X185647369Y-86721969D01*
X185607183Y-86928618D01*
X185566367Y-87140146D01*
X185526021Y-87350743D01*
X185487245Y-87554604D01*
X185451139Y-87745919D01*
X185418803Y-87918882D01*
X185391337Y-88067683D01*
X185369842Y-88186516D01*
X185355417Y-88269572D01*
X185349163Y-88311044D01*
X185349035Y-88312596D01*
X185349703Y-88327450D01*
X185357544Y-88339021D01*
X185378073Y-88347797D01*
X185416806Y-88354263D01*
X185479256Y-88358907D01*
X185570938Y-88362215D01*
X185697368Y-88364675D01*
X185864058Y-88366773D01*
X185976273Y-88367963D01*
X186168128Y-88370147D01*
X186316507Y-88372528D01*
X186426778Y-88375529D01*
X186504310Y-88379575D01*
X186554474Y-88385091D01*
X186582637Y-88392501D01*
X186594170Y-88402231D01*
X186594441Y-88414704D01*
X186593851Y-88416809D01*
X186586260Y-88450503D01*
X186571880Y-88521477D01*
X186552549Y-88620033D01*
X186530103Y-88736476D01*
X186506380Y-88861110D01*
X186483216Y-88984240D01*
X186462450Y-89096168D01*
X186445917Y-89187199D01*
X186435456Y-89247637D01*
X186432692Y-89267370D01*
X186409082Y-89269417D01*
X186341499Y-89271322D01*
X186234819Y-89273041D01*
X186093916Y-89274529D01*
X185923664Y-89275743D01*
X185728938Y-89276639D01*
X185514611Y-89277172D01*
X185333654Y-89277307D01*
X185107233Y-89276925D01*
X184896541Y-89275831D01*
X184706453Y-89274104D01*
X184541842Y-89271823D01*
X184407582Y-89269066D01*
X184308549Y-89265914D01*
X184249615Y-89262444D01*
X184234615Y-89259514D01*
X184239162Y-89231640D01*
X184251960Y-89162454D01*
X184254259Y-89150383D01*
X184351817Y-89150383D01*
X184351895Y-89166639D01*
X184378352Y-89169463D01*
X184448412Y-89172076D01*
X184556831Y-89174409D01*
X184698366Y-89176393D01*
X184867774Y-89177961D01*
X185059811Y-89179044D01*
X185269233Y-89179573D01*
X185348494Y-89179615D01*
X185617096Y-89179164D01*
X185839424Y-89177763D01*
X186018044Y-89175342D01*
X186155521Y-89171829D01*
X186254418Y-89167151D01*
X186317302Y-89161240D01*
X186346737Y-89154021D01*
X186349318Y-89151784D01*
X186359833Y-89119368D01*
X186376946Y-89050593D01*
X186398208Y-88957098D01*
X186421166Y-88850523D01*
X186443372Y-88742510D01*
X186462376Y-88644698D01*
X186475727Y-88568728D01*
X186480973Y-88526298D01*
X186470376Y-88516515D01*
X186435227Y-88508907D01*
X186371093Y-88503258D01*
X186273545Y-88499350D01*
X186138152Y-88496965D01*
X185960483Y-88495886D01*
X185858750Y-88495769D01*
X185663611Y-88496357D01*
X185512259Y-88496571D01*
X185399675Y-88494081D01*
X185320838Y-88486561D01*
X185270730Y-88471683D01*
X185244329Y-88447119D01*
X185236617Y-88410540D01*
X185242574Y-88359621D01*
X185257179Y-88292031D01*
X185271871Y-88223622D01*
X185304451Y-88059358D01*
X185341045Y-87872705D01*
X185380640Y-87669016D01*
X185422221Y-87453645D01*
X185464776Y-87231944D01*
X185507291Y-87009266D01*
X185548751Y-86790965D01*
X185588145Y-86582395D01*
X185624457Y-86388907D01*
X185656676Y-86215856D01*
X185683786Y-86068595D01*
X185704774Y-85952476D01*
X185718628Y-85872854D01*
X185724332Y-85835081D01*
X185724423Y-85833437D01*
X185721966Y-85814693D01*
X185709743Y-85801503D01*
X185680476Y-85792895D01*
X185626887Y-85787897D01*
X185541697Y-85785535D01*
X185417629Y-85784838D01*
X185360513Y-85784807D01*
X184996603Y-85784807D01*
X184970367Y-85900817D01*
X184951688Y-85990408D01*
X184931023Y-86099824D01*
X184917856Y-86175577D01*
X184906042Y-86242409D01*
X184885732Y-86352064D01*
X184857912Y-86499446D01*
X184823567Y-86679459D01*
X184783682Y-86887009D01*
X184739245Y-87117000D01*
X184691239Y-87364338D01*
X184640652Y-87623927D01*
X184588468Y-87890672D01*
X184535673Y-88159479D01*
X184483254Y-88425251D01*
X184456153Y-88562167D01*
X184424362Y-88725611D01*
X184396889Y-88872788D01*
X184374878Y-88997065D01*
X184359472Y-89091808D01*
X184351817Y-89150383D01*
X184254259Y-89150383D01*
X184271744Y-89058555D01*
X184297247Y-88926541D01*
X184327206Y-88773012D01*
X184355209Y-88630620D01*
X184388604Y-88460741D01*
X184429180Y-88253275D01*
X184474916Y-88018607D01*
X184523796Y-87767121D01*
X184573799Y-87509202D01*
X184622908Y-87255235D01*
X184661556Y-87054807D01*
X184703875Y-86835039D01*
X184744805Y-86622515D01*
X184783080Y-86423807D01*
X184817433Y-86245487D01*
X184846598Y-86094128D01*
X184869310Y-85976301D01*
X184884302Y-85898579D01*
X184886228Y-85888605D01*
X184925146Y-85687115D01*
X185386949Y-85687115D01*
X185848752Y-85687115D01*
X185832705Y-85778702D01*
G37*
G36*
X183107743Y-85682895D02*
G01*
X183349797Y-85764957D01*
X183404019Y-85790662D01*
X183540591Y-85874570D01*
X183681895Y-85987491D01*
X183814550Y-86116721D01*
X183925174Y-86249551D01*
X183984593Y-86341972D01*
X184064283Y-86488206D01*
X183838055Y-86683136D01*
X183738274Y-86769184D01*
X183640934Y-86853250D01*
X183558168Y-86924849D01*
X183508342Y-86968072D01*
X183447971Y-87014806D01*
X183400369Y-87041308D01*
X183381090Y-87043388D01*
X183356082Y-87017217D01*
X183312681Y-86962205D01*
X183259969Y-86889899D01*
X183256309Y-86884695D01*
X183123566Y-86730305D01*
X182975276Y-86621632D01*
X182813783Y-86559286D01*
X182641428Y-86543880D01*
X182460555Y-86576024D01*
X182309248Y-86637421D01*
X182115354Y-86758525D01*
X181957093Y-86909220D01*
X181831108Y-87093495D01*
X181734039Y-87315337D01*
X181731025Y-87324121D01*
X181681847Y-87524632D01*
X181669440Y-87720857D01*
X181691993Y-87906109D01*
X181747693Y-88073700D01*
X181834728Y-88216943D01*
X181951286Y-88329152D01*
X182014037Y-88368356D01*
X182075483Y-88397447D01*
X182134715Y-88413854D01*
X182207897Y-88420129D01*
X182311195Y-88418822D01*
X182329615Y-88418155D01*
X182466790Y-88405603D01*
X182591019Y-88375920D01*
X182713784Y-88324302D01*
X182846569Y-88245941D01*
X182997248Y-88138750D01*
X183076071Y-88080450D01*
X183139481Y-88035416D01*
X183177965Y-88010319D01*
X183184669Y-88007307D01*
X183199001Y-88027884D01*
X183230258Y-88083921D01*
X183274151Y-88166879D01*
X183326394Y-88268217D01*
X183382699Y-88379398D01*
X183438777Y-88491879D01*
X183490343Y-88597123D01*
X183533107Y-88686590D01*
X183562783Y-88751739D01*
X183575083Y-88784031D01*
X183575192Y-88785122D01*
X183555648Y-88811061D01*
X183503017Y-88855629D01*
X183426307Y-88912672D01*
X183334523Y-88976035D01*
X183236671Y-89039563D01*
X183141756Y-89097102D01*
X183058784Y-89142496D01*
X183036311Y-89153413D01*
X182883914Y-89217934D01*
X182739266Y-89263458D01*
X182587214Y-89293207D01*
X182412607Y-89310403D01*
X182268558Y-89316706D01*
X182094097Y-89318597D01*
X181960574Y-89312842D01*
X181860617Y-89299012D01*
X181828942Y-89291282D01*
X181565681Y-89195754D01*
X181338485Y-89067381D01*
X181146839Y-88905685D01*
X180990228Y-88710192D01*
X180868136Y-88480423D01*
X180822865Y-88361442D01*
X180797086Y-88281432D01*
X180778963Y-88211113D01*
X180767141Y-88138874D01*
X180760266Y-88053105D01*
X180756985Y-87942197D01*
X180756032Y-87807245D01*
X180821637Y-87807245D01*
X180842483Y-88059059D01*
X180897621Y-88296667D01*
X180985916Y-88516045D01*
X181106230Y-88713171D01*
X181257428Y-88884021D01*
X181438373Y-89024572D01*
X181647928Y-89130801D01*
X181793080Y-89178019D01*
X181998212Y-89214948D01*
X182225122Y-89227602D01*
X182453176Y-89215934D01*
X182661526Y-89179951D01*
X182827358Y-89127853D01*
X183000072Y-89055639D01*
X183163780Y-88971091D01*
X183302596Y-88881986D01*
X183355385Y-88840173D01*
X183465288Y-88745092D01*
X183319562Y-88449469D01*
X183263871Y-88340927D01*
X183213210Y-88250305D01*
X183172420Y-88185696D01*
X183146345Y-88155194D01*
X183142706Y-88153846D01*
X183107352Y-88167796D01*
X183048917Y-88203770D01*
X183000831Y-88238380D01*
X182862776Y-88329017D01*
X182704750Y-88409349D01*
X182546331Y-88470329D01*
X182438982Y-88497935D01*
X182257644Y-88507313D01*
X182079781Y-88470513D01*
X181951612Y-88411534D01*
X181809889Y-88300854D01*
X181700852Y-88158662D01*
X181625569Y-87990681D01*
X181585111Y-87802635D01*
X181580548Y-87600248D01*
X181612950Y-87389242D01*
X181683386Y-87175340D01*
X181709551Y-87116805D01*
X181791054Y-86979908D01*
X181902477Y-86841077D01*
X182030986Y-86713612D01*
X182163749Y-86610812D01*
X182240857Y-86566137D01*
X182446406Y-86485656D01*
X182640030Y-86452538D01*
X182821882Y-86466815D01*
X182992111Y-86528518D01*
X183150868Y-86637682D01*
X183296796Y-86792420D01*
X183355783Y-86864463D01*
X183394990Y-86902868D01*
X183422973Y-86913784D01*
X183448288Y-86903359D01*
X183449725Y-86902324D01*
X183498874Y-86863890D01*
X183568012Y-86806608D01*
X183648901Y-86737697D01*
X183733303Y-86664377D01*
X183812980Y-86593866D01*
X183879694Y-86533384D01*
X183925208Y-86490148D01*
X183941309Y-86471542D01*
X183924843Y-86423025D01*
X183881371Y-86349843D01*
X183818291Y-86262010D01*
X183742997Y-86169538D01*
X183662886Y-86082440D01*
X183630434Y-86050673D01*
X183497183Y-85935087D01*
X183372975Y-85852964D01*
X183241529Y-85795999D01*
X183086564Y-85755885D01*
X183033039Y-85745892D01*
X182815251Y-85727191D01*
X182578743Y-85740499D01*
X182339636Y-85783594D01*
X182114053Y-85854252D01*
X182048750Y-85881691D01*
X181794859Y-86019683D01*
X181558616Y-86194562D01*
X181348704Y-86398455D01*
X181173807Y-86623490D01*
X181103911Y-86738384D01*
X180976221Y-87006794D01*
X180887370Y-87277089D01*
X180836221Y-87545247D01*
X180821637Y-87807245D01*
X180756032Y-87807245D01*
X180755942Y-87794537D01*
X180755928Y-87787500D01*
X180759584Y-87578420D01*
X180773725Y-87402875D01*
X180801739Y-87246072D01*
X180847016Y-87093217D01*
X180912943Y-86929518D01*
X180989819Y-86766600D01*
X181140172Y-86514110D01*
X181328762Y-86283520D01*
X181548912Y-86080280D01*
X181793947Y-85909839D01*
X182057194Y-85777647D01*
X182299968Y-85696942D01*
X182577307Y-85648419D01*
X182848406Y-85643893D01*
X183107743Y-85682895D01*
G37*
G36*
X193192032Y-85681305D02*
G01*
X193430058Y-85758122D01*
X193649070Y-85874666D01*
X193813893Y-86002668D01*
X193886402Y-86076299D01*
X193961863Y-86165030D01*
X194033056Y-86258779D01*
X194092762Y-86347461D01*
X194133759Y-86420995D01*
X194148828Y-86469297D01*
X194148799Y-86470356D01*
X194130498Y-86500206D01*
X194082491Y-86552423D01*
X194012969Y-86618551D01*
X193961234Y-86664038D01*
X193862584Y-86748779D01*
X193760148Y-86837642D01*
X193671233Y-86915588D01*
X193645061Y-86938798D01*
X193578465Y-86995939D01*
X193525479Y-87037365D01*
X193496853Y-87054710D01*
X193495969Y-87054807D01*
X193472050Y-87035882D01*
X193438656Y-86989635D01*
X193434553Y-86982831D01*
X193355687Y-86871850D01*
X193255243Y-86762673D01*
X193146786Y-86668190D01*
X193043886Y-86601294D01*
X193022227Y-86591077D01*
X192862801Y-86547906D01*
X192695346Y-86548154D01*
X192525684Y-86588396D01*
X192359637Y-86665212D01*
X192203029Y-86775178D01*
X192061681Y-86914872D01*
X191941416Y-87080871D01*
X191848057Y-87269752D01*
X191842346Y-87284628D01*
X191809710Y-87383431D01*
X191790833Y-87477729D01*
X191782549Y-87587708D01*
X191781346Y-87673803D01*
X191789020Y-87848392D01*
X191814508Y-87988218D01*
X191861506Y-88105279D01*
X191933710Y-88211574D01*
X191954590Y-88236123D01*
X192052976Y-88328414D01*
X192160971Y-88386829D01*
X192289861Y-88415454D01*
X192450935Y-88418372D01*
X192457373Y-88418054D01*
X192588719Y-88403457D01*
X192710568Y-88370780D01*
X192833910Y-88315243D01*
X192969737Y-88232067D01*
X193099744Y-88138679D01*
X193179045Y-88080519D01*
X193243590Y-88035965D01*
X193283628Y-88011626D01*
X193291082Y-88009032D01*
X193306248Y-88030230D01*
X193338004Y-88086929D01*
X193382052Y-88170475D01*
X193434097Y-88272216D01*
X193489843Y-88383495D01*
X193544993Y-88495659D01*
X193595251Y-88600055D01*
X193636321Y-88688026D01*
X193663908Y-88750921D01*
X193673720Y-88779820D01*
X193654537Y-88806776D01*
X193602925Y-88852678D01*
X193528072Y-88910902D01*
X193439165Y-88974823D01*
X193345393Y-89037814D01*
X193255945Y-89093250D01*
X193185673Y-89131734D01*
X193013735Y-89207754D01*
X192845256Y-89261007D01*
X192664922Y-89295004D01*
X192457420Y-89313253D01*
X192379711Y-89316439D01*
X192232727Y-89319554D01*
X192120328Y-89317433D01*
X192028431Y-89308992D01*
X191942952Y-89293144D01*
X191883693Y-89278232D01*
X191693085Y-89214160D01*
X191527009Y-89128365D01*
X191368502Y-89011211D01*
X191290416Y-88941283D01*
X191127563Y-88755463D01*
X191000838Y-88540670D01*
X190910795Y-88301404D01*
X190857989Y-88042165D01*
X190850923Y-87912888D01*
X190932068Y-87912888D01*
X190948604Y-88093466D01*
X190986332Y-88259948D01*
X191048346Y-88428530D01*
X191089834Y-88519517D01*
X191212907Y-88720634D01*
X191374270Y-88894798D01*
X191569220Y-89038238D01*
X191793054Y-89147184D01*
X191927885Y-89191342D01*
X192058552Y-89214588D01*
X192221158Y-89224380D01*
X192400897Y-89221443D01*
X192582963Y-89206498D01*
X192752551Y-89180269D01*
X192892596Y-89144240D01*
X193000889Y-89104623D01*
X193106688Y-89060288D01*
X193189300Y-89019985D01*
X193197885Y-89015135D01*
X193288860Y-88959027D01*
X193379873Y-88897282D01*
X193461608Y-88836928D01*
X193524745Y-88784992D01*
X193559968Y-88748502D01*
X193564231Y-88738822D01*
X193553214Y-88702339D01*
X193523784Y-88635247D01*
X193481365Y-88547833D01*
X193431387Y-88450385D01*
X193379275Y-88353190D01*
X193330457Y-88266535D01*
X193290360Y-88200707D01*
X193264410Y-88165993D01*
X193260621Y-88163322D01*
X193224254Y-88169800D01*
X193164001Y-88199696D01*
X193107064Y-88236721D01*
X193025095Y-88289790D01*
X192919381Y-88350375D01*
X192810965Y-88406498D01*
X192796736Y-88413333D01*
X192691671Y-88460306D01*
X192609000Y-88487806D01*
X192528819Y-88500792D01*
X192432031Y-88504223D01*
X192241913Y-88482193D01*
X192071253Y-88416983D01*
X191924919Y-88311721D01*
X191807778Y-88169533D01*
X191753783Y-88068365D01*
X191715954Y-87947107D01*
X191692927Y-87796548D01*
X191685960Y-87634317D01*
X191696310Y-87478044D01*
X191707078Y-87413753D01*
X191776929Y-87193460D01*
X191889042Y-86987402D01*
X192037243Y-86803509D01*
X192215356Y-86649710D01*
X192377786Y-86552408D01*
X192478312Y-86504989D01*
X192555529Y-86476481D01*
X192628857Y-86462133D01*
X192717718Y-86457190D01*
X192768556Y-86456767D01*
X192875746Y-86458913D01*
X192952903Y-86468492D01*
X193018721Y-86489584D01*
X193091899Y-86526269D01*
X193095024Y-86527997D01*
X193241557Y-86631662D01*
X193383562Y-86775440D01*
X193457901Y-86870521D01*
X193509847Y-86942678D01*
X193714106Y-86769174D01*
X193805682Y-86690891D01*
X193890503Y-86617501D01*
X193957227Y-86558866D01*
X193986987Y-86531977D01*
X194055609Y-86468282D01*
X193999199Y-86364670D01*
X193935886Y-86271145D01*
X193844006Y-86163660D01*
X193735775Y-86054131D01*
X193623415Y-85954476D01*
X193519143Y-85876613D01*
X193467923Y-85846506D01*
X193280025Y-85775054D01*
X193066670Y-85734806D01*
X192841599Y-85727823D01*
X192735828Y-85736601D01*
X192526081Y-85768010D01*
X192351059Y-85808518D01*
X192196938Y-85861838D01*
X192093359Y-85909138D01*
X191815453Y-86074514D01*
X191571570Y-86273569D01*
X191363802Y-86503070D01*
X191194240Y-86759785D01*
X191064975Y-87040479D01*
X190978100Y-87341920D01*
X190935704Y-87660874D01*
X190933628Y-87702019D01*
X190932068Y-87912888D01*
X190850923Y-87912888D01*
X190842974Y-87767456D01*
X190866306Y-87481777D01*
X190928540Y-87189628D01*
X191030230Y-86895510D01*
X191036412Y-86880710D01*
X191175792Y-86612128D01*
X191357532Y-86365137D01*
X191578715Y-86143005D01*
X191836422Y-85948997D01*
X191909674Y-85903189D01*
X192160063Y-85777056D01*
X192419007Y-85692089D01*
X192680992Y-85648000D01*
X192940505Y-85644502D01*
X193192032Y-85681305D01*
G37*
G36*
X195925385Y-85778702D02*
G01*
X195913997Y-85847824D01*
X195896413Y-85950191D01*
X195874660Y-86074453D01*
X195850760Y-86209262D01*
X195826740Y-86343268D01*
X195804624Y-86465122D01*
X195786438Y-86563477D01*
X195774206Y-86626982D01*
X195772861Y-86633509D01*
X195767445Y-86692318D01*
X195782069Y-86712884D01*
X195803837Y-86694406D01*
X195850797Y-86642579D01*
X195918418Y-86562812D01*
X196002167Y-86460517D01*
X196097509Y-86341102D01*
X196155528Y-86267163D01*
X196258448Y-86135691D01*
X196354767Y-86013589D01*
X196439290Y-85907370D01*
X196506821Y-85823548D01*
X196552163Y-85768636D01*
X196564687Y-85754278D01*
X196626254Y-85687115D01*
X197158992Y-85687115D01*
X197314381Y-85687919D01*
X197451914Y-85690170D01*
X197564592Y-85693626D01*
X197645412Y-85698044D01*
X197687376Y-85703183D01*
X197691731Y-85705535D01*
X197677427Y-85732097D01*
X197639567Y-85785687D01*
X197585729Y-85855695D01*
X197573986Y-85870391D01*
X197516020Y-85942850D01*
X197436789Y-86042398D01*
X197345255Y-86157752D01*
X197250378Y-86277629D01*
X197215238Y-86322115D01*
X197031535Y-86554702D01*
X196864500Y-86765952D01*
X196716742Y-86952571D01*
X196590873Y-87111266D01*
X196489502Y-87238744D01*
X196415239Y-87331712D01*
X196404906Y-87344584D01*
X196352154Y-87412816D01*
X196314378Y-87466608D01*
X196299620Y-87494497D01*
X196299615Y-87494693D01*
X196309256Y-87524393D01*
X196334863Y-87586350D01*
X196371464Y-87668693D01*
X196382817Y-87693378D01*
X196422654Y-87780196D01*
X196476443Y-87898578D01*
X196538276Y-88035462D01*
X196602242Y-88177785D01*
X196629792Y-88239327D01*
X196700276Y-88396506D01*
X196778426Y-88569985D01*
X196855734Y-88740926D01*
X196923694Y-88890491D01*
X196937360Y-88920436D01*
X196989048Y-89034996D01*
X197032493Y-89133982D01*
X197064018Y-89208806D01*
X197079945Y-89250880D01*
X197081154Y-89256254D01*
X197057949Y-89262644D01*
X196993200Y-89268254D01*
X196894209Y-89272770D01*
X196768276Y-89275878D01*
X196622703Y-89277264D01*
X196591319Y-89277307D01*
X196101484Y-89277307D01*
X196050845Y-89161298D01*
X196019604Y-89090306D01*
X195975014Y-88989721D01*
X195923723Y-88874515D01*
X195885451Y-88788846D01*
X195824459Y-88652488D01*
X195756499Y-88500453D01*
X195692295Y-88356738D01*
X195664408Y-88294278D01*
X195618417Y-88196838D01*
X195576770Y-88118677D01*
X195544710Y-88069066D01*
X195529751Y-88056153D01*
X195512104Y-88077472D01*
X195488873Y-88142100D01*
X195459813Y-88251042D01*
X195424679Y-88405303D01*
X195383226Y-88605891D01*
X195335211Y-88853811D01*
X195333643Y-88862115D01*
X195309880Y-88986340D01*
X195288353Y-89095745D01*
X195271117Y-89180091D01*
X195260233Y-89229138D01*
X195258781Y-89234567D01*
X195250366Y-89249708D01*
X195230961Y-89260812D01*
X195193909Y-89268493D01*
X195132553Y-89273366D01*
X195040236Y-89276046D01*
X194910300Y-89277147D01*
X194795950Y-89277307D01*
X194653745Y-89276281D01*
X194530009Y-89273427D01*
X194432358Y-89269083D01*
X194368407Y-89263587D01*
X194345769Y-89257351D01*
X194350260Y-89226187D01*
X194363024Y-89152704D01*
X194370445Y-89111772D01*
X194452342Y-89111772D01*
X194454764Y-89153445D01*
X194455775Y-89155357D01*
X194487467Y-89166053D01*
X194565079Y-89172782D01*
X194685831Y-89175404D01*
X194828300Y-89174152D01*
X195185038Y-89167403D01*
X195262474Y-88788846D01*
X195297078Y-88617717D01*
X195335571Y-88424197D01*
X195373479Y-88230942D01*
X195406331Y-88060605D01*
X195409139Y-88045844D01*
X195478369Y-87681400D01*
X195524076Y-87789402D01*
X195553407Y-87856407D01*
X195597051Y-87953308D01*
X195648520Y-88065799D01*
X195689314Y-88153846D01*
X195742827Y-88269370D01*
X195809296Y-88413941D01*
X195881623Y-88572064D01*
X195952711Y-88728245D01*
X195980179Y-88788846D01*
X196151515Y-89167403D01*
X196543065Y-89174114D01*
X196703227Y-89175695D01*
X196818421Y-89173997D01*
X196892429Y-89168816D01*
X196929032Y-89159946D01*
X196934615Y-89152907D01*
X196924469Y-89123082D01*
X196895043Y-89052419D01*
X196847850Y-88944276D01*
X196784408Y-88802014D01*
X196706232Y-88628991D01*
X196614837Y-88428567D01*
X196511739Y-88204101D01*
X196398455Y-87958952D01*
X196308684Y-87765615D01*
X196264214Y-87667902D01*
X196228814Y-87586078D01*
X196206891Y-87530570D01*
X196201923Y-87512898D01*
X196216411Y-87487736D01*
X196256988Y-87430169D01*
X196319317Y-87346008D01*
X196399066Y-87241064D01*
X196491901Y-87121148D01*
X196537740Y-87062642D01*
X196642472Y-86929236D01*
X196743293Y-86800389D01*
X196834071Y-86683968D01*
X196908676Y-86587843D01*
X196960974Y-86519881D01*
X196971250Y-86506356D01*
X197023643Y-86437997D01*
X197097315Y-86343157D01*
X197183113Y-86233565D01*
X197271883Y-86120947D01*
X197286178Y-86102891D01*
X197374131Y-85989894D01*
X197433139Y-85908738D01*
X197466312Y-85854403D01*
X197476757Y-85821872D01*
X197469351Y-85807124D01*
X197434095Y-85799653D01*
X197359304Y-85793255D01*
X197254284Y-85788423D01*
X197128342Y-85785649D01*
X197055194Y-85785181D01*
X196675100Y-85784807D01*
X196613520Y-85851971D01*
X196582614Y-85888827D01*
X196526655Y-85958736D01*
X196450186Y-86055894D01*
X196357751Y-86174496D01*
X196253894Y-86308737D01*
X196143159Y-86452812D01*
X196140378Y-86456442D01*
X195994726Y-86646241D01*
X195876009Y-86800048D01*
X195781773Y-86920887D01*
X195709565Y-87011781D01*
X195656930Y-87075754D01*
X195621417Y-87115831D01*
X195600570Y-87135036D01*
X195591937Y-87136391D01*
X195591346Y-87133106D01*
X195595840Y-87102901D01*
X195608222Y-87033658D01*
X195626846Y-86934245D01*
X195650065Y-86813530D01*
X195662954Y-86747592D01*
X195710708Y-86503190D01*
X195749214Y-86302769D01*
X195779127Y-86142480D01*
X195801104Y-86018474D01*
X195815800Y-85926899D01*
X195823871Y-85863908D01*
X195825974Y-85825650D01*
X195822971Y-85808593D01*
X195792682Y-85797695D01*
X195724598Y-85789998D01*
X195629658Y-85785399D01*
X195518803Y-85783794D01*
X195402972Y-85785079D01*
X195293105Y-85789152D01*
X195200141Y-85795908D01*
X195135019Y-85805246D01*
X195109565Y-85815336D01*
X195098054Y-85847778D01*
X195079716Y-85920564D01*
X195056262Y-86025943D01*
X195029400Y-86156165D01*
X195000842Y-86303478D01*
X194995073Y-86334327D01*
X194963791Y-86500526D01*
X194925481Y-86700676D01*
X194882847Y-86920858D01*
X194838590Y-87147157D01*
X194795413Y-87365654D01*
X194772154Y-87482211D01*
X194732098Y-87683827D01*
X194690630Y-87895644D01*
X194650146Y-88105194D01*
X194613047Y-88300005D01*
X194581729Y-88467609D01*
X194565470Y-88556827D01*
X194539226Y-88699421D01*
X194513896Y-88830550D01*
X194491474Y-88940366D01*
X194473953Y-89019021D01*
X194465464Y-89050916D01*
X194452342Y-89111772D01*
X194370445Y-89111772D01*
X194382999Y-89042527D01*
X194409124Y-88901283D01*
X194440338Y-88734598D01*
X194475578Y-88548099D01*
X194513783Y-88347411D01*
X194553891Y-88138162D01*
X194594841Y-87925976D01*
X194635570Y-87716482D01*
X194662309Y-87579903D01*
X194704110Y-87366738D01*
X194751119Y-87126479D01*
X194799847Y-86876980D01*
X194846811Y-86636094D01*
X194888522Y-86421674D01*
X194895998Y-86383173D01*
X194928251Y-86217399D01*
X194957997Y-86065248D01*
X194983792Y-85934049D01*
X195004191Y-85831131D01*
X195017750Y-85763825D01*
X195022342Y-85742067D01*
X195028023Y-85722784D01*
X195039439Y-85708639D01*
X195063326Y-85698836D01*
X195106420Y-85692580D01*
X195175457Y-85689074D01*
X195277174Y-85687521D01*
X195418306Y-85687127D01*
X195487306Y-85687115D01*
X195939701Y-85687115D01*
X195925385Y-85778702D01*
G37*
D11*
%TO.C,REF\u002A\u002A*%
X181609839Y-68973654D02*
X182597677Y-68974024D01*
X182106196Y-69260000D02*
X186870000Y-69260000D01*
X182674311Y-70816813D02*
X181609839Y-68973654D01*
X184488098Y-73385575D02*
X182106196Y-69260000D01*
X184490114Y-73975112D02*
X183996541Y-73119419D01*
X185231256Y-68986614D02*
X187359715Y-68986314D01*
X185554084Y-72131662D02*
X184490114Y-73975112D01*
X186870000Y-69260000D02*
X184488098Y-73385575D01*
X187359715Y-68986314D02*
X186865449Y-69841607D01*
%TD*%
%LPC*%
D12*
%TO.C,J1*%
X201800000Y-71750000D03*
D13*
X201800000Y-69210000D03*
%TD*%
D14*
%TO.C,REF\u002A\u002A*%
X192050000Y-68890000D03*
X192050000Y-105890000D03*
%TD*%
D12*
%TO.C,J3*%
X201800000Y-105450000D03*
D13*
X201800000Y-102910000D03*
X201800000Y-100370000D03*
%TD*%
%LPD*%
M02*
