%TF.GenerationSoftware,KiCad,Pcbnew,8.0.2*%
%TF.CreationDate,2024-06-01T22:35:26-05:00*%
%TF.ProjectId,VIK-Solenoid,56494b2d-536f-46c6-956e-6f69642e6b69,rev?*%
%TF.SameCoordinates,Original*%
%TF.FileFunction,Legend,Bot*%
%TF.FilePolarity,Positive*%
%FSLAX46Y46*%
G04 Gerber Fmt 4.6, Leading zero omitted, Abs format (unit mm)*
G04 Created by KiCad (PCBNEW 8.0.2) date 2024-06-01 22:35:26*
%MOMM*%
%LPD*%
G01*
G04 APERTURE LIST*
G04 Aperture macros list*
%AMRoundRect*
0 Rectangle with rounded corners*
0 $1 Rounding radius*
0 $2 $3 $4 $5 $6 $7 $8 $9 X,Y pos of 4 corners*
0 Add a 4 corners polygon primitive as box body*
4,1,4,$2,$3,$4,$5,$6,$7,$8,$9,$2,$3,0*
0 Add four circle primitives for the rounded corners*
1,1,$1+$1,$2,$3*
1,1,$1+$1,$4,$5*
1,1,$1+$1,$6,$7*
1,1,$1+$1,$8,$9*
0 Add four rect primitives between the rounded corners*
20,1,$1+$1,$2,$3,$4,$5,0*
20,1,$1+$1,$4,$5,$6,$7,0*
20,1,$1+$1,$6,$7,$8,$9,0*
20,1,$1+$1,$8,$9,$2,$3,0*%
G04 Aperture macros list end*
%ADD10C,0.150000*%
%ADD11C,0.254000*%
%ADD12C,0.120000*%
%ADD13R,1.700000X1.700000*%
%ADD14O,1.700000X1.700000*%
%ADD15C,3.800000*%
%ADD16R,0.650000X0.300000*%
%ADD17R,1.150000X0.300000*%
%ADD18RoundRect,0.250000X0.625000X-0.312500X0.625000X0.312500X-0.625000X0.312500X-0.625000X-0.312500X0*%
%ADD19RoundRect,0.250000X0.300000X-0.300000X0.300000X0.300000X-0.300000X0.300000X-0.300000X-0.300000X0*%
%ADD20RoundRect,0.250000X-0.350000X0.850000X-0.350000X-0.850000X0.350000X-0.850000X0.350000X0.850000X0*%
%ADD21RoundRect,0.249997X-2.650003X2.950003X-2.650003X-2.950003X2.650003X-2.950003X2.650003X2.950003X0*%
G04 APERTURE END LIST*
D10*
X196250414Y-90485826D02*
X196250414Y-90950112D01*
X196250414Y-90950112D02*
X196536128Y-90700112D01*
X196536128Y-90700112D02*
X196536128Y-90807255D01*
X196536128Y-90807255D02*
X196571842Y-90878684D01*
X196571842Y-90878684D02*
X196607557Y-90914398D01*
X196607557Y-90914398D02*
X196678985Y-90950112D01*
X196678985Y-90950112D02*
X196857557Y-90950112D01*
X196857557Y-90950112D02*
X196928985Y-90914398D01*
X196928985Y-90914398D02*
X196964700Y-90878684D01*
X196964700Y-90878684D02*
X197000414Y-90807255D01*
X197000414Y-90807255D02*
X197000414Y-90592969D01*
X197000414Y-90592969D02*
X196964700Y-90521541D01*
X196964700Y-90521541D02*
X196928985Y-90485826D01*
X196500414Y-91200112D02*
X197000414Y-91378684D01*
X197000414Y-91378684D02*
X196500414Y-91557255D01*
X196250414Y-91771541D02*
X196250414Y-92235827D01*
X196250414Y-92235827D02*
X196536128Y-91985827D01*
X196536128Y-91985827D02*
X196536128Y-92092970D01*
X196536128Y-92092970D02*
X196571842Y-92164399D01*
X196571842Y-92164399D02*
X196607557Y-92200113D01*
X196607557Y-92200113D02*
X196678985Y-92235827D01*
X196678985Y-92235827D02*
X196857557Y-92235827D01*
X196857557Y-92235827D02*
X196928985Y-92200113D01*
X196928985Y-92200113D02*
X196964700Y-92164399D01*
X196964700Y-92164399D02*
X197000414Y-92092970D01*
X197000414Y-92092970D02*
X197000414Y-91878684D01*
X197000414Y-91878684D02*
X196964700Y-91807256D01*
X196964700Y-91807256D02*
X196928985Y-91771541D01*
G36*
X195885819Y-89365746D02*
G01*
X194513891Y-89365746D01*
X194513891Y-88613446D01*
X194625002Y-88613446D01*
X194626260Y-88618058D01*
X194626260Y-88622839D01*
X194630077Y-88632054D01*
X194632702Y-88641678D01*
X194635629Y-88645458D01*
X194637459Y-88649875D01*
X194644509Y-88656925D01*
X194650619Y-88664815D01*
X194656751Y-88669167D01*
X194658151Y-88670567D01*
X194659525Y-88671136D01*
X194662609Y-88673325D01*
X195420267Y-89105032D01*
X194685187Y-89106076D01*
X194658151Y-89117275D01*
X194637459Y-89137967D01*
X194626260Y-89165003D01*
X194626260Y-89194267D01*
X194637459Y-89221303D01*
X194658151Y-89241995D01*
X194685187Y-89253194D01*
X194699819Y-89254635D01*
X195695374Y-89253221D01*
X195705058Y-89254452D01*
X195709645Y-89253200D01*
X195714451Y-89253194D01*
X195723666Y-89249376D01*
X195733290Y-89246752D01*
X195737070Y-89243824D01*
X195741487Y-89241995D01*
X195748537Y-89234944D01*
X195756427Y-89228835D01*
X195758800Y-89224681D01*
X195762179Y-89221303D01*
X195765995Y-89212090D01*
X195770946Y-89203426D01*
X195771548Y-89198682D01*
X195773378Y-89194267D01*
X195773378Y-89184292D01*
X195774636Y-89174396D01*
X195773378Y-89169783D01*
X195773378Y-89165003D01*
X195769560Y-89155786D01*
X195766936Y-89146165D01*
X195764009Y-89142385D01*
X195762179Y-89137967D01*
X195755127Y-89130915D01*
X195749019Y-89123027D01*
X195742884Y-89118672D01*
X195741487Y-89117275D01*
X195740114Y-89116706D01*
X195737030Y-89114517D01*
X194979370Y-88682809D01*
X195714451Y-88681766D01*
X195741487Y-88670567D01*
X195762179Y-88649875D01*
X195773378Y-88622839D01*
X195773378Y-88593575D01*
X195762179Y-88566539D01*
X195741487Y-88545847D01*
X195714451Y-88534648D01*
X195699819Y-88533207D01*
X194704263Y-88534620D01*
X194694580Y-88533390D01*
X194689992Y-88534641D01*
X194685187Y-88534648D01*
X194675971Y-88538465D01*
X194666348Y-88541090D01*
X194662567Y-88544017D01*
X194658151Y-88545847D01*
X194651100Y-88552897D01*
X194643211Y-88559007D01*
X194640837Y-88563160D01*
X194637459Y-88566539D01*
X194633642Y-88575751D01*
X194628692Y-88584416D01*
X194628089Y-88589159D01*
X194626260Y-88593575D01*
X194626260Y-88603549D01*
X194625002Y-88613446D01*
X194513891Y-88613446D01*
X194513891Y-88117385D01*
X194626260Y-88117385D01*
X194626260Y-88146649D01*
X194637459Y-88173685D01*
X194658151Y-88194377D01*
X194685187Y-88205576D01*
X194699819Y-88207017D01*
X195714451Y-88205576D01*
X195741487Y-88194377D01*
X195762179Y-88173685D01*
X195773378Y-88146649D01*
X195773378Y-88117385D01*
X195762179Y-88090349D01*
X195741487Y-88069657D01*
X195714451Y-88058458D01*
X195699819Y-88057017D01*
X194685187Y-88058458D01*
X194658151Y-88069657D01*
X194637459Y-88090349D01*
X194626260Y-88117385D01*
X194513891Y-88117385D01*
X194513891Y-86355480D01*
X194626260Y-86355480D01*
X194626260Y-86384744D01*
X194637459Y-86411780D01*
X194658151Y-86432472D01*
X194685187Y-86443671D01*
X194699819Y-86445112D01*
X195091182Y-86444556D01*
X195079133Y-86456647D01*
X195078322Y-86457128D01*
X195077309Y-86458477D01*
X194637459Y-86899872D01*
X194626260Y-86926909D01*
X194626260Y-86956171D01*
X194637459Y-86983208D01*
X194658151Y-87003900D01*
X194685188Y-87015099D01*
X194714450Y-87015099D01*
X194741487Y-87003900D01*
X194752852Y-86994573D01*
X195134752Y-86611332D01*
X195667389Y-87009167D01*
X195695738Y-87016429D01*
X195724706Y-87012290D01*
X195749887Y-86997381D01*
X195767446Y-86973970D01*
X195774708Y-86945622D01*
X195770570Y-86916653D01*
X195755660Y-86891472D01*
X195744819Y-86881540D01*
X195240703Y-86505009D01*
X195301242Y-86444257D01*
X195714451Y-86443671D01*
X195741487Y-86432472D01*
X195762179Y-86411780D01*
X195773378Y-86384744D01*
X195773378Y-86355480D01*
X195762179Y-86328444D01*
X195741487Y-86307752D01*
X195714451Y-86296553D01*
X195699819Y-86295112D01*
X194685187Y-86296553D01*
X194658151Y-86307752D01*
X194637459Y-86328444D01*
X194626260Y-86355480D01*
X194513891Y-86355480D01*
X194513891Y-85879290D01*
X194626260Y-85879290D01*
X194626260Y-85908554D01*
X194637459Y-85935590D01*
X194658151Y-85956282D01*
X194685187Y-85967481D01*
X194699819Y-85968922D01*
X195714451Y-85967481D01*
X195741487Y-85956282D01*
X195762179Y-85935590D01*
X195773378Y-85908554D01*
X195773378Y-85879290D01*
X195762179Y-85852254D01*
X195741487Y-85831562D01*
X195714451Y-85820363D01*
X195699819Y-85818922D01*
X194685187Y-85820363D01*
X194658151Y-85831562D01*
X194637459Y-85852254D01*
X194626260Y-85879290D01*
X194513891Y-85879290D01*
X194513891Y-84884542D01*
X194625408Y-84884542D01*
X194627483Y-84913732D01*
X194640569Y-84939905D01*
X194662676Y-84959079D01*
X194676102Y-84965073D01*
X195464895Y-85226822D01*
X194662676Y-85495431D01*
X194640569Y-85514605D01*
X194627483Y-85540778D01*
X194625408Y-85569968D01*
X194634662Y-85597731D01*
X194653836Y-85619838D01*
X194680009Y-85632924D01*
X194709199Y-85634999D01*
X194723536Y-85631739D01*
X195714413Y-85299961D01*
X195719628Y-85299591D01*
X195727956Y-85295426D01*
X195736961Y-85292412D01*
X195741008Y-85288901D01*
X195745802Y-85286505D01*
X195751966Y-85279397D01*
X195759068Y-85273238D01*
X195761463Y-85268446D01*
X195764976Y-85264397D01*
X195767950Y-85255474D01*
X195772155Y-85247065D01*
X195772534Y-85241720D01*
X195774230Y-85236635D01*
X195773563Y-85227255D01*
X195774230Y-85217875D01*
X195772534Y-85212789D01*
X195772155Y-85207445D01*
X195767950Y-85199035D01*
X195764976Y-85190113D01*
X195761463Y-85186063D01*
X195759068Y-85181272D01*
X195751966Y-85175112D01*
X195745802Y-85168005D01*
X195741008Y-85165608D01*
X195736961Y-85162098D01*
X195723536Y-85156104D01*
X194709199Y-84819511D01*
X194680009Y-84821586D01*
X194653836Y-84834672D01*
X194634662Y-84856779D01*
X194625408Y-84884542D01*
X194513891Y-84884542D01*
X194513891Y-84708400D01*
X195885819Y-84708400D01*
X195885819Y-89365746D01*
G37*
X188302319Y-79623333D02*
X187826128Y-79290000D01*
X188302319Y-79051905D02*
X187302319Y-79051905D01*
X187302319Y-79051905D02*
X187302319Y-79432857D01*
X187302319Y-79432857D02*
X187349938Y-79528095D01*
X187349938Y-79528095D02*
X187397557Y-79575714D01*
X187397557Y-79575714D02*
X187492795Y-79623333D01*
X187492795Y-79623333D02*
X187635652Y-79623333D01*
X187635652Y-79623333D02*
X187730890Y-79575714D01*
X187730890Y-79575714D02*
X187778509Y-79528095D01*
X187778509Y-79528095D02*
X187826128Y-79432857D01*
X187826128Y-79432857D02*
X187826128Y-79051905D01*
X188302319Y-80575714D02*
X188302319Y-80004286D01*
X188302319Y-80290000D02*
X187302319Y-80290000D01*
X187302319Y-80290000D02*
X187445176Y-80194762D01*
X187445176Y-80194762D02*
X187540414Y-80099524D01*
X187540414Y-80099524D02*
X187588033Y-80004286D01*
X184549819Y-79106405D02*
X183549819Y-79106405D01*
X183549819Y-79106405D02*
X183549819Y-79344500D01*
X183549819Y-79344500D02*
X183597438Y-79487357D01*
X183597438Y-79487357D02*
X183692676Y-79582595D01*
X183692676Y-79582595D02*
X183787914Y-79630214D01*
X183787914Y-79630214D02*
X183978390Y-79677833D01*
X183978390Y-79677833D02*
X184121247Y-79677833D01*
X184121247Y-79677833D02*
X184311723Y-79630214D01*
X184311723Y-79630214D02*
X184406961Y-79582595D01*
X184406961Y-79582595D02*
X184502200Y-79487357D01*
X184502200Y-79487357D02*
X184549819Y-79344500D01*
X184549819Y-79344500D02*
X184549819Y-79106405D01*
X184549819Y-80630214D02*
X184549819Y-80058786D01*
X184549819Y-80344500D02*
X183549819Y-80344500D01*
X183549819Y-80344500D02*
X183692676Y-80249262D01*
X183692676Y-80249262D02*
X183787914Y-80154024D01*
X183787914Y-80154024D02*
X183835533Y-80058786D01*
X180150057Y-90474761D02*
X180102438Y-90379523D01*
X180102438Y-90379523D02*
X180007200Y-90284285D01*
X180007200Y-90284285D02*
X179864342Y-90141428D01*
X179864342Y-90141428D02*
X179816723Y-90046190D01*
X179816723Y-90046190D02*
X179816723Y-89950952D01*
X180054819Y-89998571D02*
X180007200Y-89903333D01*
X180007200Y-89903333D02*
X179911961Y-89808095D01*
X179911961Y-89808095D02*
X179721485Y-89760476D01*
X179721485Y-89760476D02*
X179388152Y-89760476D01*
X179388152Y-89760476D02*
X179197676Y-89808095D01*
X179197676Y-89808095D02*
X179102438Y-89903333D01*
X179102438Y-89903333D02*
X179054819Y-89998571D01*
X179054819Y-89998571D02*
X179054819Y-90189047D01*
X179054819Y-90189047D02*
X179102438Y-90284285D01*
X179102438Y-90284285D02*
X179197676Y-90379523D01*
X179197676Y-90379523D02*
X179388152Y-90427142D01*
X179388152Y-90427142D02*
X179721485Y-90427142D01*
X179721485Y-90427142D02*
X179911961Y-90379523D01*
X179911961Y-90379523D02*
X180007200Y-90284285D01*
X180007200Y-90284285D02*
X180054819Y-90189047D01*
X180054819Y-90189047D02*
X180054819Y-89998571D01*
X180054819Y-91379523D02*
X180054819Y-90808095D01*
X180054819Y-91093809D02*
X179054819Y-91093809D01*
X179054819Y-91093809D02*
X179197676Y-90998571D01*
X179197676Y-90998571D02*
X179292914Y-90903333D01*
X179292914Y-90903333D02*
X179340533Y-90808095D01*
%TO.C,J2*%
X197325000Y-83280000D02*
X200675000Y-83280000D01*
X197325000Y-90980000D02*
X197325000Y-83280000D01*
X197325000Y-90980000D02*
X200675000Y-90980000D01*
X200675000Y-83280000D02*
X200675000Y-90980000D01*
D11*
X196997000Y-83710000D02*
G75*
G02*
X196743000Y-83710000I-127000J0D01*
G01*
X196743000Y-83710000D02*
G75*
G02*
X196997000Y-83710000I127000J0D01*
G01*
D12*
%TO.C,R1*%
X185117500Y-79062936D02*
X185117500Y-80517064D01*
X186937500Y-79062936D02*
X186937500Y-80517064D01*
%TO.C,D1*%
X181190000Y-78067500D02*
X181190000Y-81927500D01*
X181190000Y-81927500D02*
X183190000Y-81927500D01*
X183190000Y-78067500D02*
X183190000Y-81927500D01*
%TO.C,Q1*%
X180650000Y-87260000D02*
X180650000Y-93680000D01*
X180920000Y-87260000D02*
X180650000Y-87260000D01*
X187280000Y-87260000D02*
X187550000Y-87260000D01*
X187550000Y-87260000D02*
X187550000Y-93680000D01*
X180960000Y-85840000D02*
X180630000Y-86080000D01*
X180630000Y-85600000D01*
X180960000Y-85840000D01*
G36*
X180960000Y-85840000D02*
G01*
X180630000Y-86080000D01*
X180630000Y-85600000D01*
X180960000Y-85840000D01*
G37*
%TD*%
%LPC*%
D13*
%TO.C,J1*%
X200650000Y-71985000D03*
D14*
X200650000Y-69445000D03*
%TD*%
D15*
%TO.C,REF\u002A\u002A*%
X192050000Y-68890000D03*
X192050000Y-105890000D03*
%TD*%
D16*
%TO.C,J2*%
X196890000Y-84380000D03*
X196890000Y-84880000D03*
X196890000Y-85380000D03*
X196890000Y-85880000D03*
X196890000Y-86380000D03*
X196890000Y-86880000D03*
X196890000Y-87380000D03*
X196890000Y-87880000D03*
X196890000Y-88380000D03*
X196890000Y-88880000D03*
X196890000Y-89380000D03*
X196890000Y-89880000D03*
D17*
X199700000Y-90765000D03*
X199700000Y-83495000D03*
%TD*%
D18*
%TO.C,R1*%
X186027500Y-81252500D03*
X186027500Y-78327500D03*
%TD*%
D19*
%TO.C,D1*%
X182190000Y-81117500D03*
X182190000Y-78317500D03*
%TD*%
D20*
%TO.C,Q1*%
X181820000Y-85530000D03*
D21*
X184100000Y-91830000D03*
D20*
X186380000Y-85530000D03*
%TD*%
%LPD*%
M02*
