%TF.GenerationSoftware,KiCad,Pcbnew,8.0.2*%
%TF.CreationDate,2024-06-01T22:35:26-05:00*%
%TF.ProjectId,VIK-Solenoid,56494b2d-536f-46c6-956e-6f69642e6b69,rev?*%
%TF.SameCoordinates,Original*%
%TF.FileFunction,Copper,L2,Bot*%
%TF.FilePolarity,Positive*%
%FSLAX46Y46*%
G04 Gerber Fmt 4.6, Leading zero omitted, Abs format (unit mm)*
G04 Created by KiCad (PCBNEW 8.0.2) date 2024-06-01 22:35:26*
%MOMM*%
%LPD*%
G01*
G04 APERTURE LIST*
G04 Aperture macros list*
%AMRoundRect*
0 Rectangle with rounded corners*
0 $1 Rounding radius*
0 $2 $3 $4 $5 $6 $7 $8 $9 X,Y pos of 4 corners*
0 Add a 4 corners polygon primitive as box body*
4,1,4,$2,$3,$4,$5,$6,$7,$8,$9,$2,$3,0*
0 Add four circle primitives for the rounded corners*
1,1,$1+$1,$2,$3*
1,1,$1+$1,$4,$5*
1,1,$1+$1,$6,$7*
1,1,$1+$1,$8,$9*
0 Add four rect primitives between the rounded corners*
20,1,$1+$1,$2,$3,$4,$5,0*
20,1,$1+$1,$4,$5,$6,$7,0*
20,1,$1+$1,$6,$7,$8,$9,0*
20,1,$1+$1,$8,$9,$2,$3,0*%
G04 Aperture macros list end*
%TA.AperFunction,ComponentPad*%
%ADD10R,1.700000X1.700000*%
%TD*%
%TA.AperFunction,ComponentPad*%
%ADD11O,1.700000X1.700000*%
%TD*%
%TA.AperFunction,ComponentPad*%
%ADD12C,3.800000*%
%TD*%
%TA.AperFunction,SMDPad,CuDef*%
%ADD13R,0.650000X0.300000*%
%TD*%
%TA.AperFunction,SMDPad,CuDef*%
%ADD14R,1.150000X0.300000*%
%TD*%
%TA.AperFunction,SMDPad,CuDef*%
%ADD15RoundRect,0.250000X0.625000X-0.312500X0.625000X0.312500X-0.625000X0.312500X-0.625000X-0.312500X0*%
%TD*%
%TA.AperFunction,SMDPad,CuDef*%
%ADD16RoundRect,0.250000X0.300000X-0.300000X0.300000X0.300000X-0.300000X0.300000X-0.300000X-0.300000X0*%
%TD*%
%TA.AperFunction,SMDPad,CuDef*%
%ADD17RoundRect,0.250000X-0.350000X0.850000X-0.350000X-0.850000X0.350000X-0.850000X0.350000X0.850000X0*%
%TD*%
%TA.AperFunction,SMDPad,CuDef*%
%ADD18RoundRect,0.250000X-1.125000X1.275000X-1.125000X-1.275000X1.125000X-1.275000X1.125000X1.275000X0*%
%TD*%
%TA.AperFunction,SMDPad,CuDef*%
%ADD19RoundRect,0.249997X-2.650003X2.950003X-2.650003X-2.950003X2.650003X-2.950003X2.650003X2.950003X0*%
%TD*%
%TA.AperFunction,Conductor*%
%ADD20C,0.300000*%
%TD*%
%TA.AperFunction,Conductor*%
%ADD21C,0.500000*%
%TD*%
G04 APERTURE END LIST*
D10*
%TO.P,J1,1,Pin_1*%
%TO.N,Net-(D1-A)*%
X200650000Y-71985000D03*
D11*
%TO.P,J1,2,Pin_2*%
%TO.N,+5V*%
X200650000Y-69445000D03*
%TD*%
D12*
%TO.P,REF\u002A\u002A,1*%
%TO.N,N/C*%
X192050000Y-68890000D03*
X192050000Y-105890000D03*
%TD*%
D13*
%TO.P,J2,1,SCLK*%
%TO.N,unconnected-(J2-SCLK-Pad1)*%
X196890000Y-84380000D03*
%TO.P,J2,2,MISO*%
%TO.N,unconnected-(J2-MISO-Pad2)*%
X196890000Y-84880000D03*
%TO.P,J2,3,SPI_CS*%
%TO.N,unconnected-(J2-SPI_CS-Pad3)*%
X196890000Y-85380000D03*
%TO.P,J2,4,GP_AD2*%
%TO.N,unconnected-(J2-GP_AD2-Pad4)*%
X196890000Y-85880000D03*
%TO.P,J2,5,MOSI*%
%TO.N,unconnected-(J2-MOSI-Pad5)*%
X196890000Y-86380000D03*
%TO.P,J2,6,GP_AD1*%
%TO.N,Solenoid*%
X196890000Y-86880000D03*
%TO.P,J2,7,5V*%
%TO.N,+5V*%
X196890000Y-87380000D03*
%TO.P,J2,8,RGB_DO*%
%TO.N,unconnected-(J2-RGB_DO-Pad8)*%
X196890000Y-87880000D03*
%TO.P,J2,9,SCL*%
%TO.N,unconnected-(J2-SCL-Pad9)*%
X196890000Y-88380000D03*
%TO.P,J2,10,SDA*%
%TO.N,unconnected-(J2-SDA-Pad10)*%
X196890000Y-88880000D03*
%TO.P,J2,11,GND*%
%TO.N,GND*%
X196890000Y-89380000D03*
%TO.P,J2,12,3V3*%
%TO.N,unconnected-(J2-3V3-Pad12)*%
X196890000Y-89880000D03*
D14*
%TO.P,J2,13*%
%TO.N,N/C*%
X199700000Y-90765000D03*
%TO.P,J2,14*%
X199700000Y-83495000D03*
%TD*%
D15*
%TO.P,R1,1*%
%TO.N,Net-(Q1-B)*%
X186027500Y-81252500D03*
%TO.P,R1,2*%
%TO.N,Solenoid*%
X186027500Y-78327500D03*
%TD*%
D16*
%TO.P,D1,1,K*%
%TO.N,+5V*%
X182190000Y-81117500D03*
%TO.P,D1,2,A*%
%TO.N,Net-(D1-A)*%
X182190000Y-78317500D03*
%TD*%
D17*
%TO.P,Q1,1,B*%
%TO.N,Net-(Q1-B)*%
X181820000Y-85530000D03*
D18*
%TO.P,Q1,2,C*%
%TO.N,Net-(D1-A)*%
X185625000Y-90155000D03*
X182575000Y-90155000D03*
D19*
X184100000Y-91830000D03*
D18*
X185625000Y-93505000D03*
X182575000Y-93505000D03*
D17*
%TO.P,Q1,3,E*%
%TO.N,GND*%
X186380000Y-85530000D03*
%TD*%
D20*
%TO.N,+5V*%
X184120000Y-79060000D02*
X184120000Y-78840000D01*
X184850000Y-79790000D02*
X184120000Y-79060000D01*
X190360000Y-79790000D02*
X184850000Y-79790000D01*
X192490000Y-81920000D02*
X190360000Y-79790000D01*
X192490000Y-84020000D02*
X192490000Y-81920000D01*
X194050000Y-85580000D02*
X192490000Y-84020000D01*
X194050000Y-85587106D02*
X194050000Y-85580000D01*
X195842894Y-87380000D02*
X194050000Y-85587106D01*
X196890000Y-87380000D02*
X195842894Y-87380000D01*
%TO.N,Solenoid*%
X196050000Y-86880000D02*
X196890000Y-86880000D01*
X195230000Y-86060000D02*
X196050000Y-86880000D01*
X186027500Y-78327500D02*
X192457500Y-78327500D01*
X192457500Y-78327500D02*
X195230000Y-81100000D01*
X195230000Y-81100000D02*
X195230000Y-86060000D01*
%TO.N,+5V*%
X203470000Y-70900000D02*
X202015000Y-69445000D01*
X203470000Y-72570000D02*
X203470000Y-70900000D01*
X201970000Y-74070000D02*
X203470000Y-72570000D01*
X187540000Y-74070000D02*
X201970000Y-74070000D01*
X202015000Y-69445000D02*
X200650000Y-69445000D01*
X184120000Y-77490000D02*
X187540000Y-74070000D01*
X184120000Y-78840000D02*
X184120000Y-77490000D01*
X182190000Y-81117500D02*
X182190000Y-80770000D01*
X182190000Y-80770000D02*
X184120000Y-78840000D01*
%TO.N,Net-(D1-A)*%
X182190000Y-78317500D02*
X188522500Y-71985000D01*
X188522500Y-71985000D02*
X200650000Y-71985000D01*
X182575000Y-90155000D02*
X180430000Y-88010000D01*
X180430000Y-88010000D02*
X180430000Y-80077500D01*
X180430000Y-80077500D02*
X182190000Y-78317500D01*
%TO.N,GND*%
X190230000Y-89380000D02*
X196890000Y-89380000D01*
X190230000Y-89380000D02*
X186380000Y-85530000D01*
D21*
%TO.N,Net-(Q1-B)*%
X181820000Y-85460000D02*
X181820000Y-85530000D01*
X186027500Y-81252500D02*
X181820000Y-85460000D01*
X186027500Y-81322500D02*
X186027500Y-81252500D01*
%TD*%
M02*
